<?xml version="1.0" encoding="utf-8"?>
<!-- Generator: Adobe Illustrator 24.2.1, SVG Export Plug-In . SVG Version: 6.00 Build 0)  -->
<svg version="1.1" id="Layer_1" xmlns="http://www.w3.org/2000/svg" xmlns:xlink="http://www.w3.org/1999/xlink" x="0px" y="0px"
	 viewBox="0 0 135 117" style="enable-background:new 0 0 135 117;" xml:space="preserve">
<style type="text/css">
	.st0{fill:#666666;}
	.st1{fill:none;stroke:#666666;stroke-width:2;stroke-miterlimit:10;}
	.st2{fill:#666666;stroke:#666666;stroke-width:2;stroke-miterlimit:10;}
</style>
<g>
	<path class="st0" d="M67.01,50.49c2.48,0,4.5,2.02,4.5,4.5s-2.02,4.5-4.5,4.5s-4.5-2.02-4.5-4.5S64.53,50.49,67.01,50.49
		 M67.01,48.49c-3.59,0-6.5,2.91-6.5,6.5s2.91,6.5,6.5,6.5s6.5-2.91,6.5-6.5S70.6,48.49,67.01,48.49L67.01,48.49z"/>
</g>
<g>
	<path class="st0" d="M92.3,50.53c2.48,0,4.5,2.02,4.5,4.5s-2.02,4.5-4.5,4.5s-4.5-2.02-4.5-4.5S89.82,50.53,92.3,50.53 M92.3,48.53
		c-3.59,0-6.5,2.91-6.5,6.5s2.91,6.5,6.5,6.5s6.5-2.91,6.5-6.5S95.89,48.53,92.3,48.53L92.3,48.53z"/>
</g>
<g>
	<path class="st0" d="M117.3,50.53c2.48,0,4.5,2.02,4.5,4.5s-2.02,4.5-4.5,4.5s-4.5-2.02-4.5-4.5S114.82,50.53,117.3,50.53
		 M117.3,48.53c-3.59,0-6.5,2.91-6.5,6.5s2.91,6.5,6.5,6.5s6.5-2.91,6.5-6.5S120.89,48.53,117.3,48.53L117.3,48.53z"/>
</g>
<g>
	<path class="st0" d="M15.76,50.45c2.48,0,4.5,2.02,4.5,4.5s-2.02,4.5-4.5,4.5s-4.5-2.02-4.5-4.5S13.28,50.45,15.76,50.45
		 M15.76,48.45c-3.59,0-6.5,2.91-6.5,6.5s2.91,6.5,6.5,6.5s6.5-2.91,6.5-6.5S19.35,48.45,15.76,48.45L15.76,48.45z"/>
</g>
<g>
	<path class="st0" d="M41.76,50.45c2.48,0,4.5,2.02,4.5,4.5s-2.02,4.5-4.5,4.5s-4.5-2.02-4.5-4.5S39.28,50.45,41.76,50.45
		 M41.76,48.45c-3.59,0-6.5,2.91-6.5,6.5s2.91,6.5,6.5,6.5s6.5-2.91,6.5-6.5S45.35,48.45,41.76,48.45L41.76,48.45z"/>
</g>
<g>
	<line class="st1" x1="22.26" y1="54.95" x2="35.26" y2="54.95"/>
</g>
<line class="st1" x1="48.26" y1="54.95" x2="60.51" y2="54.99"/>
<line class="st1" x1="73.51" y1="54.99" x2="85.8" y2="55.03"/>
<line class="st1" x1="98.8" y1="55.03" x2="110.8" y2="55.03"/>
<circle class="st2" cx="92.28" cy="55.13" r="2.37"/>
</svg>
