<?xml version="1.0" encoding="utf-8"?>
<!-- Generator: Adobe Illustrator 19.0.0, SVG Export Plug-In . SVG Version: 6.00 Build 0)  -->
<svg version="1.1" id="Layer_1" xmlns="http://www.w3.org/2000/svg" xmlns:xlink="http://www.w3.org/1999/xlink" x="0px" y="0px"
	 viewBox="-210 314.7 189.6 164.3" style="enable-background:new -210 314.7 189.6 164.3;" xml:space="preserve">
<style type="text/css">
	.st0{fill:#4D4D4D;}
	.st1{font-family:'Georgia';}
	.st2{font-size:16.27px;}
	.st3{opacity:0.2;fill:none;stroke:#676767;stroke-miterlimit:10;enable-background:new    ;}
</style>
<g>
	<rect x="-178.7" y="390.8" class="st0" width="63.5" height="2.4"/>
	<rect x="-178.7" y="394.4" class="st0" width="153.8" height="2.5"/>
	<rect x="-178.7" y="398.1" class="st0" width="153.8" height="2.5"/>
	<rect x="-205.3" y="387.1" class="st0" width="18.6" height="12.9"/>
	<rect x="-178.7" y="387.1" class="st0" width="43.2" height="2.5"/>
</g>
<text transform="matrix(1 0 0 1 -205.02 371.83)" class="st0 st1 st2">A</text>
<line class="st3" x1="-206" y1="376.3" x2="-24.2" y2="376.3"/>
<g>
	<rect x="-178.4" y="411.3" class="st0" width="63.5" height="2.4"/>
	<rect x="-178.4" y="414.9" class="st0" width="153.8" height="2.5"/>
	<rect x="-178.4" y="418.6" class="st0" width="153.8" height="2.5"/>
	<rect x="-205" y="407.6" class="st0" width="18.6" height="12.9"/>
	<rect x="-178.4" y="407.6" class="st0" width="43.2" height="2.5"/>
</g>
<g>
	<rect x="-178.4" y="431" class="st0" width="63.5" height="2.4"/>
	<rect x="-178.4" y="434.6" class="st0" width="153.8" height="2.5"/>
	<rect x="-178.4" y="438.3" class="st0" width="153.8" height="2.5"/>
	<rect x="-205" y="427.3" class="st0" width="18.6" height="12.9"/>
	<rect x="-178.4" y="427.3" class="st0" width="43.2" height="2.5"/>
</g>
</svg>
