<svg xmlns="http://www.w3.org/2000/svg"  viewBox="0 0 28.458 28.457">
  <path id="Icon_awesome-facebook-square" data-name="Icon awesome-facebook-square" d="M25.409,2.25H3.049A3.049,3.049,0,0,0,0,5.3V27.658a3.049,3.049,0,0,0,3.049,3.049h8.718V21.033h-4V16.479h4V13.008c0-3.948,2.35-6.129,5.95-6.129a24.244,24.244,0,0,1,3.527.307v3.875H19.258a2.277,2.277,0,0,0-2.568,2.46v2.957h4.369l-.7,4.554H16.69v9.675h8.718a3.049,3.049,0,0,0,3.049-3.049V5.3A3.049,3.049,0,0,0,25.409,2.25Z" transform="translate(0 -2.25)" fill="#501214"/>
</svg>
