<svg xmlns="http://www.w3.org/2000/svg"  viewBox="0 0 39.614 11.16">
  <g id="NetID" transform="translate(-408.622 -383.92)" style="isolation: isolate">
    <g id="Group_2313" data-name="Group 2313" style="isolation: isolate">
      <path id="Path_431" data-name="Path 431" d="M408.622,383.95h3.359l4.065,8.535V383.95h2.16V394.8h-3.2l-4.2-9v9h-2.19Z" fill="#501214"/>
      <path id="Path_432" data-name="Path 432" d="M422.106,391.57c0,.495,0,2.025,1.545,2.025a1.242,1.242,0,0,0,1.321-1.05H427a2.538,2.538,0,0,1-.721,1.65,3.682,3.682,0,0,1-2.654.885,3.77,3.77,0,0,1-2.67-.945,4.908,4.908,0,0,1,.6-6.539,3.788,3.788,0,0,1,2.13-.631,3.252,3.252,0,0,1,3.059,1.83,5.622,5.622,0,0,1,.45,2.775Zm2.82-1.4c0-.345-.03-1.695-1.32-1.695-.975,0-1.379.81-1.424,1.695Z" fill="#501214"/>
      <path id="Path_433" data-name="Path 433" d="M433.251,394.689a6.844,6.844,0,0,1-1.725.241c-2.235,0-2.235-1.41-2.235-2.04v-4.155h-1.455v-1.469h1.455V385.78l2.205-.809v2.295h1.8v1.469h-1.8v3.42c.015.69.015,1.125,1.005,1.125a5.593,5.593,0,0,0,.75-.045Z" fill="#501214"/>
      <path id="Path_434" data-name="Path 434" d="M434.691,383.92h2.326V394.8h-2.326Z" fill="#501214"/>
      <path id="Path_435" data-name="Path 435" d="M439.071,383.98l3.585.015a6.554,6.554,0,0,1,3.735.976,5.17,5.17,0,0,1,1.845,4.259c0,3.33-1.785,5.07-3.84,5.445a10.127,10.127,0,0,1-1.95.12h-3.375Zm2.356,9.03c.255.015.644.03.914.03a3.262,3.262,0,0,0,2.52-.75,4.606,4.606,0,0,0,.975-3.06c0-1.53-.524-2.94-1.98-3.344a7.489,7.489,0,0,0-2.429-.151Z" fill="#501214"/>
    </g>
  </g>
</svg>
