<svg xmlns="http://www.w3.org/2000/svg"  viewBox="0 0 32.523 30.18">
  <path id="Icon_simple-microsoftoutlook" data-name="Icon simple-microsoftoutlook" d="M32.523,10.135v14.2a1.042,1.042,0,0,1-.323.781,1.084,1.084,0,0,1-.786.312H19.832V16L22,17.662a.776.776,0,0,0,.514.171.837.837,0,0,0,.527-.172ZM19.832,7.4H31.415a1.091,1.091,0,0,1,.736.26.958.958,0,0,1,.336.691L22.5,16.311l-2.668-2.1V7.4ZM18.164,1.3v30.18L0,28.337V4.521L18.167,1.3h0Zm-5.487,15.15a6.3,6.3,0,0,0-1.191-3.813A3.675,3.675,0,0,0,8.6,11.056a3.694,3.694,0,0,0-2.846,1.577,6.219,6.219,0,0,0-1.179,3.813,6.184,6.184,0,0,0,1.2,3.782A3.753,3.753,0,0,0,8.62,21.822a3.738,3.738,0,0,0,2.907-1.585,6.22,6.22,0,0,0,1.2-3.79h-.049ZM8.449,13.083a1.814,1.814,0,0,1,1.468.972,4.447,4.447,0,0,1,.589,2.374,4.493,4.493,0,0,1-.589,2.4,1.763,1.763,0,0,1-1.485.954,1.737,1.737,0,0,1-1.484-.935,4.3,4.3,0,0,1-.589-2.377,4.183,4.183,0,0,1,.589-2.358,1.868,1.868,0,0,1,1.465-.977Z" transform="translate(0 -1.296)" fill="#501214"/>
</svg>
