<svg xmlns="http://www.w3.org/2000/svg" viewBox="0 0 159.13 137.92"><defs><style>.cls-1{isolation:isolate;}.cls-2{fill:#393939;opacity:0.78;}.cls-3{fill:#676767;}.cls-4{fill:#9f9e9e;opacity:0.37;}.cls-5{opacity:0.58;mix-blend-mode:multiply;}.cls-6{fill:#cfcfcf;}</style></defs><title>icont-text copy 18</title><g class="cls-1"><g id="_2column_1" data-name="2column_1"><rect class="cls-2" x="4.57" y="0.44" width="150" height="104.3"/><rect class="cls-3" x="7.03" y="2.15" width="145.07" height="100.87"/><rect class="cls-4" x="7.03" y="2.15" width="145.07" height="1.53"/><rect class="cls-4" x="4.57" y="104.57" width="150" height="2.48"/><g class="cls-5"><rect class="cls-6" x="28.59" y="7.56" width="101.95" height="3.32"/><rect class="cls-6" x="28.59" y="11.63" width="101.95" height="3.32"/><rect class="cls-6" x="28.59" y="15.7" width="101.95" height="3.32"/><rect class="cls-6" x="28.59" y="19.77" width="101.95" height="3.32"/><rect class="cls-6" x="28.59" y="23.84" width="101.95" height="3.32"/><rect class="cls-6" x="28.59" y="27.91" width="87.25" height="3.32"/></g><g class="cls-5"><rect class="cls-6" x="28.59" y="75.85" width="32.28" height="3.32"/><rect class="cls-6" x="28.59" y="79.92" width="101.95" height="3.32"/><rect class="cls-6" x="28.59" y="83.99" width="101.95" height="3.32"/><rect class="cls-6" x="28.59" y="88.06" width="101.95" height="3.32"/><rect class="cls-6" x="28.59" y="92.13" width="101.95" height="3.32"/><rect class="cls-6" x="28.59" y="96.2" width="87.25" height="3.32"/></g><rect class="cls-6" x="28.59" y="33.97" width="48.37" height="39.15"/><rect class="cls-6" x="82.17" y="33.97" width="48.37" height="39.15"/></g></g></svg>