<svg xmlns="http://www.w3.org/2000/svg" viewBox="0 0 159.13 137.92"><defs><style>.cls-1{isolation:isolate;}.cls-2{fill:#393939;opacity:0.78;}.cls-3{fill:#676767;}.cls-4{fill:#9f9e9e;opacity:0.37;}.cls-5{opacity:0.58;mix-blend-mode:multiply;}.cls-6{fill:#cfcfcf;}</style></defs><title>icont-text copy 20</title><g class="cls-1"><g id="_2column_2" data-name="2column_2"><rect class="cls-2" x="5.7" y="0.76" width="149.44" height="104.81"/><rect class="cls-3" x="8.15" y="2.48" width="144.52" height="101.36"/><rect class="cls-4" x="8.15" y="2.48" width="144.52" height="1.53"/><rect class="cls-4" x="5.7" y="105.39" width="149.44" height="2.49"/><g class="cls-5"><rect class="cls-6" x="29.63" y="7.91" width="101.57" height="3.34"/><rect class="cls-6" x="29.63" y="12" width="101.57" height="3.34"/><rect class="cls-6" x="29.63" y="16.09" width="101.57" height="3.34"/><rect class="cls-6" x="29.63" y="20.18" width="101.57" height="3.34"/><rect class="cls-6" x="29.63" y="24.27" width="101.57" height="3.34"/><rect class="cls-6" x="29.63" y="28.36" width="86.92" height="3.34"/></g><g class="cls-5"><rect class="cls-6" x="29.63" y="76.53" width="32.16" height="3.34"/><rect class="cls-6" x="29.63" y="80.62" width="101.57" height="3.34"/><rect class="cls-6" x="29.63" y="84.71" width="101.57" height="3.34"/><rect class="cls-6" x="29.63" y="88.8" width="101.57" height="3.34"/><rect class="cls-6" x="29.63" y="92.89" width="101.57" height="3.34"/><rect class="cls-6" x="29.63" y="96.98" width="86.92" height="3.34"/></g><rect class="cls-6" x="29.63" y="34.1" width="22.71" height="40.17"/><rect class="cls-6" x="55.92" y="34.1" width="75.28" height="40.17"/></g></g></svg>