<svg xmlns="http://www.w3.org/2000/svg" viewBox="0 0 159.13 137.92"><defs><style>.cls-1{isolation:isolate;}.cls-2{fill:#393939;opacity:0.78;}.cls-3{fill:#676767;}.cls-4{opacity:0.58;mix-blend-mode:multiply;}.cls-5{fill:#cfcfcf;}.cls-6{fill:#9f9e9e;opacity:0.37;}</style></defs><title>icont-text copy 21</title><g class="cls-1"><g id="_2column_3" data-name="2column_3"><rect class="cls-2" x="5.48" y="-0.03" width="149.88" height="103.85"/><rect class="cls-3" x="7.94" y="1.68" width="144.95" height="100.44"/><g class="cls-4"><rect class="cls-5" x="28.51" y="4.88" width="103.8" height="3.4"/><rect class="cls-5" x="28.51" y="9.04" width="103.8" height="3.4"/><rect class="cls-5" x="28.51" y="13.2" width="103.8" height="3.4"/><rect class="cls-5" x="28.51" y="17.36" width="103.8" height="3.4"/><rect class="cls-5" x="28.51" y="21.52" width="103.8" height="3.4"/><rect class="cls-5" x="28.51" y="25.68" width="88.84" height="3.4"/></g><g class="cls-4"><rect class="cls-5" x="28.51" y="74.71" width="32.86" height="3.4"/><rect class="cls-5" x="28.51" y="78.87" width="103.8" height="3.4"/><rect class="cls-5" x="28.51" y="83.03" width="103.8" height="3.4"/><rect class="cls-5" x="28.51" y="87.19" width="103.8" height="3.4"/><rect class="cls-5" x="28.51" y="91.35" width="103.8" height="3.4"/><rect class="cls-5" x="28.51" y="95.51" width="88.84" height="3.4"/></g><rect class="cls-5" x="108.36" y="30.93" width="22.99" height="41.92"/><rect class="cls-5" x="28.51" y="30.93" width="76.22" height="41.92"/><rect class="cls-6" x="7.94" y="1.68" width="144.84" height="1.56"/><rect class="cls-6" x="5.53" y="103.82" width="149.77" height="2.53"/></g></g></svg>