<svg xmlns="http://www.w3.org/2000/svg" viewBox="0 0 159.13 137.92"><defs><style>.cls-1{isolation:isolate;}.cls-2{fill:#393939;opacity:0.78;}.cls-3{fill:#676767;}.cls-4{fill:#9f9e9e;opacity:0.37;}.cls-5{opacity:0.58;mix-blend-mode:multiply;}.cls-6{fill:#cfcfcf;}</style></defs><title>icont-text copy 19</title><g class="cls-1"><g id="_3column" data-name="3column"><rect class="cls-2" x="5.75" y="0.19" width="149.32" height="104.41"/><rect class="cls-3" x="8.21" y="1.9" width="144.41" height="100.97"/><rect class="cls-4" x="8.21" y="1.9" width="144.41" height="1.53"/><rect class="cls-4" x="5.75" y="104.42" width="149.32" height="2.48"/><g class="cls-5"><rect class="cls-6" x="29.67" y="7.32" width="101.49" height="3.33"/><rect class="cls-6" x="29.67" y="11.39" width="101.49" height="3.33"/><rect class="cls-6" x="29.67" y="15.46" width="101.49" height="3.33"/><rect class="cls-6" x="29.67" y="19.54" width="101.49" height="3.33"/><rect class="cls-6" x="29.67" y="23.61" width="101.49" height="3.33"/><rect class="cls-6" x="29.67" y="27.68" width="86.86" height="3.33"/></g><g class="cls-5"><rect class="cls-6" x="29.67" y="75.68" width="32.13" height="3.33"/><rect class="cls-6" x="29.67" y="79.75" width="101.49" height="3.33"/><rect class="cls-6" x="29.67" y="83.82" width="101.49" height="3.33"/><rect class="cls-6" x="29.67" y="87.9" width="101.49" height="3.33"/><rect class="cls-6" x="29.67" y="91.97" width="101.49" height="3.33"/><rect class="cls-6" x="29.67" y="96.04" width="86.86" height="3.33"/></g><rect class="cls-6" x="29.67" y="33.75" width="31.45" height="39.19"/><rect class="cls-6" x="64.69" y="33.75" width="31.45" height="39.19"/><rect class="cls-6" x="99.71" y="33.75" width="31.45" height="39.19"/></g></g></svg>