<svg xmlns="http://www.w3.org/2000/svg" viewBox="0 0 159.13 137.92"><defs><style>.cls-1{isolation:isolate;}.cls-2{fill:#393939;opacity:0.78;}.cls-3{fill:#676767;}.cls-4{fill:#9f9e9e;opacity:0.37;}.cls-5{opacity:0.58;mix-blend-mode:multiply;}.cls-6{fill:#cfcfcf;}</style></defs><title>icont-text copy 17</title><g class="cls-1"><g id="_4column" data-name="4column"><rect class="cls-2" x="4.61" width="149.91" height="104.82"/><rect class="cls-3" x="7.08" y="1.72" width="144.98" height="101.37"/><rect class="cls-4" x="7.08" y="1.72" width="144.98" height="1.53"/><rect class="cls-4" x="4.61" y="105.07" width="149.91" height="2.49"/><g class="cls-5"><rect class="cls-6" x="28.62" y="7.16" width="101.89" height="3.34"/><rect class="cls-6" x="28.62" y="11.25" width="101.89" height="3.34"/><rect class="cls-6" x="28.62" y="15.33" width="101.89" height="3.34"/><rect class="cls-6" x="28.62" y="19.42" width="101.89" height="3.34"/><rect class="cls-6" x="28.62" y="23.51" width="101.89" height="3.34"/><rect class="cls-6" x="28.62" y="27.6" width="87.2" height="3.34"/></g><g class="cls-5"><rect class="cls-6" x="28.62" y="75.79" width="32.26" height="3.34"/><rect class="cls-6" x="28.62" y="79.87" width="101.89" height="3.34"/><rect class="cls-6" x="28.62" y="83.96" width="101.89" height="3.34"/><rect class="cls-6" x="28.62" y="88.05" width="101.89" height="3.34"/><rect class="cls-6" x="28.62" y="92.14" width="101.89" height="3.34"/><rect class="cls-6" x="28.62" y="96.23" width="87.2" height="3.34"/></g><rect class="cls-6" x="28.62" y="33.69" width="22.78" height="39.34"/><rect class="cls-6" x="54.99" y="33.69" width="22.78" height="39.34"/><rect class="cls-6" x="81.36" y="33.69" width="22.78" height="39.34"/><rect class="cls-6" x="107.73" y="33.69" width="22.78" height="39.34"/></g></g></svg>