<svg xmlns="http://www.w3.org/2000/svg" viewBox="0 0 159.13 137.92"><defs><style>.cls-1{isolation:isolate;}.cls-2{fill:#393939;opacity:0.78;}.cls-3{fill:#676767;}.cls-4{fill:#cfcfcf;}.cls-5{fill:#9f9e9e;opacity:0.37;}.cls-6{opacity:0.58;mix-blend-mode:multiply;}</style></defs><title>icont-text copy 16</title><g class="cls-1"><g id="One_Column" data-name="One Column"><rect class="cls-2" x="4.84" y="0.1" width="149.45" height="104.5"/><rect class="cls-3" x="7.3" y="1.82" width="144.54" height="101.06"/><rect class="cls-4" x="28.78" y="33.69" width="101.58" height="39.22"/><rect class="cls-5" x="7.3" y="1.82" width="144.54" height="1.53"/><rect class="cls-5" x="4.84" y="104.42" width="149.45" height="2.48"/><g class="cls-6"><rect class="cls-4" x="28.78" y="7.23" width="101.58" height="3.33"/><rect class="cls-4" x="28.78" y="11.31" width="101.58" height="3.33"/><rect class="cls-4" x="28.78" y="15.39" width="101.58" height="3.33"/><rect class="cls-4" x="28.78" y="19.46" width="101.58" height="3.33"/><rect class="cls-4" x="28.78" y="23.54" width="101.58" height="3.33"/><rect class="cls-4" x="28.78" y="27.62" width="86.93" height="3.33"/></g><g class="cls-6"><rect class="cls-4" x="28.78" y="75.65" width="32.16" height="3.33"/><rect class="cls-4" x="28.78" y="79.73" width="101.58" height="3.33"/><rect class="cls-4" x="28.78" y="83.81" width="101.58" height="3.33"/><rect class="cls-4" x="28.78" y="87.88" width="101.58" height="3.33"/><rect class="cls-4" x="28.78" y="91.96" width="101.58" height="3.33"/><rect class="cls-4" x="28.78" y="96.04" width="86.93" height="3.33"/></g></g></g></svg>