<svg xmlns="http://www.w3.org/2000/svg" viewBox="0 0 159.13 137.92"><defs><style>.cls-1{isolation:isolate;}.cls-2{fill:#393939;opacity:0.78;}.cls-3{fill:#676767;}.cls-4{fill:#9f9e9e;opacity:0.37;}.cls-5{opacity:0.58;mix-blend-mode:multiply;}.cls-6{fill:#cfcfcf;}</style></defs><title>icont-text copy 22</title><g class="cls-1"><g id="mosaic"><rect class="cls-2" x="4.85" y="-0.03" width="149.44" height="102.7"/><rect class="cls-3" x="7.31" y="1.66" width="144.52" height="99.32"/><rect class="cls-4" x="7.31" y="1.66" width="144.52" height="1.5"/><rect class="cls-4" x="4.85" y="102.5" width="149.44" height="2.44"/><g class="cls-5"><rect class="cls-6" x="28.78" y="6.98" width="101.57" height="3.27"/><rect class="cls-6" x="28.78" y="10.99" width="101.57" height="3.27"/><rect class="cls-6" x="28.78" y="14.99" width="101.57" height="3.27"/><rect class="cls-6" x="28.78" y="19" width="101.57" height="3.27"/><rect class="cls-6" x="28.78" y="23.01" width="101.57" height="3.27"/><rect class="cls-6" x="28.78" y="27.01" width="86.92" height="3.27"/></g><g class="cls-5"><rect class="cls-6" x="29.26" y="74.94" width="32.16" height="3.27"/><rect class="cls-6" x="29.26" y="78.95" width="101.57" height="3.27"/><rect class="cls-6" x="29.26" y="82.95" width="101.57" height="3.27"/><rect class="cls-6" x="29.26" y="86.96" width="101.57" height="3.27"/><rect class="cls-6" x="29.26" y="91.05" width="101.57" height="3.27"/><rect class="cls-6" x="29.26" y="94.98" width="101.57" height="3.27"/></g><rect class="cls-6" x="29.18" y="32.72" width="24.01" height="25.7"/><rect class="cls-6" x="55.71" y="32.72" width="22.75" height="11.68"/><rect class="cls-6" x="80.99" y="32.72" width="24.01" height="11.68"/><rect class="cls-6" x="107.53" y="32.72" width="24.01" height="11.68"/><rect class="cls-6" x="29.18" y="46.73" width="24.01" height="11.68"/><rect class="cls-6" x="55.71" y="46.73" width="22.75" height="11.68"/><rect class="cls-6" x="80.99" y="46.73" width="24.01" height="25.7"/><rect class="cls-6" x="107.53" y="32.72" width="24.01" height="39.72"/><rect class="cls-6" x="29.18" y="60.75" width="24.01" height="11.68"/><rect class="cls-6" x="80.99" y="60.75" width="24.01" height="11.68"/><rect class="cls-6" x="107.53" y="60.75" width="24.01" height="11.68"/></g></g></svg>