<?xml version="1.0" encoding="utf-8"?>
<!-- Generator: Adobe Illustrator 17.1.0, SVG Export Plug-In . SVG Version: 6.00 Build 0)  -->
<!DOCTYPE svg PUBLIC "-//W3C//DTD SVG 1.0//EN" "http://www.w3.org/TR/2001/REC-SVG-20010904/DTD/svg10.dtd">
<svg version="1.0" id="_x38_72" xmlns="http://www.w3.org/2000/svg" xmlns:xlink="http://www.w3.org/1999/xlink" x="0px" y="0px"
	 viewBox="0 0 352.9 136.9" enable-background="new 0 0 352.9 136.9" xml:space="preserve">
<g>
	<polygon fill="#FFFFFF" points="13.1,50.2 13.1,51.9 158.6,51.9 159.1,50.2 	"/>
	<polygon fill="#FFFFFF" points="337,50.2 337,51.9 191.6,51.9 191,50.2 	"/>
	<path fill="#FFFFFF" d="M352.9,51.1c0,2.6-2.1,4.7-4.7,4.7c-2.6,0-4.7-2.1-4.7-4.7c0-2.7,2.2-4.7,4.7-4.7
		C350.8,46.4,352.9,48.4,352.9,51.1z M344.3,51c0,2.2,1.8,3.9,3.9,3.9c2.2,0,3.9-1.8,3.9-3.9c0-2.2-1.8-3.9-3.9-3.9
		C346.1,47.1,344.3,48.8,344.3,51z M346.5,48.4h1.8c0.6,0,1.8,0,1.8,1.4c0,1-0.6,1.2-1,1.3c0.7,0,0.8,0.5,0.9,1.2
		c0,0.4,0.1,1.1,0.3,1.4h-1.1c0-0.2-0.2-1.6-0.2-1.7c-0.1-0.3-0.2-0.4-0.5-0.4h-0.9v2.1h-1V48.4z M347.5,50.7h0.8
		c0.7,0,0.8-0.5,0.8-0.7c0-0.7-0.5-0.7-0.8-0.7h-0.8V50.7z"/>
	<path fill="#FFFFFF" d="M56.4,131.7c0.7-0.1,1.2-0.1,1.4-0.3c0.5-0.2,0.8-0.7,1-1.4l3.4-12.2c-1.8,0-2.9,0.1-3.5,0.4
		c-0.6,0.3-1.2,1.1-2,2.4l-0.4-0.1l1-3.6h12.3l-1,3.8l-0.4-0.1l0.1-0.8c0-0.7-0.2-1.2-0.5-1.6c-0.3-0.3-1-0.5-1.9-0.5h-1.3
		l-3.2,11.5c-0.1,0.2-0.1,0.5-0.2,0.7c-0.1,0.3-0.1,0.5-0.1,0.7c0,0.5,0.1,0.7,0.4,0.8c0.3,0.1,0.8,0.2,1.6,0.2v0.4h-6.7V131.7z"/>
	<path fill="#FFFFFF" d="M70.6,116.9c0.5-0.1,0.9-0.1,1.2-0.2c0.3,0,0.6-0.1,0.8-0.1c0.9-0.2,1.4-0.3,1.4-0.3c0.1,0,0.1,0,0.2,0
		c0.1,0,0.1,0.1,0.1,0.2l-2.8,10.1c0.9-1.4,1.7-2.4,2.3-3.1c1-1.1,2-1.7,2.9-1.7c0.4,0,0.7,0.1,1,0.3c0.3,0.2,0.5,0.6,0.5,1.2
		c0,0.1,0,0.3-0.1,0.6c0,0.2-0.1,0.4-0.1,0.6l-1.5,5.4c0,0.2-0.1,0.3-0.1,0.4c0,0.1,0,0.3,0,0.4c0,0.1,0,0.2,0.1,0.3
		c0.1,0.1,0.1,0.1,0.3,0.1c0.2,0,0.5-0.2,0.8-0.5c0.2-0.2,0.6-0.6,1.1-1.3l0.3,0.3c-0.5,0.8-1,1.4-1.4,1.7c-0.7,0.6-1.3,1-2,1
		c-0.3,0-0.6-0.1-0.8-0.3c-0.2-0.2-0.3-0.5-0.3-0.8c0-0.1,0-0.2,0-0.3c0-0.1,0-0.2,0.1-0.3l1.7-6.6c0-0.1,0-0.1,0-0.2
		c0-0.1,0-0.1,0-0.2c0-0.2-0.1-0.3-0.2-0.4c-0.1-0.1-0.3-0.2-0.5-0.2c-0.5,0-1.1,0.4-1.9,1.2c-0.8,0.8-1.4,1.6-1.9,2.5
		c-0.4,0.6-0.6,1.2-0.8,1.7c-0.2,0.5-0.5,1.7-1.1,3.6h-1.7l3.8-13.7c0-0.1,0-0.2,0-0.2c0-0.1,0-0.1,0-0.2c0-0.3-0.1-0.5-0.3-0.6
		c-0.2-0.1-0.6-0.1-1.2-0.1V116.9z"/>
	<path fill="#FFFFFF" d="M82.4,124.2c1.5-1.6,3-2.3,4.6-2.3c0.6,0,1.1,0.1,1.4,0.4c0.3,0.3,0.5,0.7,0.5,1.2c0,1.1-0.6,2-1.9,2.8
		c-1.3,0.8-2.6,1.2-4,1.4l-0.6,0.1c-0.1,0.3-0.2,0.6-0.2,0.7c0,0.2-0.1,0.4-0.1,0.7c0,0.7,0.2,1.2,0.7,1.5c0.4,0.4,0.9,0.5,1.5,0.5
		c0.6,0,1.2-0.2,1.8-0.6c0.4-0.2,0.9-0.6,1.6-1.2l0.3,0.3c-0.3,0.4-0.8,0.9-1.5,1.3c-1.1,0.8-2.3,1.2-3.4,1.2
		c-0.8,0-1.5-0.3-2.1-0.8c-0.6-0.6-0.9-1.4-0.9-2.4C80.1,127.4,80.9,125.8,82.4,124.2z M86,125.7c0.9-0.8,1.4-1.6,1.4-2.4
		c0-0.3-0.1-0.5-0.2-0.7c-0.1-0.2-0.3-0.3-0.6-0.3c-0.5,0-1,0.2-1.4,0.6c-0.5,0.4-0.9,0.9-1.3,1.4c-0.4,0.6-0.7,1.2-1,1.8
		c-0.1,0.3-0.3,0.6-0.4,1C84,127.1,85.1,126.5,86,125.7z"/>
	<path fill="#FFFFFF" d="M100.3,121.9c0,0,0,0.1,0,0.1c0,0.1,0,0.1,0,0.2l-1.1,4.4l0.2-0.5c0.5-1.1,1.2-2,1.9-2.9
		c0.7-0.9,1.4-1.3,2.1-1.3c0.4,0,0.6,0.1,0.8,0.3c0.2,0.2,0.3,0.5,0.3,0.8c0,0.3-0.1,0.6-0.3,0.8c-0.2,0.2-0.5,0.3-0.8,0.3
		c-0.2,0-0.4,0-0.5-0.1c-0.1-0.1-0.2-0.2-0.3-0.3l-0.1-0.2c0,0-0.1-0.1-0.1-0.1c0,0-0.1,0-0.2,0c-0.3,0-0.7,0.4-1.3,1.2
		c-0.6,0.8-1.1,1.7-1.5,2.7c-0.3,0.6-0.6,1.4-0.9,2.3c-0.2,0.6-0.5,1.5-0.8,2.6H96l1.9-6.8c0.1-0.4,0.2-0.7,0.3-1
		c0.1-0.3,0.1-0.6,0.1-0.8c0-0.2-0.1-0.4-0.2-0.5c-0.1-0.1-0.3-0.2-0.6-0.2c-0.1,0-0.2,0-0.3,0c-0.1,0-0.3,0-0.5,0.1v-0.4l0.5-0.1
		c0.6-0.1,1.2-0.2,1.9-0.4c0.7-0.1,1.1-0.2,1.1-0.2C100.3,121.8,100.3,121.8,100.3,121.9z"/>
	<path fill="#FFFFFF" d="M109.7,121.9C109.7,121.9,109.7,121.9,109.7,121.9l-2.2,8.2c-0.1,0.4-0.2,0.7-0.2,0.8c0,0.1,0,0.2,0.1,0.3
		c0,0.1,0.1,0.1,0.3,0.1c0.3,0,0.6-0.2,1-0.7c0.3-0.3,0.6-0.6,0.9-1.1l0.3,0.2l-0.1,0.2c-0.6,0.8-1,1.4-1.4,1.7
		c-0.6,0.5-1.2,0.8-1.7,0.8c-0.3,0-0.6-0.1-0.8-0.4c-0.2-0.3-0.3-0.6-0.3-1c0-0.2,0-0.4,0-0.6c0-0.2,0.1-0.4,0.2-0.7l1.6-5.8
		c0-0.1,0-0.2,0.1-0.2c0-0.1,0-0.1,0-0.2c0-0.3-0.1-0.4-0.3-0.5c-0.2-0.1-0.6-0.1-1.2-0.1v-0.4c0.6-0.1,1.1-0.1,1.3-0.2
		c0.3,0,0.5-0.1,0.8-0.1c0.4-0.1,0.7-0.1,1-0.2C109.4,121.8,109.6,121.8,109.7,121.9z M108.6,119c-0.2-0.2-0.3-0.5-0.3-0.9
		c0-0.3,0.1-0.6,0.3-0.9c0.2-0.2,0.5-0.4,0.8-0.4c0.3,0,0.6,0.1,0.8,0.4c0.2,0.2,0.3,0.5,0.3,0.9c0,0.3-0.1,0.6-0.3,0.9
		c-0.2,0.2-0.5,0.4-0.8,0.4C109.1,119.4,108.8,119.3,108.6,119z"/>
	<path fill="#FFFFFF" d="M111.7,128.7h0.4c0.2,0.9,0.4,1.6,0.6,2c0.4,0.8,1,1.2,1.9,1.2c0.5,0,0.9-0.2,1.2-0.5
		c0.3-0.3,0.5-0.8,0.5-1.3c0-0.3,0-0.6-0.1-0.8c-0.1-0.2-0.2-0.4-0.3-0.6l-0.9-1.4c-0.6-0.8-0.9-1.4-1.1-1.7
		c-0.2-0.4-0.3-0.9-0.3-1.3c0-0.7,0.2-1.2,0.7-1.7c0.5-0.5,1.1-0.8,2-0.8c0.4,0,0.8,0.1,1.3,0.2c0.5,0.1,0.8,0.2,1,0.2
		c0.2,0,0.3,0,0.4-0.1c0.1-0.1,0.2-0.2,0.2-0.3h0.3l-0.5,3.2h-0.4c-0.1-0.7-0.2-1.3-0.4-1.6c-0.4-0.7-0.9-1-1.7-1
		c-0.3,0-0.6,0.1-0.9,0.3c-0.3,0.2-0.4,0.5-0.4,0.9c0,0.3,0.1,0.6,0.2,0.8c0.1,0.2,0.4,0.7,0.8,1.2l0.8,1.2c0.4,0.6,0.7,1.1,0.9,1.5
		c0.2,0.4,0.3,0.8,0.3,1.2c0,0.8-0.3,1.5-1,2c-0.7,0.6-1.5,0.8-2.5,0.8c-0.3,0-0.7-0.1-1.3-0.2c-0.6-0.1-0.9-0.2-1-0.2
		c-0.1,0-0.3,0-0.3,0.1c-0.1,0.1-0.1,0.2-0.2,0.3h-0.4L111.7,128.7z"/>
	<path fill="#FFFFFF" d="M125.1,121.9C125.1,121.9,125.1,121.9,125.1,121.9l-2.2,8.2c-0.1,0.4-0.2,0.7-0.2,0.8c0,0.1,0,0.2,0.1,0.3
		c0,0.1,0.1,0.1,0.3,0.1c0.3,0,0.6-0.2,1-0.7c0.3-0.3,0.6-0.6,0.9-1.1l0.3,0.2l-0.1,0.2c-0.6,0.8-1,1.4-1.4,1.7
		c-0.6,0.5-1.1,0.8-1.7,0.8c-0.3,0-0.6-0.1-0.8-0.4c-0.2-0.3-0.3-0.6-0.3-1c0-0.2,0-0.4,0-0.6c0-0.2,0.1-0.4,0.2-0.7l1.6-5.8
		c0-0.1,0-0.2,0.1-0.2c0-0.1,0-0.1,0-0.2c0-0.3-0.1-0.4-0.3-0.5c-0.2-0.1-0.6-0.1-1.2-0.1v-0.4c0.6-0.1,1.1-0.1,1.3-0.2
		c0.3,0,0.5-0.1,0.8-0.1c0.4-0.1,0.7-0.1,1-0.2C124.9,121.8,125,121.8,125.1,121.9z M124,119c-0.2-0.2-0.3-0.5-0.3-0.9
		c0-0.3,0.1-0.6,0.3-0.9c0.2-0.2,0.5-0.4,0.8-0.4s0.6,0.1,0.8,0.4c0.2,0.2,0.3,0.5,0.3,0.9c0,0.3-0.1,0.6-0.3,0.9
		c-0.2,0.2-0.5,0.4-0.8,0.4S124.2,119.3,124,119z"/>
	<path fill="#FFFFFF" d="M126.7,132.1l1.9-7c0.2-0.6,0.3-1,0.3-1.1c0-0.1,0-0.3,0-0.4c0-0.2-0.1-0.4-0.2-0.5
		c-0.1-0.1-0.4-0.2-0.7-0.2c-0.1,0-0.2,0-0.3,0c-0.1,0-0.2,0-0.3,0v-0.4c0.5-0.1,0.8-0.1,1-0.2c0.2,0,0.4-0.1,0.7-0.1l2-0.4
		c0,0,0.1,0.1,0.1,0.1l-1.5,4.8c0.9-1.4,1.7-2.5,2.3-3.1c1.1-1.2,2.1-1.8,2.9-1.8c0.3,0,0.6,0.1,0.9,0.2c0.5,0.2,0.7,0.7,0.7,1.3
		c0,0.2,0,0.4-0.1,0.6c0,0.2-0.1,0.4-0.1,0.6l-1.5,5.4c0,0.1-0.1,0.2-0.1,0.4c0,0.2-0.1,0.3-0.1,0.3c0,0.1,0,0.2,0.1,0.3
		c0.1,0.1,0.1,0.1,0.3,0.1c0.2,0,0.4-0.1,0.7-0.3c0.2-0.2,0.6-0.7,1.2-1.5l0.3,0.3c-0.6,0.8-1.1,1.4-1.4,1.8
		c-0.6,0.6-1.2,0.9-1.7,0.9c-0.3,0-0.5-0.1-0.7-0.3c-0.2-0.2-0.3-0.5-0.3-0.9c0-0.1,0-0.3,0-0.4c0-0.1,0-0.3,0.1-0.4l1.5-5.5
		c0.1-0.3,0.1-0.5,0.2-0.7c0-0.2,0-0.3,0-0.4c0-0.2,0-0.3-0.1-0.5c-0.1-0.1-0.2-0.2-0.5-0.2c-0.6,0-1.3,0.5-2.2,1.5
		c-0.5,0.6-1,1.3-1.6,2.2c-0.4,0.6-0.7,1.3-0.9,1.9c-0.2,0.6-0.6,1.7-1.1,3.4H126.7z"/>
	<path fill="#FFFFFF" d="M138.7,132.7c0.4-0.5,1.1-1,2.1-1.5c-0.2-0.1-0.3-0.2-0.5-0.4c-0.1-0.1-0.2-0.3-0.2-0.5
		c0-0.3,0.2-0.7,0.6-1.1c0.2-0.2,0.6-0.5,1.2-0.9c-0.5-0.2-0.9-0.4-1.2-0.8c-0.4-0.4-0.6-1-0.6-1.7c0-1.1,0.4-2.1,1.3-2.8
		c0.9-0.8,2-1.1,3.3-1.1c0.7,0,1.3,0.1,1.7,0.3c0.5,0.2,0.8,0.4,0.8,0.5h1.5v0.9h-1.1c0,0.2,0.1,0.3,0.1,0.4c0,0.1,0,0.3,0,0.6
		c0,1.2-0.5,2.2-1.4,2.9c-0.9,0.7-2,1.1-3.1,1.1c-0.1,0-0.2,0-0.3,0c-0.1,0-0.2,0-0.4-0.1c-0.1,0-0.3,0.1-0.5,0.3
		c-0.2,0.2-0.3,0.4-0.3,0.6c0,0.3,0.8,0.7,2.5,1.3c1.7,0.6,2.5,1.5,2.5,2.7c0,0.9-0.4,1.7-1.2,2.4c-0.8,0.7-2.1,1-3.8,1
		c-1.2,0-2.1-0.2-2.8-0.7c-0.7-0.5-1-1.1-1-1.8C138,133.8,138.3,133.2,138.7,132.7z M144.5,135.8c0.6-0.4,0.9-0.9,0.9-1.5
		c0-0.5-0.2-0.8-0.5-1.1c-0.2-0.2-0.4-0.3-0.8-0.5c-0.3-0.2-0.8-0.4-1.6-0.6c-0.7-0.3-1.2-0.4-1.3-0.4c-0.2,0-0.6,0.3-1.1,0.8
		c-0.6,0.5-0.8,1.1-0.8,1.8c0,1,0.4,1.7,1.3,2.1c0.5,0.2,1,0.3,1.7,0.3C143.2,136.4,143.9,136.2,144.5,135.8z M142.1,127.4
		c0.2,0.5,0.7,0.7,1.3,0.7c0.7,0,1.3-0.4,1.8-1.3c0.5-0.9,0.8-1.8,0.8-2.9c0-0.5-0.1-0.9-0.3-1.2c-0.2-0.3-0.5-0.4-1-0.4
		c-0.8,0-1.5,0.4-2,1.4c-0.5,0.9-0.8,1.8-0.8,2.6C141.9,126.8,141.9,127.2,142.1,127.4z"/>
	<path fill="#FFFFFF" d="M156.7,127.5c0.4,1,0.8,1.9,1.4,2.5c0.9,1.1,2,1.6,3.4,1.6c0.7,0,1.4-0.2,1.9-0.7c0.5-0.5,0.8-1.1,0.8-2
		c0-0.8-0.3-1.4-0.8-2c-0.4-0.4-1.1-0.9-2.2-1.6l-2-1.2c-0.6-0.4-1.1-0.8-1.4-1.1c-0.6-0.7-1-1.5-1-2.4c0-1.2,0.4-2.1,1.2-2.9
		c0.8-0.8,1.8-1.2,3.1-1.2c0.5,0,1.2,0.1,1.9,0.4c0.7,0.2,1.2,0.4,1.3,0.4c0.3,0,0.5-0.1,0.6-0.2c0.1-0.1,0.2-0.3,0.3-0.6h0.5
		l0.5,4.9h-0.5c-0.4-1.5-1-2.5-1.8-3.1c-0.8-0.6-1.7-0.9-2.5-0.9c-0.6,0-1.2,0.2-1.7,0.6c-0.5,0.4-0.7,0.9-0.7,1.6
		c0,0.6,0.2,1.1,0.5,1.5c0.4,0.4,0.9,0.9,1.7,1.4l2,1.3c1.3,0.8,2.2,1.5,2.7,2.2c0.5,0.7,0.8,1.4,0.8,2.3c0,1.2-0.5,2.2-1.4,3
		c-0.9,0.8-2.1,1.2-3.5,1.2c-0.7,0-1.5-0.1-2.2-0.4c-0.8-0.3-1.2-0.4-1.3-0.4c-0.3,0-0.5,0.1-0.5,0.3c-0.1,0.2-0.2,0.4-0.2,0.6h-0.5
		l-0.7-4.9H156.7z"/>
	<path fill="#FFFFFF" d="M167.5,116.8h13.1l0.1,3.9h-0.5c-0.3-1.2-0.6-2-1-2.4c-0.4-0.4-1.3-0.6-2.7-0.6h-1.3v11.8
		c0,0.9,0.1,1.4,0.4,1.7c0.3,0.2,0.9,0.4,1.8,0.4v0.4h-6.7v-0.4c1-0.1,1.6-0.2,1.9-0.5c0.2-0.2,0.4-0.9,0.4-1.9v-11.6h-1.3
		c-1.3,0-2.2,0.2-2.6,0.6c-0.5,0.4-0.8,1.2-1,2.4h-0.6L167.5,116.8z"/>
	<path fill="#FFFFFF" d="M180.3,132.1v-0.4c0.6-0.1,1-0.3,1.3-0.7c0.3-0.4,0.8-1.4,1.5-3.1l4.8-11.3h0.5l5.7,13.1
		c0.4,0.9,0.7,1.4,0.9,1.6c0.2,0.2,0.6,0.3,1.2,0.4v0.4h-5.9v-0.4c0.7-0.1,1.1-0.1,1.3-0.2c0.2-0.1,0.3-0.3,0.3-0.6
		c0-0.1,0-0.3-0.1-0.6c-0.1-0.3-0.2-0.6-0.3-0.9l-0.9-2.2h-6.1c-0.6,1.5-1,2.4-1.1,2.8c-0.1,0.3-0.2,0.6-0.2,0.8
		c0,0.4,0.2,0.7,0.5,0.8c0.2,0.1,0.6,0.2,1.1,0.2v0.4H180.3z M190.3,126.2l-2.7-6.4l-2.7,6.4H190.3z"/>
	<path fill="#FFFFFF" d="M197.9,131.6c0.9-0.1,1.4-0.3,1.7-0.5c0.2-0.3,0.3-0.9,0.3-1.8v-10c0-0.8-0.1-1.3-0.4-1.6
		c-0.2-0.3-0.8-0.4-1.6-0.5v-0.4h6.4c1.3,0,2.4,0.2,3.3,0.5c1.7,0.6,2.5,1.8,2.5,3.5c0,1.2-0.4,2-1.1,2.7c-0.7,0.6-1.8,1-3,1.2
		l4.8,5.9c0.3,0.4,0.6,0.6,0.9,0.8c0.3,0.2,0.7,0.3,1.1,0.3v0.4H209l-5.8-7.1l-1,0.1v4.6c0,0.8,0.1,1.4,0.4,1.6
		c0.3,0.2,0.8,0.4,1.7,0.5v0.4h-6.4V131.6z M205.8,123.7c1.2-0.5,1.8-1.5,1.8-2.9c0-1.3-0.5-2.3-1.6-2.8c-0.6-0.3-1.4-0.4-2.3-0.4
		c-0.7,0-1.1,0.1-1.2,0.1c-0.2,0.1-0.2,0.3-0.2,0.7v5.7C203.9,124.1,205.1,124,205.8,123.7z"/>
	<path fill="#FFFFFF" d="M228.9,122.8c0.5,0.7,0.8,1.5,0.8,2.4c0,1.6-0.7,3.2-2.1,4.7c-1.4,1.6-3,2.4-4.6,2.4c-1,0-1.9-0.3-2.5-0.9
		c-0.6-0.6-0.9-1.5-0.9-2.5c0-1.7,0.7-3.2,2.1-4.7c1.4-1.5,3-2.3,4.6-2.3C227.5,121.8,228.3,122.2,228.9,122.8z M221.9,131.3
		c0.3,0.4,0.8,0.6,1.4,0.6c1.2,0,2.3-0.9,3.3-2.8c0.8-1.6,1.2-3.1,1.2-4.4c0-0.6-0.1-1-0.2-1.4c-0.3-0.7-0.7-1-1.4-1
		c-1.2,0-2.2,0.9-3.2,2.6c-0.9,1.6-1.4,3.2-1.4,4.8C221.4,130.3,221.6,130.8,221.9,131.3z"/>
	<path fill="#FFFFFF" d="M240,118.5c-0.2,0.2-0.4,0.3-0.7,0.3c-0.3,0-0.5-0.1-0.6-0.2c-0.2-0.2-0.2-0.4-0.2-0.6
		c0-0.1,0.1-0.4,0.2-0.8c0-0.1,0-0.2-0.1-0.3c-0.1-0.1-0.2-0.1-0.3-0.1c-0.6,0-1,0.6-1.4,1.8c-0.2,0.7-0.5,1.9-0.7,3.5h2.5l-0.2,0.8
		h-2.6l-2.2,7.4c-0.5,1.9-1.1,3.5-1.8,4.7c-0.8,1.2-1.8,1.8-3,1.8c-0.5,0-1-0.1-1.4-0.4c-0.4-0.3-0.5-0.6-0.5-1
		c0-0.2,0.1-0.4,0.2-0.6c0.1-0.2,0.4-0.3,0.7-0.3c0.3,0,0.5,0.1,0.7,0.3c0.2,0.2,0.3,0.4,0.3,0.6c0,0.1,0,0.3-0.1,0.4
		c-0.1,0.1-0.1,0.2-0.1,0.3c0,0.1,0,0.1,0.1,0.2c0.1,0,0.2,0.1,0.3,0.1c0.6,0,1.2-0.5,1.6-1.5c0.2-0.5,0.4-1.2,0.6-2.2l2.7-9.7h-2.1
		l0.2-0.8h2.2c0.4-1.8,0.9-3,1.4-3.9c0.8-1.3,1.7-1.9,2.8-1.9c0.5,0,0.9,0.1,1.3,0.4c0.3,0.3,0.5,0.6,0.5,1
		C240.2,118.1,240.1,118.3,240,118.5z"/>
	<path fill="#FFFFFF" d="M244,131.7c0.7-0.1,1.2-0.1,1.4-0.3c0.5-0.2,0.8-0.7,1-1.4l3.4-12.2c-1.8,0-2.9,0.1-3.5,0.4
		c-0.6,0.3-1.2,1.1-2,2.4l-0.4-0.1l1-3.6h12.3l-1,3.8l-0.4-0.1l0.1-0.8c0-0.7-0.2-1.2-0.5-1.6c-0.3-0.3-1-0.5-1.9-0.5h-1.3
		l-3.2,11.5c-0.1,0.2-0.1,0.5-0.2,0.7c-0.1,0.3-0.1,0.5-0.1,0.7c0,0.5,0.1,0.7,0.4,0.8c0.3,0.1,0.8,0.2,1.6,0.2v0.4H244V131.7z"/>
	<path fill="#FFFFFF" d="M256.3,124.2c1.5-1.6,3-2.3,4.6-2.3c0.6,0,1.1,0.1,1.4,0.4c0.3,0.3,0.5,0.7,0.5,1.2c0,1.1-0.6,2-1.9,2.8
		c-1.3,0.8-2.6,1.2-4,1.4l-0.6,0.1c-0.1,0.3-0.2,0.6-0.2,0.7c0,0.2-0.1,0.4-0.1,0.7c0,0.7,0.2,1.2,0.7,1.5c0.4,0.4,0.9,0.5,1.5,0.5
		c0.6,0,1.2-0.2,1.8-0.6c0.4-0.2,0.9-0.6,1.6-1.2l0.3,0.3c-0.3,0.4-0.8,0.9-1.5,1.3c-1.1,0.8-2.3,1.2-3.4,1.2
		c-0.8,0-1.5-0.3-2.1-0.8c-0.6-0.6-0.9-1.4-0.9-2.4C254.1,127.4,254.8,125.8,256.3,124.2z M260,125.7c0.9-0.8,1.4-1.6,1.4-2.4
		c0-0.3-0.1-0.5-0.2-0.7c-0.1-0.2-0.3-0.3-0.6-0.3c-0.5,0-1,0.2-1.4,0.6c-0.5,0.4-0.9,0.9-1.3,1.4c-0.4,0.6-0.7,1.2-1,1.8
		c-0.1,0.3-0.3,0.6-0.4,1C257.9,127.1,259.1,126.5,260,125.7z"/>
	<path fill="#FFFFFF" d="M263.3,130.7c0.2-0.1,0.4-0.2,0.6-0.2c0.1,0,0.2,0,0.3,0c0.1,0,0.2,0.1,0.3,0.1l0.4,0.2
		c0.1,0,0.1,0,0.2,0.1c0,0,0.1,0,0.2,0c0.2,0,0.3,0,0.4-0.1c0.1-0.1,0.4-0.4,0.8-1c0.3-0.4,0.9-1.3,1.9-2.7c0-0.1-0.1-0.5-0.3-1.2
		c-0.2-0.8-0.3-1.4-0.5-1.9c-0.1-0.5-0.3-0.9-0.4-1.1c-0.1-0.2-0.3-0.3-0.6-0.3c-0.1,0-0.3,0-0.6,0.1c-0.2,0-0.4,0.1-0.6,0.2
		l-0.1-0.4l1.2-0.4c0.3-0.1,0.6-0.2,0.9-0.3c0.3-0.1,0.5-0.1,0.7-0.1c0.3,0,0.6,0.1,0.7,0.3c0.2,0.3,0.4,0.9,0.6,1.8l0.2,1.3
		c0.7-1,1.2-1.8,1.6-2.2c0.3-0.4,0.7-0.7,1-0.9c0.3-0.2,0.6-0.3,0.9-0.3c0.3,0,0.5,0,0.6,0.1c0.3,0.1,0.4,0.4,0.4,0.8
		c0,0.3-0.1,0.5-0.2,0.6c-0.1,0.1-0.3,0.2-0.6,0.2c-0.1,0-0.2,0-0.2,0c-0.1,0-0.2,0-0.2-0.1l-0.3-0.1c-0.1,0-0.2-0.1-0.2-0.1
		c-0.1,0-0.1,0-0.2,0c-0.3,0-0.8,0.4-1.4,1.3c-0.6,0.9-0.9,1.4-0.9,1.5c0,0.1,0.1,0.5,0.2,1.1c0.1,0.6,0.3,1.3,0.5,2
		c0.2,0.7,0.3,1.1,0.4,1.3c0.2,0.4,0.4,0.6,0.6,0.6c0.2,0,0.4-0.1,0.6-0.3c0.2-0.2,0.5-0.6,1-1.2l0.3,0.2c-0.3,0.6-0.7,1.1-1,1.5
		c-0.7,0.8-1.3,1.2-1.9,1.2c-0.4,0-0.7-0.2-0.9-0.5c-0.1-0.2-0.3-0.6-0.4-1l-0.7-2.8l-2.3,3c-0.5,0.5-0.8,0.9-1,1.1
		c-0.2,0.2-0.5,0.3-0.9,0.3c-0.5,0-0.8-0.1-1-0.5c-0.1-0.2-0.1-0.3-0.1-0.6C263,131,263.1,130.8,263.3,130.7z"/>
	<path fill="#FFFFFF" d="M282.4,122.3c0.2,0.2,0.3,0.4,0.4,0.6l0.1,0.2l0.3-0.8c0-0.1,0.1-0.2,0.1-0.2c0,0,0.1-0.1,0.2-0.1l1.3-0.1
		c0.1,0,0.1,0,0.1,0c0,0,0,0.1,0,0.1c0,0.1-0.1,0.2-0.1,0.2c0,0.1,0,0.1-0.1,0.2l-1.1,4c-0.2,0.9-0.5,1.6-0.6,2.3
		c-0.3,1.1-0.4,1.8-0.4,2c0,0.1,0,0.2,0.1,0.2c0.1,0,0.1,0.1,0.2,0.1c0.1,0,0.1,0,0.2-0.1c0.1,0,0.2-0.1,0.3-0.2l0.2-0.2
		c0.1-0.1,0.1-0.1,0.2-0.2c0.1-0.1,0.2-0.2,0.3-0.3l0.7-0.7l0.3,0.2c-0.8,1-1.5,1.7-1.9,2c-0.5,0.4-1,0.5-1.4,0.5
		c-0.3,0-0.5-0.1-0.7-0.3c-0.2-0.2-0.2-0.4-0.2-0.7c0-0.3,0.1-0.7,0.1-1.2c0.1-0.5,0.2-0.9,0.3-1.3c-0.1,0.2-0.4,0.6-0.7,1
		c-0.3,0.4-0.7,0.9-1.2,1.3c-0.6,0.5-1.1,0.8-1.6,1c-0.4,0.1-0.8,0.2-1.1,0.2c-0.6,0-1.2-0.2-1.7-0.8c-0.5-0.5-0.7-1.2-0.7-2.1
		c0-1.6,0.7-3.2,2.1-4.9c1.5-1.8,3-2.7,4.6-2.7C281.6,121.8,282,122,282.4,122.3z M282,122.7c-0.2-0.3-0.5-0.4-0.9-0.4
		c-1.2,0-2.4,0.9-3.4,2.8c-0.9,1.7-1.4,3.1-1.4,4.3c0,0.6,0.1,1.1,0.4,1.3c0.3,0.3,0.6,0.4,1,0.4c1.1,0,2.2-0.9,3.3-2.8
		c1-1.7,1.5-3.2,1.5-4.5C282.4,123.4,282.3,122.9,282,122.7z"/>
	<path fill="#FFFFFF" d="M286.3,128.7h0.4c0.2,0.9,0.4,1.6,0.6,2c0.4,0.8,1,1.2,1.9,1.2c0.5,0,0.8-0.2,1.2-0.5
		c0.3-0.3,0.5-0.8,0.5-1.3c0-0.3,0-0.6-0.1-0.8c-0.1-0.2-0.2-0.4-0.3-0.6l-0.9-1.4c-0.6-0.8-0.9-1.4-1.1-1.7
		c-0.2-0.4-0.3-0.9-0.3-1.3c0-0.7,0.2-1.2,0.7-1.7c0.5-0.5,1.1-0.8,2-0.8c0.4,0,0.8,0.1,1.3,0.2c0.5,0.1,0.8,0.2,1,0.2
		c0.2,0,0.3,0,0.4-0.1c0.1-0.1,0.2-0.2,0.2-0.3h0.3l-0.5,3.2h-0.4c-0.1-0.7-0.2-1.3-0.4-1.6c-0.4-0.7-0.9-1-1.7-1
		c-0.3,0-0.6,0.1-0.9,0.3c-0.3,0.2-0.4,0.5-0.4,0.9c0,0.3,0.1,0.6,0.2,0.8c0.1,0.2,0.4,0.7,0.8,1.2l0.8,1.2c0.4,0.6,0.7,1.1,0.9,1.5
		c0.2,0.4,0.3,0.8,0.3,1.2c0,0.8-0.3,1.5-1,2c-0.7,0.6-1.5,0.8-2.5,0.8c-0.3,0-0.8-0.1-1.3-0.2c-0.6-0.1-0.9-0.2-1-0.2
		c-0.1,0-0.3,0-0.3,0.1c-0.1,0.1-0.1,0.2-0.2,0.3h-0.4L286.3,128.7z"/>
	<g>
		<path fill="#FFFFFF" d="M71.1,64.1v0.7c-1.4,0.1-2.3,0.3-2.8,0.7c-0.4,0.4-0.6,1.2-0.6,2.6v11.8c0,1.9,0.3,3.4,0.8,4.5
			c1,2,2.9,3,5.6,3c3,0,5-1,6.1-3c0.6-1.1,0.9-2.9,0.9-5.2v-9.6c0-2-0.2-3.3-0.7-3.8c-0.5-0.5-1.4-0.8-2.7-1v-0.7h8.5v0.7
			c-1.4,0.2-2.4,0.5-2.8,1c-0.4,0.5-0.7,1.8-0.7,3.7v9.6c0,2.5-0.4,4.5-1.2,6c-1.4,2.6-4.2,3.9-8.2,3.9c-4,0-6.7-1.3-8.1-3.9
			c-0.8-1.4-1.2-3.2-1.2-5.5V68.1c0-1.3-0.2-2.2-0.6-2.6c-0.4-0.4-1.3-0.6-2.7-0.7v-0.7H71.1z"/>
		<path fill="#FFFFFF" d="M88.7,87.9c1.5-0.2,2.5-0.5,2.9-1c0.4-0.5,0.6-1.8,0.6-3.7V66.8l-0.5-0.6c-0.5-0.6-1-1-1.4-1.2
			c-0.4-0.1-0.9-0.2-1.7-0.3v-0.7H95l14.3,17.7V69.5c0-2-0.3-3.3-0.9-3.9c-0.4-0.4-1.3-0.6-2.6-0.8v-0.7h8.7v0.7
			c-1.4,0.1-2.3,0.5-2.8,1c-0.5,0.5-0.7,1.8-0.7,3.7V89h-0.6L93.9,68.7v14.4c0,2,0.3,3.3,0.9,3.9c0.4,0.4,1.2,0.7,2.6,0.8v0.7h-8.7
			V87.9z"/>
		<path fill="#FFFFFF" d="M117.1,87.9c1.5-0.1,2.5-0.3,2.9-0.7c0.4-0.3,0.7-1.2,0.7-2.6V68.1c0-1.4-0.2-2.2-0.7-2.6
			c-0.4-0.4-1.4-0.6-2.9-0.7v-0.7H128v0.7c-1.5,0.1-2.5,0.3-2.9,0.7c-0.4,0.4-0.7,1.3-0.7,2.6v16.4c0,1.4,0.2,2.3,0.7,2.6
			c0.4,0.3,1.4,0.6,2.9,0.7v0.7h-10.9V87.9z"/>
		<path fill="#FFFFFF" d="M140.6,64.1v0.6c-0.9,0-1.6,0.1-1.9,0.2c-0.6,0.2-0.9,0.6-0.9,1.2c0,0.3,0.1,0.7,0.3,1.3
			c0.2,0.5,0.6,1.5,1.2,2.7l5.8,12.9l5.2-13.9c0.2-0.6,0.4-1.1,0.5-1.6c0.1-0.4,0.2-0.8,0.2-1c0-0.7-0.3-1.2-0.9-1.5
			c-0.4-0.1-1-0.2-1.8-0.3v-0.6h7.6v0.6c-0.8,0.1-1.4,0.3-1.7,0.6c-0.6,0.5-1.1,1.4-1.7,2.8L144.4,89h-0.6l-9.1-20.3
			c-0.8-1.7-1.4-2.8-1.8-3.2c-0.5-0.4-1.1-0.7-2-0.7v-0.6H140.6z"/>
		<path fill="#FFFFFF" d="M158.7,87.9c1.4-0.1,2.2-0.4,2.6-0.7c0.4-0.3,0.6-1.2,0.6-2.6V68.1c0-1.3-0.2-2.2-0.6-2.6
			c-0.4-0.4-1.3-0.7-2.6-0.7v-0.7h19.6l0.1,5.3h-0.9c-0.3-1.6-0.8-2.7-1.4-3.2c-0.6-0.5-2-0.7-4.2-0.7h-5c-0.5,0-0.9,0.1-1,0.3
			c-0.1,0.2-0.2,0.5-0.2,1V75h5.7c1.6,0,2.6-0.2,3-0.7c0.4-0.5,0.8-1.4,1-2.8h0.9V80h-0.9c-0.3-1.4-0.6-2.4-1.1-2.8
			c-0.4-0.5-1.4-0.7-3-0.7h-5.7v9.1c0,0.7,0.2,1.2,0.7,1.3c0.5,0.1,1.8,0.2,4.2,0.2c2.5,0,4.4-0.3,5.5-0.8c1.2-0.5,2.3-1.9,3.2-4h1
			l-1.7,6.2h-20V87.9z"/>
		<path fill="#FFFFFF" d="M182.9,87.9c1.4-0.1,2.3-0.4,2.7-0.8c0.3-0.4,0.5-1.4,0.5-2.9v-16c0-1.3-0.2-2.1-0.6-2.6
			c-0.4-0.4-1.3-0.7-2.6-0.8v-0.7h10.2c2.1,0,3.9,0.3,5.3,0.8c2.7,1,4,2.9,4,5.6c0,1.8-0.6,3.2-1.8,4.2c-1.2,1-2.8,1.6-4.9,1.9
			l7.6,9.4c0.5,0.6,0.9,1,1.4,1.2c0.5,0.3,1.1,0.4,1.8,0.5v0.7h-5.9l-9.2-11.4l-1.6,0.1v7.3c0,1.4,0.2,2.2,0.6,2.6
			c0.4,0.4,1.3,0.6,2.7,0.7v0.7h-10.3V87.9z M195.5,75.1c2-0.8,2.9-2.3,2.9-4.5c0-2.1-0.9-3.6-2.6-4.4c-0.9-0.4-2.2-0.6-3.7-0.6
			c-1,0-1.7,0.1-1.9,0.2c-0.2,0.2-0.4,0.5-0.4,1.1v9.1C192.5,75.8,194.4,75.5,195.5,75.1z"/>
		<path fill="#FFFFFF" d="M209,81.1c0.6,1.7,1.4,3,2.2,4c1.5,1.7,3.3,2.6,5.5,2.6c1.2,0,2.2-0.4,3.1-1.1c0.9-0.7,1.3-1.8,1.3-3.1
			c0-1.2-0.4-2.2-1.3-3.1c-0.6-0.6-1.8-1.4-3.6-2.5l-3.1-2c-0.9-0.6-1.7-1.2-2.3-1.8c-1-1.2-1.6-2.5-1.6-3.9c0-1.9,0.6-3.4,1.9-4.7
			c1.2-1.2,2.9-1.9,4.9-1.9c0.8,0,1.9,0.2,3,0.6c1.2,0.4,1.9,0.6,2,0.6c0.5,0,0.8-0.1,0.9-0.3c0.2-0.2,0.3-0.5,0.4-0.9h0.8l0.8,7.9
			h-0.9c-0.6-2.4-1.6-4-2.9-5c-1.3-0.9-2.6-1.4-3.9-1.4c-1,0-1.9,0.3-2.6,0.9c-0.8,0.6-1.1,1.4-1.1,2.5c0,0.9,0.3,1.8,0.9,2.4
			c0.6,0.7,1.5,1.4,2.7,2.1l3.2,2c2,1.2,3.5,2.4,4.3,3.4c0.8,1.1,1.2,2.3,1.2,3.7c0,1.9-0.7,3.6-2.2,4.8c-1.5,1.3-3.3,1.9-5.6,1.9
			c-1.1,0-2.3-0.2-3.6-0.6c-1.2-0.4-2-0.7-2.1-0.7c-0.4,0-0.7,0.1-0.9,0.4c-0.2,0.3-0.2,0.5-0.3,0.8h-0.8l-1.1-7.9H209z"/>
		<path fill="#FFFFFF" d="M227.4,87.9c1.5-0.1,2.5-0.3,2.9-0.7c0.4-0.3,0.7-1.2,0.7-2.6V68.1c0-1.4-0.2-2.2-0.7-2.6
			c-0.4-0.4-1.4-0.6-2.9-0.7v-0.7h10.9v0.7c-1.5,0.1-2.5,0.3-2.9,0.7c-0.4,0.4-0.7,1.3-0.7,2.6v16.4c0,1.4,0.2,2.3,0.7,2.6
			c0.4,0.3,1.4,0.6,2.9,0.7v0.7h-10.9V87.9z"/>
		<path fill="#FFFFFF" d="M241.2,64.1H262l0.2,6.3h-0.9c-0.4-2-1-3.3-1.7-3.8c-0.7-0.6-2.1-0.9-4.2-0.9h-2.1v18.9
			c0,1.4,0.2,2.3,0.7,2.6c0.4,0.3,1.4,0.6,2.9,0.7v0.7h-10.8v-0.7c1.6-0.1,2.5-0.4,2.9-0.8c0.4-0.4,0.6-1.4,0.6-3V65.7h-2.1
			c-2,0-3.4,0.3-4.2,0.9c-0.7,0.6-1.3,1.9-1.7,3.9h-0.9L241.2,64.1z"/>
		<path fill="#FFFFFF" d="M274.8,64.1v0.7c-0.9,0-1.5,0-1.9,0.2c-0.4,0.2-0.6,0.5-0.6,1c0,0.2,0,0.4,0.1,0.6
			c0.1,0.2,0.2,0.5,0.5,0.9l5.4,8l5.3-8.1c0.2-0.3,0.4-0.6,0.4-0.9c0.1-0.2,0.1-0.4,0.1-0.5c0-0.5-0.3-0.9-0.8-1
			c-0.3-0.1-0.9-0.2-1.7-0.2v-0.7h8.1v0.7c-0.7,0-1.4,0.3-2,0.7c-0.9,0.6-1.9,1.8-3.1,3.6l-5.5,8.3v7.2c0,1.4,0.2,2.3,0.7,2.7
			c0.5,0.4,1.5,0.6,3.1,0.7v0.7h-11.3v-0.7c1.7-0.1,2.7-0.3,3.1-0.7c0.4-0.4,0.6-1.4,0.6-3v-6.4l-4.8-7.1c-1.7-2.4-2.8-4-3.5-4.7
			c-0.7-0.7-1.5-1.1-2.5-1.1v-0.7H274.8z"/>
	</g>
	<path fill="#FFFFFF" d="M13.4,10.6h23.8l0.2,7.1h-1c-0.5-2.2-1.1-3.7-1.9-4.4c-0.8-0.7-2.4-1-4.8-1h-2.3v21.5c0,1.6,0.3,2.6,0.8,3
		c0.5,0.4,1.6,0.6,3.3,0.8v0.8H19.2v-0.8c1.8-0.1,2.9-0.4,3.3-0.9c0.4-0.4,0.7-1.6,0.7-3.4v-21h-2.4c-2.3,0-3.9,0.3-4.7,1
		c-0.8,0.7-1.5,2.1-1.9,4.4h-1L13.4,10.6z"/>
	<path fill="#FFFFFF" d="M40,37.6c1.5-0.2,2.5-0.4,3-0.8c0.5-0.4,0.7-1.4,0.7-2.9V15.2c0-1.5-0.2-2.5-0.7-2.9
		c-0.5-0.5-1.5-0.7-3-0.9v-0.8h22.3l0.1,6h-1.1c-0.4-1.9-0.9-3-1.6-3.6c-0.7-0.5-2.3-0.8-4.8-0.8h-5.7c-0.6,0-1,0.1-1.1,0.3
		c-0.1,0.2-0.2,0.6-0.2,1.1V23h6.5c1.8,0,2.9-0.3,3.4-0.8c0.5-0.5,0.9-1.6,1.2-3.2h1v9.7h-1c-0.3-1.6-0.7-2.7-1.2-3.2
		c-0.5-0.5-1.6-0.8-3.4-0.8H48v10.4c0,0.8,0.3,1.3,0.8,1.5c0.5,0.2,2.1,0.2,4.7,0.2c2.8,0,5-0.3,6.3-0.9c1.4-0.6,2.6-2.1,3.7-4.5
		h1.2l-1.9,7.1H40V37.6z"/>
	<path fill="#FFFFFF" d="M65.6,37.6c1.1-0.1,2-0.4,2.6-0.9c0.6-0.5,1.7-1.8,3.5-3.9l6.5-8L73.5,18c-2-2.9-3.4-4.8-4.2-5.5
		c-0.8-0.7-1.9-1.1-3.3-1.2v-0.8h12.6v0.8c-1.2,0-2,0.1-2.4,0.2c-0.6,0.2-0.8,0.6-0.8,1.2c0,0.4,0.1,0.8,0.4,1.4
		c0.1,0.3,0.3,0.6,0.6,0.9l4.3,6.3l4.7-5.7c0.7-0.8,1.2-1.5,1.4-2c0.1-0.3,0.2-0.6,0.2-0.8c0-0.6-0.3-1-0.9-1.2
		c-0.4-0.1-1-0.2-2-0.2v-0.8h10v0.8c-1.1,0-2,0.2-2.6,0.5c-1,0.5-2.2,1.7-3.6,3.5L81.9,23l8,11.5c0.9,1.2,1.6,2,2.1,2.4
		c0.6,0.3,1.4,0.6,2.5,0.7v0.8H82.1v-0.8c1.2,0,2-0.1,2.5-0.3c0.5-0.2,0.7-0.5,0.7-1c0-0.4-0.3-1.2-0.9-2.2c-0.6-1-2.3-3.6-5.2-7.7
		l-4.9,6.2c-0.7,0.9-1.2,1.6-1.5,2c-0.4,0.7-0.7,1.2-0.7,1.5c0,0.6,0.4,1,1.1,1.3c0.4,0.2,1.1,0.3,2.1,0.3v0.8h-9.7V37.6z"/>
	<path fill="#FFFFFF" d="M93.9,38.4v-0.8c1.1-0.1,1.9-0.5,2.4-1.2c0.5-0.7,1.5-2.6,2.8-5.7l8.8-20.6h0.8l10.5,23.8
		c0.7,1.6,1.3,2.6,1.7,2.9c0.4,0.4,1.1,0.6,2.1,0.8v0.8h-10.7v-0.8c1.2-0.1,2-0.2,2.4-0.4c0.4-0.2,0.5-0.5,0.5-1.2
		c0-0.2-0.1-0.6-0.2-1.1c-0.1-0.5-0.3-1.1-0.6-1.6l-1.7-4h-11.1c-1.1,2.7-1.7,4.4-2,5c-0.2,0.6-0.3,1.1-0.3,1.4
		c0,0.7,0.3,1.2,0.9,1.5c0.4,0.2,1,0.3,2,0.4v0.8H93.9z M112,27.6L107.2,16l-4.8,11.6H112z"/>
	<path fill="#FFFFFF" d="M125.3,30c0.7,1.9,1.5,3.4,2.5,4.5c1.7,2,3.7,2.9,6.2,2.9c1.3,0,2.5-0.4,3.5-1.3c1-0.8,1.5-2,1.5-3.6
		c0-1.4-0.5-2.6-1.5-3.6c-0.6-0.6-2-1.6-4.1-2.9l-3.6-2.2c-1.1-0.7-1.9-1.4-2.6-2.1c-1.2-1.3-1.8-2.8-1.8-4.4c0-2.1,0.7-3.9,2.1-5.3
		c1.4-1.4,3.3-2.1,5.6-2.1c1,0,2.1,0.2,3.5,0.7c1.3,0.5,2.1,0.7,2.3,0.7c0.5,0,0.9-0.1,1.1-0.4c0.2-0.2,0.4-0.6,0.5-1h0.9l0.9,8.9
		h-1c-0.7-2.7-1.8-4.6-3.3-5.6c-1.5-1.1-3-1.6-4.5-1.6c-1.1,0-2.2,0.3-3,1c-0.9,0.7-1.3,1.6-1.3,2.8c0,1.1,0.3,2,1,2.8
		c0.7,0.8,1.7,1.6,3.1,2.4L137,23c2.3,1.4,3.9,2.7,4.9,3.9c0.9,1.2,1.4,2.6,1.4,4.3c0,2.2-0.8,4-2.5,5.5c-1.7,1.5-3.8,2.2-6.4,2.2
		c-1.3,0-2.7-0.2-4.1-0.7c-1.4-0.5-2.2-0.7-2.4-0.7c-0.5,0-0.8,0.2-1,0.5c-0.2,0.3-0.3,0.6-0.3,1h-0.9l-1.3-8.9H125.3z"/>
	<path fill="#FFFFFF" d="M209.2,30c0.7,1.9,1.5,3.4,2.5,4.5c1.7,2,3.7,2.9,6.2,2.9c1.3,0,2.5-0.4,3.5-1.3c1-0.8,1.5-2,1.5-3.6
		c0-1.4-0.5-2.6-1.5-3.6c-0.6-0.6-2-1.6-4.1-2.9l-3.6-2.2c-1.1-0.7-1.9-1.4-2.6-2.1c-1.2-1.3-1.8-2.8-1.8-4.4c0-2.1,0.7-3.9,2.1-5.3
		c1.4-1.4,3.3-2.1,5.6-2.1c1,0,2.1,0.2,3.5,0.7c1.3,0.5,2.1,0.7,2.3,0.7c0.5,0,0.9-0.1,1.1-0.4c0.2-0.2,0.4-0.6,0.5-1h0.9l0.9,8.9
		h-1c-0.7-2.7-1.8-4.6-3.3-5.6c-1.5-1.1-3-1.6-4.5-1.6c-1.1,0-2.2,0.3-3,1c-0.9,0.7-1.3,1.6-1.3,2.8c0,1.1,0.3,2,1,2.8
		c0.7,0.8,1.7,1.6,3.1,2.4l3.7,2.3c2.3,1.4,3.9,2.7,4.9,3.9c0.9,1.2,1.4,2.6,1.4,4.3c0,2.2-0.8,4-2.5,5.5c-1.7,1.5-3.8,2.2-6.4,2.2
		c-1.3,0-2.7-0.2-4.1-0.7c-1.4-0.5-2.2-0.7-2.4-0.7c-0.5,0-0.8,0.2-1,0.5c-0.2,0.3-0.3,0.6-0.3,1h-0.9l-1.3-8.9H209.2z"/>
	<path fill="#FFFFFF" d="M231.2,10.6H255l0.2,7.1h-1c-0.5-2.2-1.1-3.7-1.9-4.4c-0.8-0.7-2.4-1-4.8-1h-2.3v21.5c0,1.6,0.3,2.6,0.8,3
		c0.5,0.4,1.6,0.6,3.3,0.8v0.8H237v-0.8c1.8-0.1,2.9-0.4,3.3-0.9c0.4-0.4,0.7-1.6,0.7-3.4v-21h-2.4c-2.3,0-3.9,0.3-4.8,1
		c-0.8,0.7-1.5,2.1-1.9,4.4h-1L231.2,10.6z"/>
	<path fill="#FFFFFF" d="M255.6,38.4v-0.8c1.1-0.1,1.9-0.5,2.4-1.2c0.5-0.7,1.5-2.6,2.8-5.7l8.8-20.6h0.8l10.5,23.8
		c0.7,1.6,1.3,2.6,1.7,2.9c0.4,0.4,1.1,0.6,2.1,0.8v0.8H274v-0.8c1.2-0.1,2-0.2,2.4-0.4c0.4-0.2,0.5-0.5,0.5-1.2
		c0-0.2-0.1-0.6-0.2-1.1c-0.1-0.5-0.3-1.1-0.6-1.6l-1.7-4h-11.1c-1.1,2.7-1.7,4.4-2,5c-0.2,0.6-0.3,1.1-0.3,1.4
		c0,0.7,0.3,1.2,0.9,1.5c0.4,0.2,1,0.3,2,0.4v0.8H255.6z M273.7,27.6L268.9,16L264,27.6H273.7z"/>
	<path fill="#FFFFFF" d="M285.1,10.6h23.8l0.2,7.1h-1c-0.5-2.2-1.1-3.7-1.9-4.4c-0.8-0.7-2.4-1-4.8-1h-2.3v21.5c0,1.6,0.3,2.6,0.8,3
		c0.5,0.4,1.6,0.6,3.3,0.8v0.8h-12.2v-0.8c1.8-0.1,2.9-0.4,3.3-0.9c0.4-0.4,0.7-1.6,0.7-3.4v-21h-2.4c-2.3,0-3.9,0.3-4.7,1
		c-0.8,0.7-1.5,2.1-1.9,4.4h-1L285.1,10.6z"/>
	<path fill="#FFFFFF" d="M312.4,37.6c1.5-0.2,2.5-0.4,3-0.8c0.5-0.4,0.7-1.4,0.7-2.9V15.2c0-1.5-0.2-2.5-0.7-2.9
		c-0.5-0.5-1.5-0.7-3-0.9v-0.8h22.3l0.1,6h-1.1c-0.4-1.9-0.9-3-1.6-3.6c-0.7-0.5-2.3-0.8-4.8-0.8h-5.7c-0.6,0-1,0.1-1.1,0.3
		c-0.1,0.2-0.2,0.6-0.2,1.1V23h6.5c1.8,0,2.9-0.3,3.4-0.8c0.5-0.5,0.9-1.6,1.2-3.2h1v9.7h-1c-0.3-1.6-0.7-2.7-1.2-3.2
		c-0.5-0.5-1.6-0.8-3.4-0.8h-6.5v10.4c0,0.8,0.3,1.3,0.8,1.5c0.5,0.2,2.1,0.2,4.7,0.2c2.8,0,5-0.3,6.3-0.9c1.4-0.6,2.6-2.1,3.7-4.5
		h1.2l-1.9,7.1h-22.7V37.6z"/>
	<path fill="#FFFFFF" d="M182.2,21.8L182.2,21.8L175.1,0L168,21.8h0h-22.9l18.5,13.5l-7.1,21.8l18.5-13.5L193.6,57l0,0l0.1,0.1
		l-7.1-21.7l0-0.1L205,21.9l0,0l0.1-0.1H182.2z M184.7,34.7l-9.6-3.1l15.5,21.3l-15.5-11.3V31.6l-15.5,21.3l5.9-18.3l9.6-3.1l0,0
		l-25.1-8.2h19.2l5.9,8.2V5.1l5.9,18.3l-5.9,8.2l25.1-8.2L184.7,34.7z"/>
</g>
</svg>
