<svg id="Maroon" xmlns="http://www.w3.org/2000/svg" viewBox="0 0 339.8 89.07"><defs><style>.cls-1{fill:#fff}</style></defs><path class="cls-1" d="M0 50.18v1.74h145.43l.57-1.74H0zM323.92 50.18v1.74H178.48l-.57-1.74h146.01z"/><path class="cls-1" d="M375.65 78.9a4.69 4.69 0 1 1-4.65-4.7 4.7 4.7 0 0 1 4.65 4.7Zm-8.62 0A3.94 3.94 0 1 0 371 75a3.93 3.93 0 0 0-4 3.88Zm2.17-2.62h1.8c.62 0 1.84 0 1.84 1.39a1.2 1.2 0 0 1-1 1.29c.72 0 .77.53.87 1.2a4.93 4.93 0 0 0 .28 1.38h-1.12c0-.24-.2-1.58-.2-1.66-.07-.29-.17-.45-.55-.45h-.92v2.11h-1Zm1 2.31h.8a.7.7 0 0 0 .79-.74c0-.72-.49-.72-.76-.72h-.85ZM93.79 92v.68a5 5 0 0 0-2.76.71q-.63.57-.63 2.61v11.8a10.49 10.49 0 0 0 .79 4.53q1.49 3 5.61 3c3 0 5-1 6.07-3a12 12 0 0 0 .87-5.23v-9.71c0-2-.24-3.26-.72-3.78a4.36 4.36 0 0 0-2.74-1V92h8.54v.68a4.22 4.22 0 0 0-2.8 1c-.44.53-.66 1.77-.66 3.7V107a12.59 12.59 0 0 1-1.17 6q-2.19 3.92-8.19 3.91T87.82 113a11.28 11.28 0 0 1-1.17-5.52V96a3.7 3.7 0 0 0-.65-2.62 5 5 0 0 0-2.72-.73V92ZM111.45 115.71a4.51 4.51 0 0 0 2.94-1c.43-.53.65-1.77.65-3.72v-16.3l-.51-.6a4.13 4.13 0 0 0-1.38-1.18 5.55 5.55 0 0 0-1.7-.26V92h6.3L132 109.63V97.36c0-2-.3-3.33-.9-3.94a4.63 4.63 0 0 0-2.64-.77V92h8.67v.68a4.29 4.29 0 0 0-2.81 1c-.47.54-.7 1.78-.7 3.71v19.43H133l-16.34-20.24V111c0 2 .29 3.33.88 4a4.6 4.6 0 0 0 2.58.81v.68h-8.67ZM139.81 115.71a6.08 6.08 0 0 0 2.92-.68c.44-.34.67-1.22.67-2.64V96a3.63 3.63 0 0 0-.67-2.63 5.24 5.24 0 0 0-2.92-.69V92h10.92v.68a5.24 5.24 0 0 0-2.92.69c-.44.39-.66 1.27-.66 2.63v16.42q0 2.13.66 2.64a6.08 6.08 0 0 0 2.92.68v.68h-10.92ZM163.36 92v.63a7.3 7.3 0 0 0-1.89.18 1.16 1.16 0 0 0-.88 1.19 3.84 3.84 0 0 0 .31 1.28c.21.55.6 1.46 1.17 2.74l5.78 12.85 5.25-13.91c.23-.62.41-1.14.53-1.57a4 4 0 0 0 .18-1 1.46 1.46 0 0 0-.92-1.47 5.68 5.68 0 0 0-1.78-.25V92h7.55v.63a3.36 3.36 0 0 0-1.73.63 7 7 0 0 0-1.68 2.83l-8.17 20.76h-.56l-9.12-20.32a11.3 11.3 0 0 0-1.85-3.21 3.26 3.26 0 0 0-2-.72V92ZM181.42 115.71a5.46 5.46 0 0 0 2.64-.73c.4-.34.6-1.2.6-2.59V96a3.83 3.83 0 0 0-.59-2.57 4.44 4.44 0 0 0-2.65-.75V92H201l.13 5.28h-.94a5.19 5.19 0 0 0-1.41-3.16c-.62-.48-2-.72-4.18-.72h-5c-.55 0-.88.09-1 .26a1.87 1.87 0 0 0-.19 1v8.23h5.7c1.58 0 2.58-.23 3-.7a6.1 6.1 0 0 0 1-2.83h.89v8.53h-.86a6.18 6.18 0 0 0-1.04-2.89c-.43-.46-1.43-.7-3-.7h-5.7v9.14c0 .74.23 1.17.7 1.3a23.58 23.58 0 0 0 4.16.2 14.16 14.16 0 0 0 5.54-.82c1.19-.55 2.26-1.87 3.21-4h1l-1.68 6.24h-20ZM205.59 115.71a4.2 4.2 0 0 0 2.66-.83 5.27 5.27 0 0 0 .52-2.92V96a3.84 3.84 0 0 0-.59-2.55 4.25 4.25 0 0 0-2.59-.77V92h10.23a15 15 0 0 1 5.31.81 5.61 5.61 0 0 1 4 5.63 5.17 5.17 0 0 1-1.79 4.23 9.89 9.89 0 0 1-4.88 1.94l7.61 9.37a5.11 5.11 0 0 0 1.41 1.25 4.52 4.52 0 0 0 1.8.51v.68h-5.95L214.14 105l-1.62.1v7.27c0 1.37.2 2.23.62 2.6a5.2 5.2 0 0 0 2.71.73v.68h-10.26Zm12.62-12.8a4.5 4.5 0 0 0 2.94-4.54 4.36 4.36 0 0 0-2.63-4.37 9.25 9.25 0 0 0-3.73-.63 4.63 4.63 0 0 0-1.92.23c-.24.15-.35.5-.35 1.05v9.09a19 19 0 0 0 5.69-.83ZM231.74 109a13.17 13.17 0 0 0 2.2 4 6.87 6.87 0 0 0 5.45 2.58 4.47 4.47 0 0 0 3.05-1.12 3.89 3.89 0 0 0 1.29-3.12 4.31 4.31 0 0 0-1.3-3.13 22.26 22.26 0 0 0-3.56-2.55l-3.15-2a11.48 11.48 0 0 1-2.27-1.82 5.67 5.67 0 0 1-1.56-3.84 6.3 6.3 0 0 1 1.85-4.65 6.65 6.65 0 0 1 4.92-1.86 9.58 9.58 0 0 1 3 .62 12.64 12.64 0 0 0 2 .63 1.14 1.14 0 0 0 .94-.33 2.25 2.25 0 0 0 .41-.92h.76l.81 7.86h-.88a8.34 8.34 0 0 0-2.9-5 6.84 6.84 0 0 0-3.94-1.4 4.15 4.15 0 0 0-2.64.89 3 3 0 0 0-1.12 2.48 3.58 3.58 0 0 0 .86 2.43 11 11 0 0 0 2.68 2.15l3.25 2a17.11 17.11 0 0 1 4.29 3.44 6 6 0 0 1 1.23 3.75 6.22 6.22 0 0 1-2.19 4.85 8.11 8.11 0 0 1-5.6 1.95 11 11 0 0 1-3.58-.65 13.86 13.86 0 0 0-2.13-.65.91.91 0 0 0-.88.4 2.48 2.48 0 0 0-.3.84H232l-1.1-7.86ZM250.08 115.71A6 6 0 0 0 253 115c.45-.34.67-1.22.67-2.64V96c0-1.36-.22-2.24-.67-2.63a5.21 5.21 0 0 0-2.92-.69V92H261v.68a5.25 5.25 0 0 0-2.93.69c-.44.39-.66 1.27-.66 2.63v16.42q0 2.13.66 2.64a6.09 6.09 0 0 0 2.93.68v.68h-10.92ZM263.87 92h20.88l.19 6.27h-.88c-.43-2-1-3.26-1.65-3.85s-2.07-.89-4.21-.89h-2.05v18.89c0 1.42.22 2.3.67 2.64a6 6 0 0 0 2.91.68v.68H269v-.68a5.15 5.15 0 0 0 2.92-.77c.39-.4.58-1.39.58-3V93.5h-2.1c-2 0-3.44.29-4.18.88s-1.29 1.88-1.67 3.86h-.89ZM297.54 92v.68a5.58 5.58 0 0 0-1.94.2 1 1 0 0 0-.65 1 2.07 2.07 0 0 0 .1.58 4.25 4.25 0 0 0 .49.93l5.44 8 5.3-8.09a4.15 4.15 0 0 0 .42-.87 1.93 1.93 0 0 0 .1-.5 1 1 0 0 0-.85-1 6.46 6.46 0 0 0-1.73-.18V92h8.07v.68a3.8 3.8 0 0 0-2 .67 13.23 13.23 0 0 0-3.08 3.55l-5.45 8.33v7.18c0 1.42.23 2.32.69 2.67a6.54 6.54 0 0 0 3.11.66v.68H294.3v-.68c1.67-.1 2.71-.35 3.11-.75s.6-1.41.6-3v-6.41l-4.83-7.08a43.64 43.64 0 0 0-3.51-4.7 3.59 3.59 0 0 0-2.46-1.11V92ZM36.09 38.46h23.76l.22 7.14h-1q-.74-3.37-1.88-4.39c-.76-.67-2.35-1-4.79-1h-2.34V61.7c0 1.62.26 2.62.76 3a7.09 7.09 0 0 0 3.32.77v.77H41.9v-.77c1.78-.14 2.88-.43 3.32-.88s.66-1.58.66-3.39v-21h-2.36c-2.33 0-3.91.33-4.75 1s-1.48 2.13-1.9 4.39h-1ZM62.75 65.48a6.21 6.21 0 0 0 3-.83c.45-.39.68-1.37.68-3V43a4.38 4.38 0 0 0-.67-2.92 5 5 0 0 0-3-.85v-.78h22.31l.14 6h-1.06c-.36-1.85-.89-3-1.6-3.6s-2.3-.81-4.76-.81h-5.72c-.62 0-1 .09-1.14.29a2 2 0 0 0-.22 1.12v9.38h6.48c1.8 0 2.94-.27 3.43-.8a6.92 6.92 0 0 0 1.19-3.22h1v9.7h-1a7 7 0 0 0-1.21-3.21c-.49-.53-1.63-.79-3.41-.79h-6.48v10.4c0 .83.26 1.33.79 1.48a27.1 27.1 0 0 0 4.74.22 16 16 0 0 0 6.3-.93q2-.93 3.66-4.52h1.17l-1.91 7.09H62.75ZM88.29 65.48a4.83 4.83 0 0 0 2.56-.9 34.36 34.36 0 0 0 3.48-3.93l6.49-8-4.6-6.74A36.8 36.8 0 0 0 92 40.39a5.09 5.09 0 0 0-3.25-1.15v-.78h12.64v.78a10.81 10.81 0 0 0-2.38.24 1.12 1.12 0 0 0-.84 1.17 3.2 3.2 0 0 0 .4 1.35 10.3 10.3 0 0 0 .57.94l4.34 6.28 4.71-5.74a11.14 11.14 0 0 0 1.41-2 1.84 1.84 0 0 0 .22-.82 1.21 1.21 0 0 0-.9-1.23 7.56 7.56 0 0 0-2-.2v-.78h10v.78a5.85 5.85 0 0 0-2.61.53 14.18 14.18 0 0 0-3.61 3.45l-6.07 7.62 8 11.52a8.33 8.33 0 0 0 2.13 2.37 7.22 7.22 0 0 0 2.49.75v.77H104.8v-.77a8.41 8.41 0 0 0 2.49-.32 1 1 0 0 0 .7-1 5.15 5.15 0 0 0-.94-2.19q-.93-1.53-5.16-7.74L97 60.39c-.72.92-1.22 1.58-1.51 2a3.21 3.21 0 0 0-.67 1.49 1.32 1.32 0 0 0 1.06 1.27 8.92 8.92 0 0 0 2.14.33v.77h-9.73Z" transform="translate(-35.84 -27.84)"/><path class="cls-1" d="M116.64 66.25v-.77a3.42 3.42 0 0 0 2.43-1.23 34.11 34.11 0 0 0 2.78-5.67L130.6 38h.83l10.47 23.78a10.22 10.22 0 0 0 1.67 2.93 4.07 4.07 0 0 0 2.11.77v.77H135v-.77a9.87 9.87 0 0 0 2.38-.4c.35-.16.53-.54.53-1.16a5.49 5.49 0 0 0-.2-1.08 11.49 11.49 0 0 0-.58-1.63l-1.68-4h-11.08c-1.09 2.75-1.75 4.42-2 5a4.68 4.68 0 0 0-.32 1.44 1.48 1.48 0 0 0 .87 1.47 7.18 7.18 0 0 0 2 .37v.77Zm18.09-10.79-4.81-11.57-4.84 11.57ZM148.06 57.8a15 15 0 0 0 2.5 4.51 7.81 7.81 0 0 0 6.2 2.94 5.13 5.13 0 0 0 3.48-1.25 4.47 4.47 0 0 0 1.46-3.55 5 5 0 0 0-1.47-3.57 26 26 0 0 0-4.06-2.88l-3.58-2.24a12.86 12.86 0 0 1-2.59-2.1 6.44 6.44 0 0 1-1.79-4.39 7.23 7.23 0 0 1 2.11-5.3 7.62 7.62 0 0 1 5.61-2.11 10.79 10.79 0 0 1 3.45.71 15.29 15.29 0 0 0 2.31.71 1.35 1.35 0 0 0 1.08-.37 2.7 2.7 0 0 0 .46-1h.86l.92 9h-1c-.69-2.7-1.78-4.58-3.29-5.65a7.84 7.84 0 0 0-4.49-1.6 4.66 4.66 0 0 0-3 1A3.39 3.39 0 0 0 152 43.4a4.1 4.1 0 0 0 1 2.77 12.57 12.57 0 0 0 3 2.44l3.69 2.28a19.23 19.23 0 0 1 4.89 3.92 6.75 6.75 0 0 1 1.4 4.26 7.08 7.08 0 0 1-2.49 5.52 9.24 9.24 0 0 1-6.37 2.22 12.51 12.51 0 0 1-4.08-.74 15.46 15.46 0 0 0-2.43-.74 1 1 0 0 0-1 .45 2.74 2.74 0 0 0-.34 1h-.92l-1.26-9ZM232 57.8a15.2 15.2 0 0 0 2.49 4.51 7.84 7.84 0 0 0 6.21 2.94 5.09 5.09 0 0 0 3.43-1.25 4.45 4.45 0 0 0 1.47-3.55 4.93 4.93 0 0 0-1.48-3.57 25.78 25.78 0 0 0-4.05-2.88l-3.58-2.24a13.24 13.24 0 0 1-2.59-2.07 6.43 6.43 0 0 1-1.78-4.39 7.19 7.19 0 0 1 2.11-5.3 7.61 7.61 0 0 1 5.6-2.11 10.85 10.85 0 0 1 3.46.71 15.29 15.29 0 0 0 2.31.71 1.35 1.35 0 0 0 1.08-.37 2.85 2.85 0 0 0 .46-1h.86l.92 9h-1c-.69-2.7-1.78-4.58-3.3-5.65a7.79 7.79 0 0 0-4.48-1.6 4.71 4.71 0 0 0-3 1 3.42 3.42 0 0 0-1.28 2.82 4.11 4.11 0 0 0 1 2.77 12.57 12.57 0 0 0 3 2.44l3.69 2.28a19 19 0 0 1 4.88 3.92 6.7 6.7 0 0 1 1.41 4.26 7.09 7.09 0 0 1-2.5 5.52 9.21 9.21 0 0 1-6.34 2.11 12.45 12.45 0 0 1-4.07-.74 15.8 15.8 0 0 0-2.43-.74 1.05 1.05 0 0 0-1 .45 3 3 0 0 0-.34 1h-.92l-1.25-9ZM253.94 38.46h23.76l.22 7.14h-1q-.74-3.37-1.88-4.39c-.76-.67-2.35-1-4.79-1h-2.34V61.7c0 1.62.26 2.62.76 3a7.07 7.07 0 0 0 3.33.77v.77h-12.25v-.77c1.77-.14 2.88-.43 3.32-.88s.66-1.58.66-3.39v-21h-2.36c-2.33 0-3.91.33-4.75 1s-1.47 2.13-1.9 4.39h-1ZM278.31 66.25v-.77a3.42 3.42 0 0 0 2.43-1.23 33.29 33.29 0 0 0 2.78-5.67L292.28 38h.83l10.47 23.82a10 10 0 0 0 1.67 2.93 4.07 4.07 0 0 0 2.1.77v.77h-10.68v-.77a9.65 9.65 0 0 0 2.37-.4c.36-.16.54-.54.54-1.16a5 5 0 0 0-.21-1.08 12.76 12.76 0 0 0-.57-1.63l-1.68-4H286c-1.09 2.75-1.74 4.42-2 5a4.4 4.4 0 0 0-.32 1.44 1.49 1.49 0 0 0 .86 1.47 7.36 7.36 0 0 0 2 .37v.77Zm18.1-10.79-4.82-11.57-4.83 11.57ZM307.79 38.46h23.76l.23 7.14h-1q-.74-3.37-1.87-4.39c-.76-.67-2.36-1-4.79-1h-2.34V61.7c0 1.62.25 2.62.76 3a7 7 0 0 0 3.32.77v.77H313.6v-.77c1.78-.14 2.89-.43 3.33-.88s.65-1.58.65-3.39v-21h-2.36c-2.32 0-3.9.33-4.75 1s-1.47 2.13-1.89 4.39h-1ZM335.09 65.48a6.16 6.16 0 0 0 3-.83c.46-.39.69-1.37.69-3V43c0-1.49-.22-2.46-.68-2.92a5 5 0 0 0-3-.85v-.78h22.32l.14 6h-1.06c-.36-1.85-.89-3-1.61-3.6s-2.29-.81-4.75-.81h-5.72c-.62 0-1 .09-1.15.29a2.09 2.09 0 0 0-.21 1.12v9.38h6.48c1.79 0 2.93-.27 3.43-.8a6.92 6.92 0 0 0 1.19-3.22h1v9.7h-1a7.06 7.06 0 0 0-1.21-3.23c-.5-.53-1.63-.79-3.41-.79h-6.48v10.4c0 .83.26 1.33.79 1.48a27 27 0 0 0 4.74.22 16 16 0 0 0 6.3-.93q2-.93 3.66-4.52h1.17l-1.91 7.09h-22.72ZM167.8 49.64l.12.09 18.42 13.38-7.08 21.79.08-.05 18.46-13.42 18.54 13.47-7.08-21.79 18.54-13.47h-22.92l-7.08-21.8-7.08 21.8H167.8Zm4.87 1.58 25.13 8.21-5.93-8.21 5.93-18.28v26.49l5.95-8.21H223l-25.2 8.21 9.61 3.09 5.94 18.26-15.55-21.35v10.06l-15.53 11.28 15.53-21.34-9.6 3.08Z" transform="translate(-35.84 -27.84)"/></svg>