<svg id="Black" xmlns="http://www.w3.org/2000/svg" viewBox="0 0 339.8 57.06"><defs><style>.cls-1{fill:#231f20}</style></defs><path class="cls-1" d="M0 50.18v1.74h145.43l.57-1.74H0zM323.92 50.18v1.74H178.48l-.57-1.74h146.01z"/><path class="cls-1" d="M375.32 80.51a4.69 4.69 0 1 1-4.69-4.69 4.7 4.7 0 0 1 4.69 4.69Zm-8.62 0a3.93 3.93 0 1 0 3.92-3.92 3.93 3.93 0 0 0-3.92 3.91Zm2.17-2.62h1.81c.62 0 1.84 0 1.84 1.39a1.2 1.2 0 0 1-1 1.29c.72 0 .77.52.87 1.19a5.43 5.43 0 0 0 .27 1.39h-1.11c0-.25-.2-1.59-.2-1.66-.07-.3-.17-.45-.55-.45h-.92v2.11h-1Zm1 2.31h.82a.7.7 0 0 0 .79-.75c0-.71-.49-.71-.76-.71h-.85ZM35.76 40.07h23.76l.22 7.14h-1c-.5-2.24-1.12-3.7-1.88-4.38s-2.35-1-4.79-1h-2.34v21.5c0 1.62.25 2.62.76 3a7.08 7.08 0 0 0 3.32.76v.78H41.57v-.78c1.78-.13 2.88-.43 3.32-.88s.66-1.57.66-3.39v-21h-2.36c-2.33 0-3.91.33-4.75 1S37 45 36.54 47.21h-1ZM62.42 67.09a6.24 6.24 0 0 0 3-.82c.45-.39.68-1.37.68-2.95V44.63a4.42 4.42 0 0 0-.67-2.93 5.1 5.1 0 0 0-3-.85v-.78h22.31l.14 6h-1.06c-.36-1.85-.89-3-1.6-3.59s-2.3-.82-4.76-.82h-5.72q-.93 0-1.14.3a2 2 0 0 0-.22 1.12v9.38h6.48c1.79 0 2.94-.27 3.43-.8a6.92 6.92 0 0 0 1.19-3.23h1v9.71h-1a6.9 6.9 0 0 0-1.21-3.23c-.49-.53-1.63-.79-3.41-.79h-6.48v10.4c0 .83.26 1.32.79 1.48a27.1 27.1 0 0 0 4.74.22 16 16 0 0 0 6.3-.93c1.36-.63 2.58-2.13 3.66-4.53H87l-1.91 7.1H62.42ZM88 67.09a4.86 4.86 0 0 0 2.56-.89A34.36 34.36 0 0 0 94 62.27l6.49-8-4.6-6.74A36.8 36.8 0 0 0 91.66 42a5.1 5.1 0 0 0-3.25-1.16v-.78h12.64v.78a10.59 10.59 0 0 0-2.38.25 1.11 1.11 0 0 0-.84 1.16 3.12 3.12 0 0 0 .41 1.37 9.12 9.12 0 0 0 .57.95l4.33 6.27 4.72-5.73a11.14 11.14 0 0 0 1.41-2 2 2 0 0 0 .22-.82 1.19 1.19 0 0 0-.9-1.23 7.89 7.89 0 0 0-2-.21v-.78h10v.78a6 6 0 0 0-2.61.54 14.18 14.18 0 0 0-3.61 3.45l-6.07 7.61 8 11.53a8.33 8.33 0 0 0 2.13 2.37 7 7 0 0 0 2.48.74v.78h-12.44v-.78a8.49 8.49 0 0 0 2.49-.31 1 1 0 0 0 .7-1 5.11 5.11 0 0 0-.94-2.19c-.62-1-2.34-3.6-5.16-7.74L96.63 62c-.72.91-1.22 1.58-1.51 2a3.21 3.21 0 0 0-.67 1.49 1.32 1.32 0 0 0 1.06 1.27 9 9 0 0 0 2.14.32v.78H88Z" transform="translate(-35.51 -29.46)"/><path class="cls-1" d="M116.31 67.87v-.78a3.41 3.41 0 0 0 2.43-1.22 34.11 34.11 0 0 0 2.78-5.67l8.75-20.62h.83l10.47 23.82a10.38 10.38 0 0 0 1.67 2.93 4 4 0 0 0 2.11.76v.78h-10.69v-.78a9.38 9.38 0 0 0 2.38-.4c.35-.15.53-.54.53-1.15a5.49 5.49 0 0 0-.2-1.08 12 12 0 0 0-.58-1.64l-1.68-4H124q-1.65 4.13-2 5a4.79 4.79 0 0 0-.32 1.45 1.5 1.5 0 0 0 .86 1.47 7.08 7.08 0 0 0 2 .36v.78Zm18.09-10.79-4.81-11.57-4.84 11.57ZM147.73 59.42a15 15 0 0 0 2.5 4.51 7.81 7.81 0 0 0 6.2 2.94 5.18 5.18 0 0 0 3.48-1.27 4.49 4.49 0 0 0 1.46-3.6 5 5 0 0 0-1.47-3.56 25.87 25.87 0 0 0-4.06-2.9l-3.58-2.23a12.87 12.87 0 0 1-2.58-2.08 6.4 6.4 0 0 1-1.79-4.38 7.21 7.21 0 0 1 2.11-5.3 7.58 7.58 0 0 1 5.61-2.11 10.53 10.53 0 0 1 3.45.71 14.59 14.59 0 0 0 2.31.7 1.32 1.32 0 0 0 1.08-.37 2.73 2.73 0 0 0 .46-1h.86l.92 8.94h-1c-.69-2.69-1.78-4.57-3.29-5.64a7.84 7.84 0 0 0-4.49-1.6 4.66 4.66 0 0 0-3 1 3.36 3.36 0 0 0-1.28 2.82 4.1 4.1 0 0 0 1 2.77 12.57 12.57 0 0 0 3 2.44l3.69 2.28a19.24 19.24 0 0 1 4.89 3.91 6.8 6.8 0 0 1 1.4 4.27 7.07 7.07 0 0 1-2.5 5.52 9.21 9.21 0 0 1-6.37 2.22 12.5 12.5 0 0 1-4.07-.74 15.46 15.46 0 0 0-2.43-.74 1 1 0 0 0-1 .45 2.57 2.57 0 0 0-.34 1h-.9l-1.26-8.94ZM231.63 59.42a15.2 15.2 0 0 0 2.49 4.51 7.84 7.84 0 0 0 6.21 2.94 5.14 5.14 0 0 0 3.47-1.27 4.47 4.47 0 0 0 1.47-3.6 4.92 4.92 0 0 0-1.48-3.56 25.63 25.63 0 0 0-4-2.9l-3.58-2.23a13.26 13.26 0 0 1-2.59-2.08 6.39 6.39 0 0 1-1.78-4.38 7.17 7.17 0 0 1 2.11-5.3 7.57 7.57 0 0 1 5.6-2.11 10.58 10.58 0 0 1 3.46.71 14.59 14.59 0 0 0 2.31.7 1.32 1.32 0 0 0 1.08-.37 2.73 2.73 0 0 0 .46-1h.86l.92 8.94h-1c-.69-2.69-1.78-4.57-3.3-5.64a7.79 7.79 0 0 0-4.48-1.6 4.71 4.71 0 0 0-3 1 3.39 3.39 0 0 0-1.34 2.82 4.11 4.11 0 0 0 1 2.77 12.57 12.57 0 0 0 3.05 2.44l3.69 2.28a19 19 0 0 1 4.88 3.91 6.74 6.74 0 0 1 1.4 4.27 7.1 7.1 0 0 1-2.54 5.54 9.21 9.21 0 0 1-6.37 2.22 12.45 12.45 0 0 1-4.07-.74 16.17 16.17 0 0 0-2.43-.74 1.05 1.05 0 0 0-1 .45 3 3 0 0 0-.34 1h-.92l-1.25-8.94ZM253.61 40.07h23.76l.22 7.14h-1q-.73-3.36-1.88-4.38c-.76-.67-2.35-1-4.79-1h-2.34v21.5c0 1.62.25 2.62.76 3a7.1 7.1 0 0 0 3.33.76v.78h-12.25v-.78c1.77-.13 2.88-.43 3.32-.88s.66-1.57.66-3.39v-21H261c-2.33 0-3.91.33-4.75 1s-1.47 2.14-1.9 4.39h-1ZM278 67.87v-.78a3.41 3.41 0 0 0 2.43-1.22 33.29 33.29 0 0 0 2.78-5.67l8.75-20.62h.84l10.45 23.82a10.13 10.13 0 0 0 1.67 2.93 4 4 0 0 0 2.1.76v.78h-10.68v-.78a9.17 9.17 0 0 0 2.37-.4c.36-.15.53-.54.53-1.15a4.81 4.81 0 0 0-.2-1.08 13.43 13.43 0 0 0-.57-1.64l-1.68-4h-11.08q-1.63 4.13-1.95 5a4.5 4.5 0 0 0-.32 1.45 1.5 1.5 0 0 0 .86 1.47 6.92 6.92 0 0 0 2 .36v.78Zm18.1-10.79-4.82-11.57-4.83 11.57ZM307.46 40.07h23.76l.23 7.14h-1q-.74-3.36-1.87-4.38c-.76-.67-2.36-1-4.79-1h-2.34v21.5c0 1.62.25 2.62.76 3a7 7 0 0 0 3.32.76v.78h-12.26v-.78c1.78-.13 2.89-.43 3.33-.88s.65-1.57.65-3.39v-21h-2.36c-2.32 0-3.91.33-4.75 1s-1.47 2.14-1.9 4.39h-1ZM334.76 67.09a6.19 6.19 0 0 0 3-.82c.46-.39.69-1.37.69-2.95V44.63c0-1.49-.22-2.47-.68-2.93a5.06 5.06 0 0 0-3-.85v-.78h22.32l.14 6h-1.07c-.35-1.85-.88-3-1.6-3.59s-2.29-.82-4.75-.82h-5.73c-.61 0-1 .1-1.14.3a2.09 2.09 0 0 0-.21 1.12v9.38h6.48c1.79 0 2.93-.27 3.43-.8a6.83 6.83 0 0 0 1.18-3.23h1v9.71h-1a6.79 6.79 0 0 0-1.21-3.23c-.49-.53-1.62-.79-3.4-.79h-6.48v10.4c0 .83.26 1.32.79 1.48a27 27 0 0 0 4.73.22 16.06 16.06 0 0 0 6.31-.93c1.36-.63 2.58-2.13 3.66-4.53h1.17l-1.91 7.1h-22.72Z" transform="translate(-35.51 -29.46)"/><path style="fill:#ac9155" d="M189.44 22.36h-21l-6.48-19.97-6.49 19.97H134.48l16.98 12.34-.02.05-6.47 19.92.07-.05 16.92-12.29 16.91 12.29.07.05-6.47-19.92-.01-.05 16.87-12.26.11-.08z"/><path d="m204.59 51.26-7.08-21.8-7.08 21.8h-22.96L186 64.73l-7.08 21.79 18.54-13.47 18.47 13.42h.07l-7-21.69 18.42-13.39.12-.08Zm2.49 12.86-9.61-3.07L213 82.39 197.47 71.1v-10l-15.54 21.3 5.93-18.27 9.61-3.08-25.15-8.22h19.21l5.94 8.22V34.56l5.94 18.27-5.94 8.22 25.13-8.22Z" transform="translate(-35.51 -29.46)" style="fill:#501214"/></svg>