<?xml version="1.0" encoding="utf-8"?>
<!-- Generator: Adobe Illustrator 19.0.0, SVG Export Plug-In . SVG Version: 6.00 Build 0)  -->
<svg version="1.1" id="_x38_72" xmlns="http://www.w3.org/2000/svg" xmlns:xlink="http://www.w3.org/1999/xlink" x="0px" y="0px"
	 viewBox="-129 328.1 352.9 136.9" style="enable-background:new -129 328.1 352.9 136.9;" xml:space="preserve">
<style type="text/css">
	.st0{fill:#FFFFFF;}
</style>
<polygon class="st0" points="-115.9,378.3 -115.9,380.1 29.6,380.1 30.1,378.3 "/>
<polygon class="st0" points="208.1,378.3 208.1,380.1 62.6,380.1 62.1,378.3 "/>
<path class="st0" d="M223.9,379.2c0,2.6-2.1,4.7-4.7,4.7s-4.7-2.1-4.7-4.7c0-2.7,2.2-4.7,4.7-4.7
	C221.8,374.5,223.9,376.6,223.9,379.2z M215.3,379.2c0,2.2,1.8,3.9,3.9,3.9c2.2,0,3.9-1.8,3.9-3.9c0-2.2-1.8-3.9-3.9-3.9
	S215.3,377,215.3,379.2z M217.5,376.6h1.8c0.6,0,1.8,0,1.8,1.4c0,1-0.6,1.2-1,1.3c0.7,0,0.8,0.5,0.9,1.2c0,0.4,0.1,1.1,0.3,1.4h-1.1
	c0-0.2-0.2-1.6-0.2-1.7c-0.1-0.3-0.2-0.4-0.5-0.4h-0.9v2.1h-1L217.5,376.6L217.5,376.6z M218.5,378.9h0.8c0.7,0,0.8-0.5,0.8-0.7
	c0-0.7-0.5-0.7-0.8-0.7h-0.8V378.9z"/>
<path class="st0" d="M-72.6,459.9c0.7-0.1,1.2-0.1,1.4-0.3c0.5-0.2,0.8-0.7,1-1.4l3.4-12.2c-1.8,0-2.9,0.1-3.5,0.4s-1.2,1.1-2,2.4
	l-0.4-0.1l1-3.6h12.3l-1,3.8l-0.4-0.1l0.1-0.8c0-0.7-0.2-1.2-0.5-1.6c-0.3-0.3-1-0.5-1.9-0.5h-1.3l-3.2,11.5
	c-0.1,0.2-0.1,0.5-0.2,0.7c-0.1,0.3-0.1,0.5-0.1,0.7c0,0.5,0.1,0.7,0.4,0.8s0.8,0.2,1.6,0.2v0.4h-6.7V459.9z"/>
<path class="st0" d="M-58.4,445.1c0.5-0.1,0.9-0.1,1.2-0.2c0.3,0,0.6-0.1,0.8-0.1c0.9-0.2,1.4-0.3,1.4-0.3c0.1,0,0.1,0,0.2,0
	s0.1,0.1,0.1,0.2l-2.8,10.1c0.9-1.4,1.7-2.4,2.3-3.1c1-1.1,2-1.7,2.9-1.7c0.4,0,0.7,0.1,1,0.3c0.3,0.2,0.5,0.6,0.5,1.2
	c0,0.1,0,0.3-0.1,0.6c0,0.2-0.1,0.4-0.1,0.6l-1.5,5.4c0,0.2-0.1,0.3-0.1,0.4c0,0.1,0,0.3,0,0.4s0,0.2,0.1,0.3
	c0.1,0.1,0.1,0.1,0.3,0.1c0.2,0,0.5-0.2,0.8-0.5c0.2-0.2,0.6-0.6,1.1-1.3l0.3,0.3c-0.5,0.8-1,1.4-1.4,1.7c-0.7,0.6-1.3,1-2,1
	c-0.3,0-0.6-0.1-0.8-0.3c-0.2-0.2-0.3-0.5-0.3-0.8c0-0.1,0-0.2,0-0.3c0-0.1,0-0.2,0.1-0.3l1.7-6.6c0-0.1,0-0.1,0-0.2
	c0-0.1,0-0.1,0-0.2c0-0.2-0.1-0.3-0.2-0.4s-0.3-0.2-0.5-0.2c-0.5,0-1.1,0.4-1.9,1.2s-1.4,1.6-1.9,2.5c-0.4,0.6-0.6,1.2-0.8,1.7
	c-0.2,0.5-0.5,1.7-1.1,3.6h-1.7l3.8-13.7c0-0.1,0-0.2,0-0.2c0-0.1,0-0.1,0-0.2c0-0.3-0.1-0.5-0.3-0.6c-0.2-0.1-0.6-0.1-1.2-0.1
	L-58.4,445.1L-58.4,445.1z"/>
<path class="st0" d="M-46.6,452.4c1.5-1.6,3-2.3,4.6-2.3c0.6,0,1.1,0.1,1.4,0.4s0.5,0.7,0.5,1.2c0,1.1-0.6,2-1.9,2.8s-2.6,1.2-4,1.4
	l-0.6,0.1c-0.1,0.3-0.2,0.6-0.2,0.7c0,0.2-0.1,0.4-0.1,0.7c0,0.7,0.2,1.2,0.7,1.5c0.4,0.4,0.9,0.5,1.5,0.5s1.2-0.2,1.8-0.6
	c0.4-0.2,0.9-0.6,1.6-1.2l0.3,0.3c-0.3,0.4-0.8,0.9-1.5,1.3c-1.1,0.8-2.3,1.2-3.4,1.2c-0.8,0-1.5-0.3-2.1-0.8
	c-0.6-0.6-0.9-1.4-0.9-2.4C-48.9,455.6-48.1,453.9-46.6,452.4z M-43,453.9c0.9-0.8,1.4-1.6,1.4-2.4c0-0.3-0.1-0.5-0.2-0.7
	s-0.3-0.3-0.6-0.3c-0.5,0-1,0.2-1.4,0.6c-0.5,0.4-0.9,0.9-1.3,1.4c-0.4,0.6-0.7,1.2-1,1.8c-0.1,0.3-0.3,0.6-0.4,1
	C-45,455.2-43.9,454.7-43,453.9z"/>
<path class="st0" d="M-28.7,450v0.1c0,0.1,0,0.1,0,0.2l-1.1,4.4l0.2-0.5c0.5-1.1,1.2-2,1.9-2.9c0.7-0.9,1.4-1.3,2.1-1.3
	c0.4,0,0.6,0.1,0.8,0.3c0.2,0.2,0.3,0.5,0.3,0.8s-0.1,0.6-0.3,0.8c-0.2,0.2-0.5,0.3-0.8,0.3c-0.2,0-0.4,0-0.5-0.1s-0.2-0.2-0.3-0.3
	l-0.1-0.2l-0.1-0.1c0,0-0.1,0-0.2,0c-0.3,0-0.7,0.4-1.3,1.2c-0.6,0.8-1.1,1.7-1.5,2.7c-0.3,0.6-0.6,1.4-0.9,2.3
	c-0.2,0.6-0.5,1.5-0.8,2.6H-33l1.9-6.8c0.1-0.4,0.2-0.7,0.3-1c0.1-0.3,0.1-0.6,0.1-0.8c0-0.2-0.1-0.4-0.2-0.5
	c-0.1-0.1-0.3-0.2-0.6-0.2c-0.1,0-0.2,0-0.3,0c-0.1,0-0.3,0-0.5,0.1v-0.5l0.5-0.1c0.6-0.1,1.2-0.2,1.9-0.4
	C-29.2,450-28.8,449.9-28.7,450C-28.7,450-28.7,450-28.7,450z"/>
<path class="st0" d="M-19.3,450C-19.3,450-19.3,450.1-19.3,450l-2.2,8.2c-0.1,0.4-0.2,0.7-0.2,0.8s0,0.2,0.1,0.3
	c0,0.1,0.1,0.1,0.3,0.1c0.3,0,0.6-0.2,1-0.7c0.3-0.3,0.6-0.6,0.9-1.1l0.3,0.2l-0.1,0.2c-0.6,0.8-1,1.4-1.4,1.7
	c-0.6,0.5-1.2,0.8-1.7,0.8c-0.3,0-0.6-0.1-0.8-0.4c-0.2-0.3-0.3-0.6-0.3-1c0-0.2,0-0.4,0-0.6s0.1-0.4,0.2-0.7l1.6-5.8
	c0-0.1,0-0.2,0.1-0.2c0-0.1,0-0.1,0-0.2c0-0.3-0.1-0.4-0.3-0.5C-22,451-22.4,451-23,451v-0.4c0.6-0.1,1.1-0.1,1.3-0.2
	c0.3,0,0.5-0.1,0.8-0.1c0.4-0.1,0.7-0.1,1-0.2C-19.5,450-19.4,450-19.3,450z M-20.4,447.2c-0.2-0.2-0.3-0.5-0.3-0.9
	c0-0.3,0.1-0.6,0.3-0.9c0.2-0.2,0.5-0.4,0.8-0.4s0.6,0.1,0.8,0.4c0.2,0.2,0.3,0.5,0.3,0.9c0,0.3-0.1,0.6-0.3,0.9
	c-0.2,0.2-0.5,0.4-0.8,0.4C-19.9,447.5-20.2,447.4-20.4,447.2z"/>
<path class="st0" d="M-17.3,456.9h0.4c0.2,0.9,0.4,1.6,0.6,2c0.4,0.8,1,1.2,1.9,1.2c0.5,0,0.9-0.2,1.2-0.5c0.3-0.3,0.5-0.8,0.5-1.3
	c0-0.3,0-0.6-0.1-0.8s-0.2-0.4-0.3-0.6l-0.9-1.4c-0.6-0.8-0.9-1.4-1.1-1.7c-0.2-0.4-0.3-0.9-0.3-1.3c0-0.7,0.2-1.2,0.7-1.7
	s1.1-0.8,2-0.8c0.4,0,0.8,0.1,1.3,0.2c0.5,0.1,0.8,0.2,1,0.2s0.3,0,0.4-0.1s0.2-0.2,0.2-0.3h0.3l-0.5,3.2h-0.4
	c-0.1-0.7-0.2-1.3-0.4-1.6c-0.4-0.7-0.9-1-1.7-1c-0.3,0-0.6,0.1-0.9,0.3c-0.3,0.2-0.4,0.5-0.4,0.9c0,0.3,0.1,0.6,0.2,0.8
	s0.4,0.7,0.8,1.2l0.8,1.2c0.4,0.6,0.7,1.1,0.9,1.5c0.2,0.4,0.3,0.8,0.3,1.2c0,0.8-0.3,1.5-1,2c-0.7,0.6-1.5,0.8-2.5,0.8
	c-0.3,0-0.7-0.1-1.3-0.2c-0.6-0.1-0.9-0.2-1-0.2s-0.3,0-0.3,0.1c-0.1,0.1-0.1,0.2-0.2,0.3h-0.4L-17.3,456.9z"/>
<path class="st0" d="M-3.9,450C-3.9,450-3.8,450.1-3.9,450l-2.2,8.2c-0.1,0.4-0.2,0.7-0.2,0.8s0,0.2,0.1,0.3c0,0.1,0.1,0.1,0.3,0.1
	c0.3,0,0.6-0.2,1-0.7c0.3-0.3,0.6-0.6,0.9-1.1l0.3,0.2l-0.1,0.2c-0.6,0.8-1,1.4-1.4,1.7c-0.6,0.5-1.1,0.8-1.7,0.8
	c-0.3,0-0.6-0.1-0.8-0.4c-0.2-0.3-0.3-0.6-0.3-1c0-0.2,0-0.4,0-0.6s0.1-0.4,0.2-0.7l1.6-5.8c0-0.1,0-0.2,0.1-0.2c0-0.1,0-0.1,0-0.2
	c0-0.3-0.1-0.4-0.3-0.5C-6.6,451-7,451-7.6,451v-0.4c0.6-0.1,1.1-0.1,1.3-0.2c0.3,0,0.5-0.1,0.8-0.1c0.4-0.1,0.7-0.1,1-0.2
	C-4.1,450-3.9,450-3.9,450z M-5,447.2c-0.2-0.2-0.3-0.5-0.3-0.9c0-0.3,0.1-0.6,0.3-0.9c0.2-0.2,0.5-0.4,0.8-0.4s0.6,0.1,0.8,0.4
	c0.2,0.2,0.3,0.5,0.3,0.9c0,0.3-0.1,0.6-0.3,0.9c-0.2,0.2-0.5,0.4-0.8,0.4C-4.5,447.5-4.8,447.4-5,447.2z"/>
<path class="st0" d="M-2.3,460.2l1.9-7c0.2-0.6,0.3-1,0.3-1.1s0-0.3,0-0.4c0-0.2-0.1-0.4-0.2-0.5c-0.1-0.1-0.4-0.2-0.7-0.2
	c-0.1,0-0.2,0-0.3,0s-0.2,0-0.3,0v-0.4c0.5-0.1,0.8-0.1,1-0.2c0.2,0,0.4-0.1,0.7-0.1l2-0.4l0.1,0.1l-1.5,4.8
	c0.9-1.4,1.7-2.5,2.3-3.1c1.1-1.2,2.1-1.8,2.9-1.8c0.3,0,0.6,0.1,0.9,0.2c0.5,0.2,0.7,0.7,0.7,1.3c0,0.2,0,0.4-0.1,0.6
	c0,0.2-0.1,0.4-0.1,0.6L5.8,458c0,0.1-0.1,0.2-0.1,0.4s-0.1,0.3-0.1,0.3c0,0.1,0,0.2,0.1,0.3s0.1,0.1,0.3,0.1s0.4-0.1,0.7-0.3
	c0.2-0.2,0.6-0.7,1.2-1.5l0.3,0.3c-0.6,0.8-1.1,1.4-1.4,1.8c-0.6,0.6-1.2,0.9-1.7,0.9c-0.3,0-0.5-0.1-0.7-0.3s-0.3-0.5-0.3-0.9
	c0-0.1,0-0.3,0-0.4s0-0.3,0.1-0.4l1.5-5.5c0.1-0.3,0.1-0.5,0.2-0.7c0-0.2,0-0.3,0-0.4c0-0.2,0-0.3-0.1-0.5c-0.1-0.1-0.2-0.2-0.5-0.2
	c-0.6,0-1.3,0.5-2.2,1.5c-0.5,0.6-1,1.3-1.6,2.2c-0.4,0.6-0.7,1.3-0.9,1.9c-0.2,0.6-0.6,1.7-1.1,3.4h-1.8V460.2z"/>
<path class="st0" d="M9.7,460.9c0.4-0.5,1.1-1,2.1-1.5c-0.2-0.1-0.3-0.2-0.5-0.4c-0.1-0.1-0.2-0.3-0.2-0.5c0-0.3,0.2-0.7,0.6-1.1
	c0.2-0.2,0.6-0.5,1.2-0.9c-0.5-0.2-0.9-0.4-1.2-0.8c-0.4-0.4-0.6-1-0.6-1.7c0-1.1,0.4-2.1,1.3-2.8c0.9-0.8,2-1.1,3.3-1.1
	c0.7,0,1.3,0.1,1.7,0.3c0.5,0.2,0.8,0.4,0.8,0.5h1.5v0.9h-1.1c0,0.2,0.1,0.3,0.1,0.4c0,0.1,0,0.3,0,0.6c0,1.2-0.5,2.2-1.4,2.9
	c-0.9,0.7-2,1.1-3.1,1.1c-0.1,0-0.2,0-0.3,0s-0.2,0-0.4-0.1c-0.1,0-0.3,0.1-0.5,0.3s-0.3,0.4-0.3,0.6c0,0.3,0.8,0.7,2.5,1.3
	c1.7,0.6,2.5,1.5,2.5,2.7c0,0.9-0.4,1.7-1.2,2.4s-2.1,1-3.8,1c-1.2,0-2.1-0.2-2.8-0.7s-1-1.1-1-1.8C9,461.9,9.3,461.4,9.7,460.9z
	 M15.5,463.9c0.6-0.4,0.9-0.9,0.9-1.5c0-0.5-0.2-0.8-0.5-1.1c-0.2-0.2-0.4-0.3-0.8-0.5c-0.3-0.2-0.8-0.4-1.6-0.6
	c-0.7-0.3-1.2-0.4-1.3-0.4c-0.2,0-0.6,0.3-1.1,0.8c-0.6,0.5-0.8,1.1-0.8,1.8c0,1,0.4,1.7,1.3,2.1c0.5,0.2,1,0.3,1.7,0.3
	C14.2,464.6,14.9,464.4,15.5,463.9z M13.1,455.6c0.2,0.5,0.7,0.7,1.3,0.7c0.7,0,1.3-0.4,1.8-1.3c0.5-0.9,0.8-1.8,0.8-2.9
	c0-0.5-0.1-0.9-0.3-1.2c-0.2-0.3-0.5-0.4-1-0.4c-0.8,0-1.5,0.4-2,1.4c-0.5,0.9-0.8,1.8-0.8,2.6C12.9,454.9,12.9,455.3,13.1,455.6z"
	/>
<path class="st0" d="M27.7,455.6c0.4,1,0.8,1.9,1.4,2.5c0.9,1.1,2,1.6,3.4,1.6c0.7,0,1.4-0.2,1.9-0.7s0.8-1.1,0.8-2
	c0-0.8-0.3-1.4-0.8-2c-0.4-0.4-1.1-0.9-2.2-1.6l-2-1.2c-0.6-0.4-1.1-0.8-1.4-1.1c-0.6-0.7-1-1.5-1-2.4c0-1.2,0.4-2.1,1.2-2.9
	c0.8-0.8,1.8-1.2,3.1-1.2c0.5,0,1.2,0.1,1.9,0.4c0.7,0.2,1.2,0.4,1.3,0.4c0.3,0,0.5-0.1,0.6-0.2c0.1-0.1,0.2-0.3,0.3-0.6h0.5
	l0.5,4.9h-0.5c-0.4-1.5-1-2.5-1.8-3.1s-1.7-0.9-2.5-0.9c-0.6,0-1.2,0.2-1.7,0.6S30,447,30,447.7c0,0.6,0.2,1.1,0.5,1.5
	c0.4,0.4,0.9,0.9,1.7,1.4l2,1.3c1.3,0.8,2.2,1.5,2.7,2.2s0.8,1.4,0.8,2.3c0,1.2-0.5,2.2-1.4,3c-0.9,0.8-2.1,1.2-3.5,1.2
	c-0.7,0-1.5-0.1-2.2-0.4c-0.8-0.3-1.2-0.4-1.3-0.4c-0.3,0-0.5,0.1-0.5,0.3c-0.1,0.2-0.2,0.4-0.2,0.6h-0.5l-0.7-4.9h0.3V455.6z"/>
<path class="st0" d="M38.5,444.9h13.1l0.1,3.9h-0.5c-0.3-1.2-0.6-2-1-2.4c-0.4-0.4-1.3-0.6-2.7-0.6h-1.3v11.8c0,0.9,0.1,1.4,0.4,1.7
	c0.3,0.2,0.9,0.4,1.8,0.4v0.4h-6.7v-0.4c1-0.1,1.6-0.2,1.9-0.5c0.2-0.2,0.4-0.9,0.4-1.9v-11.6h-1.3c-1.3,0-2.2,0.2-2.6,0.6
	c-0.5,0.4-0.8,1.2-1,2.4h-0.6L38.5,444.9z"/>
<path class="st0" d="M51.3,460.2v-0.4c0.6-0.1,1-0.3,1.3-0.7c0.3-0.4,0.8-1.4,1.5-3.1l4.8-11.3h0.5l5.7,13.1
	c0.4,0.9,0.7,1.4,0.9,1.6s0.6,0.3,1.2,0.4v0.4h-5.9v-0.4c0.7-0.1,1.1-0.1,1.3-0.2c0.2-0.1,0.3-0.3,0.3-0.6c0-0.1,0-0.3-0.1-0.6
	c-0.1-0.3-0.2-0.6-0.3-0.9l-0.9-2.2h-6.1c-0.6,1.5-1,2.4-1.1,2.8c-0.1,0.3-0.2,0.6-0.2,0.8c0,0.4,0.2,0.7,0.5,0.8
	c0.2,0.1,0.6,0.2,1.1,0.2v0.4h-4.5V460.2z M61.3,454.3l-2.7-6.4l-2.7,6.4H61.3z"/>
<path class="st0" d="M68.9,459.8c0.9-0.1,1.4-0.3,1.7-0.5c0.2-0.3,0.3-0.9,0.3-1.8v-10c0-0.8-0.1-1.3-0.4-1.6
	c-0.2-0.3-0.8-0.4-1.6-0.5V445h6.4c1.3,0,2.4,0.2,3.3,0.5c1.7,0.6,2.5,1.8,2.5,3.5c0,1.2-0.4,2-1.1,2.7c-0.7,0.6-1.8,1-3,1.2
	l4.8,5.9c0.3,0.4,0.6,0.6,0.9,0.8c0.3,0.2,0.7,0.3,1.1,0.3v0.4h-3.7l-5.8-7.1l-1,0.1v4.6c0,0.8,0.1,1.4,0.4,1.6
	c0.3,0.2,0.8,0.4,1.7,0.5v0.4H69L68.9,459.8L68.9,459.8z M76.8,451.8c1.2-0.5,1.8-1.5,1.8-2.9c0-1.3-0.5-2.3-1.6-2.8
	c-0.6-0.3-1.4-0.4-2.3-0.4c-0.7,0-1.1,0.1-1.2,0.1c-0.2,0.1-0.2,0.3-0.2,0.7v5.7C74.9,452.3,76.1,452.1,76.8,451.8z"/>
<path class="st0" d="M99.9,451c0.5,0.7,0.8,1.5,0.8,2.4c0,1.6-0.7,3.2-2.1,4.7c-1.4,1.6-3,2.4-4.6,2.4c-1,0-1.9-0.3-2.5-0.9
	c-0.6-0.6-0.9-1.5-0.9-2.5c0-1.7,0.7-3.2,2.1-4.7c1.4-1.5,3-2.3,4.6-2.3C98.5,450,99.4,450.3,99.9,451z M92.9,459.4
	c0.3,0.4,0.8,0.6,1.4,0.6c1.2,0,2.3-0.9,3.3-2.8c0.8-1.6,1.2-3.1,1.2-4.4c0-0.6-0.1-1-0.2-1.4c-0.3-0.7-0.7-1-1.4-1
	c-1.2,0-2.2,0.9-3.2,2.6c-0.9,1.6-1.4,3.2-1.4,4.8C92.4,458.5,92.6,459,92.9,459.4z"/>
<path class="st0" d="M111,446.7c-0.2,0.2-0.4,0.3-0.7,0.3s-0.5-0.1-0.6-0.2c-0.2-0.2-0.2-0.4-0.2-0.6c0-0.1,0.1-0.4,0.2-0.8
	c0-0.1,0-0.2-0.1-0.3s-0.2-0.1-0.3-0.1c-0.6,0-1,0.6-1.4,1.8c-0.2,0.7-0.5,1.9-0.7,3.5h2.5l-0.2,0.8h-2.6l-2.2,7.4
	c-0.5,1.9-1.1,3.5-1.8,4.7c-0.8,1.2-1.8,1.8-3,1.8c-0.5,0-1-0.1-1.4-0.4c-0.4-0.3-0.5-0.6-0.5-1c0-0.2,0.1-0.4,0.2-0.6
	c0.1-0.2,0.4-0.3,0.7-0.3s0.5,0.1,0.7,0.3s0.3,0.4,0.3,0.6c0,0.1,0,0.3-0.1,0.4c-0.1,0.1-0.1,0.2-0.1,0.3c0,0.1,0,0.1,0.1,0.2
	c0.1,0,0.2,0.1,0.3,0.1c0.6,0,1.2-0.5,1.6-1.5c0.2-0.5,0.4-1.2,0.6-2.2l2.7-9.7h-2.1l0.2-0.8h2.2c0.4-1.8,0.9-3,1.4-3.9
	c0.8-1.3,1.7-1.9,2.8-1.9c0.5,0,0.9,0.1,1.3,0.4c0.3,0.3,0.5,0.6,0.5,1C111.2,446.2,111.1,446.4,111,446.7z"/>
<path class="st0" d="M115,459.9c0.7-0.1,1.2-0.1,1.4-0.3c0.5-0.2,0.8-0.7,1-1.4l3.4-12.2c-1.8,0-2.9,0.1-3.5,0.4s-1.2,1.1-2,2.4
	l-0.4-0.1l1-3.6h12.3l-1,3.8l-0.4-0.1l0.1-0.8c0-0.7-0.2-1.2-0.5-1.6c-0.3-0.3-1-0.5-1.9-0.5h-1.3l-3.2,11.5
	c-0.1,0.2-0.1,0.5-0.2,0.7c-0.1,0.3-0.1,0.5-0.1,0.7c0,0.5,0.1,0.7,0.4,0.8c0.3,0.1,0.8,0.2,1.6,0.2v0.4H115L115,459.9L115,459.9z"
	/>
<path class="st0" d="M127.4,452.4c1.5-1.6,3-2.3,4.6-2.3c0.6,0,1.1,0.1,1.4,0.4s0.5,0.7,0.5,1.2c0,1.1-0.6,2-1.9,2.8s-2.6,1.2-4,1.4
	l-0.6,0.1c-0.1,0.3-0.2,0.6-0.2,0.7c0,0.2-0.1,0.4-0.1,0.7c0,0.7,0.2,1.2,0.7,1.5c0.4,0.4,0.9,0.5,1.5,0.5s1.2-0.2,1.8-0.6
	c0.4-0.2,0.9-0.6,1.6-1.2l0.3,0.3c-0.3,0.4-0.8,0.9-1.5,1.3c-1.1,0.8-2.3,1.2-3.4,1.2c-0.8,0-1.5-0.3-2.1-0.8
	c-0.6-0.6-0.9-1.4-0.9-2.4C125.1,455.6,125.9,453.9,127.4,452.4z M131,453.9c0.9-0.8,1.4-1.6,1.4-2.4c0-0.3-0.1-0.5-0.2-0.7
	s-0.3-0.3-0.6-0.3c-0.5,0-1,0.2-1.4,0.6c-0.5,0.4-0.9,0.9-1.3,1.4c-0.4,0.6-0.7,1.2-1,1.8c-0.1,0.3-0.3,0.6-0.4,1
	C128.9,455.2,130.1,454.7,131,453.9z"/>
<path class="st0" d="M134.3,458.9c0.2-0.1,0.4-0.2,0.6-0.2c0.1,0,0.2,0,0.3,0c0.1,0,0.2,0.1,0.3,0.1l0.4,0.2c0.1,0,0.1,0,0.2,0.1
	c0,0,0.1,0,0.2,0c0.2,0,0.3,0,0.4-0.1c0.1-0.1,0.4-0.4,0.8-1c0.3-0.4,0.9-1.3,1.9-2.7c0-0.1-0.1-0.5-0.3-1.2
	c-0.2-0.8-0.3-1.4-0.5-1.9c-0.1-0.5-0.3-0.9-0.4-1.1s-0.3-0.3-0.6-0.3c-0.1,0-0.3,0-0.6,0.1c-0.2,0-0.4,0.1-0.6,0.2l-0.1-0.4
	l1.2-0.4c0.3-0.1,0.6-0.2,0.9-0.3s0.5-0.1,0.7-0.1c0.3,0,0.6,0.1,0.7,0.3c0.2,0.3,0.4,0.9,0.6,1.8l0.2,1.3c0.7-1,1.2-1.8,1.6-2.2
	c0.3-0.4,0.7-0.7,1-0.9s0.6-0.3,0.9-0.3s0.5,0,0.6,0.1c0.3,0.1,0.4,0.4,0.4,0.8c0,0.3-0.1,0.5-0.2,0.6s-0.3,0.2-0.6,0.2
	c-0.1,0-0.2,0-0.2,0c-0.1,0-0.2,0-0.2-0.1l-0.3-0.1c-0.1,0-0.2-0.1-0.2-0.1c-0.1,0-0.1,0-0.2,0c-0.3,0-0.8,0.4-1.4,1.3
	c-0.6,0.9-0.9,1.4-0.9,1.5s0.1,0.5,0.2,1.1s0.3,1.3,0.5,2s0.3,1.1,0.4,1.3c0.2,0.4,0.4,0.6,0.6,0.6s0.4-0.1,0.6-0.3s0.5-0.6,1-1.2
	l0.3,0.2c-0.3,0.6-0.7,1.1-1,1.5c-0.7,0.8-1.3,1.2-1.9,1.2c-0.4,0-0.7-0.2-0.9-0.5c-0.1-0.2-0.3-0.6-0.4-1l-0.7-2.8l-2.3,3
	c-0.5,0.5-0.8,0.9-1,1.1s-0.5,0.3-0.9,0.3c-0.5,0-0.8-0.1-1-0.5c-0.1-0.2-0.1-0.3-0.1-0.6C134,459.2,134.1,459,134.3,458.9z"/>
<path class="st0" d="M153.4,450.4c0.2,0.2,0.3,0.4,0.4,0.6l0.1,0.2l0.3-0.8c0-0.1,0.1-0.2,0.1-0.2s0.1-0.1,0.2-0.1l1.3-0.1
	c0.1,0,0.1,0,0.1,0v0.1c0,0.1-0.1,0.2-0.1,0.2c0,0.1,0,0.1-0.1,0.2l-1.1,4c-0.2,0.9-0.5,1.6-0.6,2.3c-0.3,1.1-0.4,1.8-0.4,2
	c0,0.1,0,0.2,0.1,0.2s0.1,0.1,0.2,0.1s0.1,0,0.2-0.1c0.1,0,0.2-0.1,0.3-0.2l0.2-0.2c0.1-0.1,0.1-0.1,0.2-0.2
	c0.1-0.1,0.2-0.2,0.3-0.3l0.7-0.7l0.3,0.2c-0.8,1-1.5,1.7-1.9,2c-0.5,0.4-1,0.5-1.4,0.5c-0.3,0-0.5-0.1-0.7-0.3
	c-0.2-0.2-0.2-0.4-0.2-0.7s0.1-0.7,0.1-1.2c0.1-0.5,0.2-0.9,0.3-1.3c-0.1,0.2-0.4,0.6-0.7,1c-0.3,0.4-0.7,0.9-1.2,1.3
	c-0.6,0.5-1.1,0.8-1.6,1c-0.4,0.1-0.8,0.2-1.1,0.2c-0.6,0-1.2-0.2-1.7-0.8c-0.5-0.5-0.7-1.2-0.7-2.1c0-1.6,0.7-3.2,2.1-4.9
	c1.5-1.8,3-2.7,4.6-2.7C152.6,450,153.1,450.1,153.4,450.4z M153,450.8c-0.2-0.3-0.5-0.4-0.9-0.4c-1.2,0-2.4,0.9-3.4,2.8
	c-0.9,1.7-1.4,3.1-1.4,4.3c0,0.6,0.1,1.1,0.4,1.3c0.3,0.3,0.6,0.4,1,0.4c1.1,0,2.2-0.9,3.3-2.8c1-1.7,1.5-3.2,1.5-4.5
	C153.4,451.5,153.3,451.1,153,450.8z"/>
<path class="st0" d="M157.3,456.9h0.4c0.2,0.9,0.4,1.6,0.6,2c0.4,0.8,1,1.2,1.9,1.2c0.5,0,0.8-0.2,1.2-0.5c0.3-0.3,0.5-0.8,0.5-1.3
	c0-0.3,0-0.6-0.1-0.8s-0.2-0.4-0.3-0.6l-0.9-1.4c-0.6-0.8-0.9-1.4-1.1-1.7c-0.2-0.4-0.3-0.9-0.3-1.3c0-0.7,0.2-1.2,0.7-1.7
	s1.1-0.8,2-0.8c0.4,0,0.8,0.1,1.3,0.2c0.5,0.1,0.8,0.2,1,0.2s0.3,0,0.4-0.1s0.2-0.2,0.2-0.3h0.3l-0.5,3.2h-0.5
	c-0.1-0.7-0.2-1.3-0.4-1.6c-0.4-0.7-0.9-1-1.7-1c-0.3,0-0.6,0.1-0.9,0.3c-0.3,0.2-0.4,0.5-0.4,0.9c0,0.3,0.1,0.6,0.2,0.8
	s0.4,0.7,0.8,1.2l0.8,1.2c0.4,0.6,0.7,1.1,0.9,1.5c0.2,0.4,0.3,0.8,0.3,1.2c0,0.8-0.3,1.5-1,2c-0.7,0.6-1.5,0.8-2.5,0.8
	c-0.3,0-0.8-0.1-1.3-0.2c-0.6-0.1-0.9-0.2-1-0.2s-0.3,0-0.3,0.1c-0.1,0.1-0.1,0.2-0.2,0.3H157L157.3,456.9z"/>
<g>
	<path class="st0" d="M-57.9,392.3v0.7c-1.4,0.1-2.3,0.3-2.8,0.7c-0.4,0.4-0.6,1.2-0.6,2.6v11.8c0,1.9,0.3,3.4,0.8,4.5
		c1,2,2.9,3,5.6,3c3,0,5-1,6.1-3c0.6-1.1,0.9-2.9,0.9-5.2v-9.6c0-2-0.2-3.3-0.7-3.8s-1.4-0.8-2.7-1v-0.7h8.4v0.7
		c-1.4,0.2-2.4,0.5-2.8,1s-0.7,1.8-0.7,3.7v9.6c0,2.5-0.4,4.5-1.2,6c-1.4,2.6-4.2,3.9-8.2,3.9s-6.7-1.3-8.1-3.9
		c-0.8-1.4-1.2-3.2-1.2-5.5v-11.5c0-1.3-0.2-2.2-0.6-2.6c-0.4-0.4-1.3-0.6-2.7-0.7v-0.7H-57.9z"/>
	<path class="st0" d="M-40.3,416c1.5-0.2,2.5-0.5,2.9-1s0.6-1.8,0.6-3.7V395l-0.5-0.6c-0.5-0.6-1-1-1.4-1.2
		c-0.4-0.1-0.9-0.2-1.7-0.3v-0.7h6.3l14.3,17.7v-12.3c0-2-0.3-3.3-0.9-3.9c-0.4-0.4-1.3-0.6-2.6-0.8v-0.7h8.7v0.7
		c-1.4,0.1-2.3,0.5-2.8,1s-0.7,1.8-0.7,3.7V417h-0.6L-35,396.8v14.4c0,2,0.3,3.3,0.9,3.9c0.4,0.4,1.2,0.7,2.6,0.8v0.7h-8.7V416
		H-40.3z"/>
	<path class="st0" d="M-11.9,416c1.5-0.1,2.5-0.3,2.9-0.7c0.4-0.3,0.7-1.2,0.7-2.6v-16.4c0-1.4-0.2-2.2-0.7-2.6
		c-0.4-0.4-1.4-0.6-2.9-0.7v-0.7H-1v0.7c-1.5,0.1-2.5,0.3-2.9,0.7s-0.7,1.3-0.7,2.6v16.4c0,1.4,0.2,2.3,0.7,2.6
		c0.4,0.3,1.4,0.6,2.9,0.7v0.7h-10.9V416z"/>
	<path class="st0" d="M11.7,392.3v0.6c-0.9,0-1.6,0.1-1.9,0.2c-0.6,0.2-0.9,0.6-0.9,1.2c0,0.3,0.1,0.7,0.3,1.3
		c0.2,0.5,0.6,1.5,1.2,2.7l5.8,12.9l5.2-13.9c0.2-0.6,0.4-1.1,0.5-1.6c0.1-0.4,0.2-0.8,0.2-1c0-0.7-0.3-1.2-0.9-1.5
		c-0.4-0.1-1-0.2-1.8-0.3v-0.6H27v0.6c-0.8,0.1-1.4,0.3-1.7,0.6c-0.6,0.5-1.1,1.4-1.7,2.8l-8.2,20.8h-0.6l-9.1-20.3
		c-0.8-1.7-1.4-2.8-1.8-3.2c-0.5-0.4-1.1-0.7-2-0.7v-0.6C1.9,392.3,11.7,392.3,11.7,392.3z"/>
	<path class="st0" d="M29.7,416c1.4-0.1,2.2-0.4,2.6-0.7c0.4-0.3,0.6-1.2,0.6-2.6v-16.4c0-1.3-0.2-2.2-0.6-2.6
		c-0.4-0.4-1.3-0.7-2.6-0.7v-0.7h19.6l0.1,5.3h-0.9c-0.3-1.6-0.8-2.7-1.4-3.2c-0.6-0.5-2-0.7-4.2-0.7h-5c-0.5,0-0.9,0.1-1,0.3
		c-0.1,0.2-0.2,0.5-0.2,1v8.2h5.7c1.6,0,2.6-0.2,3-0.7s0.8-1.4,1-2.8h0.9v8.5h-0.9c-0.3-1.4-0.6-2.4-1.1-2.8c-0.4-0.5-1.4-0.7-3-0.7
		h-5.7v9.1c0,0.7,0.2,1.2,0.7,1.3c0.5,0.1,1.8,0.2,4.2,0.2c2.5,0,4.4-0.3,5.5-0.8c1.2-0.5,2.3-1.9,3.2-4h1l-1.7,6.2h-20V416H29.7z"
		/>
	<path class="st0" d="M53.9,416c1.4-0.1,2.3-0.4,2.7-0.8c0.3-0.4,0.5-1.4,0.5-2.9v-16c0-1.3-0.2-2.1-0.6-2.6
		c-0.4-0.4-1.3-0.7-2.6-0.8v-0.7h10.2c2.1,0,3.9,0.3,5.3,0.8c2.7,1,4,2.9,4,5.6c0,1.8-0.6,3.2-1.8,4.2s-2.8,1.6-4.9,1.9l7.6,9.4
		c0.5,0.6,0.9,1,1.4,1.2c0.5,0.3,1.1,0.4,1.8,0.5v0.7h-5.9l-9.2-11.4l-1.6,0.1v7.3c0,1.4,0.2,2.2,0.6,2.6c0.4,0.4,1.3,0.6,2.7,0.7
		v0.7H53.8L53.9,416L53.9,416z M66.5,403.2c2-0.8,2.9-2.3,2.9-4.5c0-2.1-0.9-3.6-2.6-4.4c-0.9-0.4-2.2-0.6-3.7-0.6
		c-1,0-1.7,0.1-1.9,0.2c-0.2,0.2-0.4,0.5-0.4,1.1v9.1C63.5,404,65.4,403.7,66.5,403.2z"/>
	<path class="st0" d="M80,409.3c0.6,1.7,1.4,3,2.2,4c1.5,1.7,3.3,2.6,5.5,2.6c1.2,0,2.2-0.4,3.1-1.1c0.9-0.7,1.3-1.8,1.3-3.1
		c0-1.2-0.4-2.2-1.3-3.1c-0.6-0.6-1.8-1.4-3.6-2.5l-3.1-2c-0.9-0.6-1.7-1.2-2.3-1.8c-1-1.2-1.6-2.5-1.6-3.9c0-1.9,0.6-3.4,1.9-4.7
		c1.2-1.2,2.9-1.9,4.9-1.9c0.8,0,1.9,0.2,3,0.6c1.2,0.4,1.9,0.6,2,0.6c0.5,0,0.8-0.1,0.9-0.3c0.2-0.2,0.3-0.5,0.4-0.9h0.8l0.8,7.9
		h-0.8c-0.6-2.4-1.6-4-2.9-5c-1.3-0.9-2.6-1.4-3.9-1.4c-1,0-1.9,0.3-2.6,0.9c-0.8,0.6-1.1,1.4-1.1,2.5c0,0.9,0.3,1.8,0.9,2.4
		c0.6,0.7,1.5,1.4,2.7,2.1l3.2,2c2,1.2,3.5,2.4,4.3,3.4c0.8,1.1,1.2,2.3,1.2,3.7c0,1.9-0.7,3.6-2.2,4.8c-1.5,1.3-3.3,1.9-5.6,1.9
		c-1.1,0-2.3-0.2-3.6-0.6c-1.2-0.4-2-0.7-2.1-0.7c-0.4,0-0.7,0.1-0.9,0.4s-0.2,0.5-0.3,0.8h-0.8l-1.1-7.9H80V409.3z"/>
	<path class="st0" d="M98.4,416c1.5-0.1,2.5-0.3,2.9-0.7c0.4-0.3,0.7-1.2,0.7-2.6v-16.4c0-1.4-0.2-2.2-0.7-2.6
		c-0.4-0.4-1.4-0.6-2.9-0.7v-0.7h10.9v0.7c-1.5,0.1-2.5,0.3-2.9,0.7s-0.7,1.3-0.7,2.6v16.4c0,1.4,0.2,2.3,0.7,2.6
		c0.4,0.3,1.4,0.6,2.9,0.7v0.7H98.4V416z"/>
	<path class="st0" d="M112.2,392.3h20.9l0.2,6.3h-0.9c-0.4-2-1-3.3-1.7-3.8c-0.7-0.6-2.1-0.9-4.2-0.9h-2.1v18.9
		c0,1.4,0.2,2.3,0.7,2.6c0.4,0.3,1.4,0.6,2.9,0.7v0.7h-10.8v-0.7c1.6-0.1,2.5-0.4,2.9-0.8c0.4-0.4,0.6-1.4,0.6-3v-18.5h-2.1
		c-2,0-3.4,0.3-4.2,0.9c-0.7,0.6-1.3,1.9-1.7,3.9h-0.9L112.2,392.3z"/>
	<path class="st0" d="M145.8,392.3v0.7c-0.9,0-1.5,0-1.9,0.2c-0.4,0.2-0.6,0.5-0.6,1c0,0.2,0,0.4,0.1,0.6c0.1,0.2,0.2,0.5,0.5,0.9
		l5.4,8l5.3-8.1c0.2-0.3,0.4-0.6,0.4-0.9c0.1-0.2,0.1-0.4,0.1-0.5c0-0.5-0.3-0.9-0.8-1c-0.3-0.1-0.9-0.2-1.7-0.2v-0.7h8.1v0.7
		c-0.7,0-1.4,0.3-2,0.7c-0.9,0.6-1.9,1.8-3.1,3.6l-5.5,8.3v7.2c0,1.4,0.2,2.3,0.7,2.7s1.5,0.6,3.1,0.7v0.7h-11.3v-0.7
		c1.7-0.1,2.7-0.3,3.1-0.7s0.6-1.4,0.6-3v-6.4l-4.8-7.1c-1.7-2.4-2.8-4-3.5-4.7c-0.7-0.7-1.5-1.1-2.5-1.1v-0.7h10.3V392.3z"/>
</g>
<path class="st0" d="M-115.6,338.8h23.7l0.2,7.1h-1c-0.5-2.2-1.1-3.7-1.9-4.4s-2.4-1-4.8-1h-2.3V362c0,1.6,0.3,2.6,0.8,3
	s1.6,0.6,3.3,0.8v0.8h-12.2v-0.8c1.8-0.1,2.9-0.4,3.3-0.9c0.4-0.4,0.7-1.6,0.7-3.4v-21h-2.4c-2.3,0-3.9,0.3-4.7,1
	c-0.8,0.7-1.5,2.1-1.9,4.4h-1L-115.6,338.8z"/>
<path class="st0" d="M-88.9,365.8c1.5-0.2,2.5-0.4,3-0.8s0.7-1.4,0.7-2.9v-18.8c0-1.5-0.2-2.5-0.7-2.9c-0.5-0.5-1.5-0.7-3-0.9v-0.8
	h22.3l0.1,6h-1.1c-0.4-1.9-0.9-3-1.6-3.6c-0.7-0.5-2.3-0.7-4.7-0.7h-5.7c-0.6,0-1,0.1-1.1,0.3c-0.1,0.2-0.2,0.6-0.2,1.1v9.4h6.5
	c1.8,0,2.9-0.3,3.4-0.8s0.9-1.6,1.2-3.2h1v9.7h-1c-0.3-1.6-0.7-2.7-1.2-3.2s-1.6-0.8-3.4-0.8h-6.5v10.4c0,0.8,0.3,1.3,0.8,1.5
	c0.5,0.2,2.1,0.2,4.7,0.2c2.8,0,5-0.3,6.3-0.9c1.4-0.6,2.6-2.1,3.7-4.5h1.2l-2,7h-22.7V365.8z"/>
<path class="st0" d="M-63.4,365.8c1.1-0.1,2-0.4,2.6-0.9s1.7-1.8,3.5-3.9l6.5-8l-4.6-6.7c-2-2.9-3.4-4.8-4.2-5.5
	c-0.8-0.7-1.9-1.1-3.3-1.2v-0.8h12.6v0.8c-1.2,0-2,0.1-2.4,0.2c-0.6,0.2-0.8,0.6-0.8,1.2c0,0.4,0.1,0.8,0.4,1.4
	c0.1,0.3,0.3,0.6,0.6,0.9l4.3,6.3l4.7-5.7c0.7-0.8,1.2-1.5,1.4-2c0.1-0.3,0.2-0.6,0.2-0.8c0-0.6-0.3-1-0.9-1.2c-0.4-0.1-1-0.2-2-0.2
	v-0.8h10v0.8c-1.1,0-2,0.2-2.6,0.5c-1,0.5-2.2,1.7-3.6,3.5l-6.1,7.6l8,11.5c0.9,1.2,1.6,2,2.1,2.4c0.6,0.3,1.4,0.6,2.5,0.7v0.7
	h-12.4v-0.8c1.2,0,2-0.1,2.5-0.3s0.7-0.5,0.7-1c0-0.4-0.3-1.2-0.9-2.2s-2.3-3.6-5.2-7.7l-4.9,6.2c-0.7,0.9-1.2,1.6-1.5,2
	c-0.4,0.7-0.7,1.2-0.7,1.5c0,0.6,0.4,1,1.1,1.3c0.4,0.2,1.1,0.3,2.1,0.3v0.7h-9.7V365.8z"/>
<path class="st0" d="M-35.1,366.6v-0.8c1.1-0.1,1.9-0.5,2.4-1.2s1.5-2.6,2.8-5.7l8.8-20.6h0.8l10.5,23.8c0.7,1.6,1.3,2.6,1.7,2.9
	c0.4,0.4,1.1,0.6,2.1,0.8v0.8h-10.7v-0.8c1.2-0.1,2-0.2,2.4-0.4c0.4-0.2,0.5-0.5,0.5-1.2c0-0.2-0.1-0.6-0.2-1.1s-0.3-1.1-0.6-1.6
	l-1.7-4h-11.1c-1.1,2.7-1.7,4.4-2,5c-0.2,0.6-0.3,1.1-0.3,1.4c0,0.7,0.3,1.2,0.9,1.5c0.4,0.2,1,0.3,2,0.4v0.8H-35.1z M-17,355.8
	l-4.8-11.6l-4.8,11.6H-17z"/>
<path class="st0" d="M-3.6,358.1c0.7,1.9,1.5,3.4,2.5,4.5c1.7,2,3.7,2.9,6.2,2.9c1.3,0,2.5-0.4,3.5-1.3c1-0.8,1.5-2,1.5-3.6
	c0-1.4-0.5-2.6-1.5-3.6c-0.6-0.6-2-1.6-4.1-2.9l-3.6-2.2c-1.1-0.7-1.9-1.4-2.6-2.1c-1.2-1.3-1.8-2.8-1.8-4.4c0-2.1,0.7-3.9,2.1-5.3
	c1.4-1.4,3.3-2.1,5.6-2.1c1,0,2.1,0.2,3.5,0.7c1.3,0.5,2.1,0.7,2.3,0.7c0.5,0,0.9-0.1,1.1-0.4c0.2-0.2,0.4-0.6,0.5-1h0.9l0.9,8.9h-1
	c-0.7-2.7-1.8-4.6-3.3-5.6c-1.5-1.1-3-1.6-4.5-1.6c-1.1,0-2.2,0.3-3,1c-0.9,0.7-1.3,1.6-1.3,2.8c0,1.1,0.3,2,1,2.8
	c0.7,0.8,1.7,1.6,3.1,2.4l3.7,2.3c2.3,1.4,3.9,2.7,4.9,3.9c0.9,1.2,1.4,2.6,1.4,4.3c0,2.2-0.8,4-2.5,5.5s-3.8,2.2-6.4,2.2
	c-1.3,0-2.7-0.2-4.1-0.7c-1.4-0.5-2.2-0.7-2.4-0.7c-0.5,0-0.8,0.2-1,0.5c-0.2,0.3-0.3,0.6-0.3,1h-0.9l-1.3-8.9
	C-4.5,358.1-3.6,358.1-3.6,358.1z"/>
<path class="st0" d="M80.3,358.1c0.7,1.9,1.5,3.4,2.5,4.5c1.7,2,3.7,2.9,6.2,2.9c1.3,0,2.5-0.4,3.5-1.3c1-0.8,1.5-2,1.5-3.6
	c0-1.4-0.5-2.6-1.5-3.6c-0.6-0.6-2-1.6-4.1-2.9l-3.6-2.2c-1.1-0.7-1.9-1.4-2.6-2.1c-1.2-1.3-1.8-2.8-1.8-4.4c0-2.1,0.7-3.9,2.1-5.3
	c1.4-1.4,3.3-2.1,5.6-2.1c1,0,2.1,0.2,3.5,0.7c1.3,0.5,2.1,0.7,2.3,0.7c0.5,0,0.9-0.1,1.1-0.4c0.2-0.2,0.4-0.6,0.5-1h0.9l0.9,8.9h-1
	c-0.7-2.7-1.8-4.6-3.3-5.6c-1.5-1.1-3-1.6-4.5-1.6c-1.1,0-2.2,0.3-3,1c-0.9,0.7-1.3,1.6-1.3,2.8c0,1.1,0.3,2,1,2.8
	c0.7,0.8,1.7,1.6,3.1,2.4L92,351c2.3,1.4,3.9,2.7,4.9,3.9c0.9,1.2,1.4,2.6,1.4,4.3c0,2.2-0.8,4-2.5,5.5s-3.8,2.2-6.4,2.2
	c-1.3,0-2.7-0.2-4.1-0.7c-1.4-0.5-2.2-0.7-2.4-0.7c-0.5,0-0.8,0.2-1,0.5c-0.2,0.3-0.3,0.6-0.3,1h-0.9l-1.3-8.9
	C79.4,358.1,80.3,358.1,80.3,358.1z"/>
<path class="st0" d="M102.2,338.8H126l0.2,7.1h-1c-0.5-2.2-1.1-3.7-1.9-4.4s-2.4-1-4.8-1h-2.3V362c0,1.6,0.3,2.6,0.8,3
	s1.6,0.6,3.3,0.8v0.8h-12.2v-0.8c1.8-0.1,2.9-0.4,3.3-0.9c0.4-0.4,0.7-1.6,0.7-3.4v-21h-2.4c-2.3,0-3.9,0.3-4.8,1
	c-0.8,0.7-1.5,2.1-1.9,4.4h-1L102.2,338.8z"/>
<path class="st0" d="M126.6,366.6v-0.8c1.1-0.1,1.9-0.5,2.4-1.2s1.5-2.6,2.8-5.7l8.8-20.6h0.8l10.5,23.8c0.7,1.6,1.3,2.6,1.7,2.9
	c0.4,0.4,1.1,0.6,2.1,0.8v0.8H145v-0.8c1.2-0.1,2-0.2,2.4-0.4c0.4-0.2,0.5-0.5,0.5-1.2c0-0.2-0.1-0.6-0.2-1.1s-0.3-1.1-0.6-1.6
	l-1.7-4h-11.1c-1.1,2.7-1.7,4.4-2,5c-0.2,0.6-0.3,1.1-0.3,1.4c0,0.7,0.3,1.2,0.9,1.5c0.4,0.2,1,0.3,2,0.4v0.8H126.6z M144.7,355.8
	l-4.8-11.6l-4.8,11.6H144.7z"/>
<path class="st0" d="M156.1,338.8h23.8l0.2,7.1h-1c-0.5-2.2-1.1-3.7-1.9-4.4s-2.4-1-4.8-1h-2.3V362c0,1.6,0.3,2.6,0.8,3
	s1.6,0.6,3.3,0.8v0.8H162v-0.8c1.8-0.1,2.9-0.4,3.3-0.9c0.4-0.4,0.7-1.6,0.7-3.4v-21h-2.4c-2.3,0-3.9,0.3-4.7,1
	c-0.8,0.7-1.5,2.1-1.9,4.4h-1L156.1,338.8z"/>
<path class="st0" d="M183.4,365.8c1.5-0.2,2.5-0.4,3-0.8s0.7-1.4,0.7-2.9v-18.8c0-1.5-0.2-2.5-0.7-2.9c-0.5-0.5-1.5-0.7-3-0.9v-0.8
	h22.3l0.1,6h-1.1c-0.4-1.9-0.9-3-1.6-3.6c-0.7-0.5-2.3-0.8-4.8-0.8h-5.7c-0.6,0-1,0.1-1.1,0.3s-0.2,0.6-0.2,1.1v9.4h6.5
	c1.8,0,2.9-0.3,3.4-0.8s0.9-1.6,1.2-3.2h1v9.7h-1c-0.3-1.6-0.7-2.7-1.2-3.2s-1.6-0.8-3.4-0.8h-6.5v10.4c0,0.8,0.3,1.3,0.8,1.5
	c0.5,0.2,2.1,0.2,4.7,0.2c2.8,0,5-0.3,6.3-0.9c1.4-0.6,2.6-2.1,3.7-4.5h1.2l-1.9,7.1h-22.7V365.8z"/>
<path class="st0" d="M16.1,350l0.1,0.1l0,0l18.4,13.4v0.1l-7.1,21.7l0.1-0.1l0,0l18.5-13.5l18.5,13.5l-7.1-21.8L76.1,350H53.2l0,0
	l-7.1-21.8L39,350l0,0C39,350,16.1,350,16.1,350z M21,351.5l25.1,8.2l-5.9-8.2l5.9-18.3v26.5l5.9-8.2h19.2l-25.1,8.2l0,0l9.6,3.1
	l5.9,18.3l-15.5-21.4v10.1l-15.5,11.3l15.5-21.4l-9.6,3.1L21,351.5z"/>
</svg>
