<svg xmlns="http://www.w3.org/2000/svg" viewBox="0 0 135 117"><defs><style>.cls-1{fill:#4d4d4d;}.cls-1,.cls-6{opacity:0.75;}.cls-2{fill:#d3d3d3;}.cls-3,.cls-7,.cls-8{fill:#cfcfcf;}.cls-4{fill:#807c7c;}.cls-5{fill:#9d9d9d;}.cls-6{fill:#606060;}.cls-7{opacity:0.2;}.cls-8{opacity:0.5;}</style></defs><title>icont-text copy 9</title><g id="background_iamge" data-name="background iamge"><rect class="cls-1" x="50.03" y="53.96" width="42.69" height="1.48"/><rect class="cls-2" x="0.12" y="-0.13" width="135" height="87.91"/><rect class="cls-3" y="87.64" width="135.37" height="2.09"/><rect class="cls-4" y="22.26" width="135" height="48.67"/><path class="cls-5" d="M.88,22.49V70.81H136.19V22.49Zm129,41.66-17.67-7.5a10.36,10.36,0,0,0-9.29.14L74.44,65.36,43.68,48.46a10.06,10.06,0,0,0-10.25,0L6.47,63V25.55H129.84Z"/><path class="cls-5" d="M96.08,56a4.83,4.83,0,1,0-5-4.82A4.94,4.94,0,0,0,96.08,56Z"/><rect class="cls-6" x="32.48" y="31.5" width="72.1" height="28.77"/><rect class="cls-7" x="45.16" y="45.7" width="46.36" height="1.35"/><rect class="cls-8" x="51.77" y="41.78" width="32.82" height="1.89"/><rect class="cls-7" x="45.16" y="48.64" width="46.36" height="1.35"/></g></svg>