<svg xmlns="http://www.w3.org/2000/svg" viewBox="0 0 135 117"><defs><style>.cls-1{fill:#d3d3d3;}.cls-2{fill:#cfcfcf;}.cls-3{fill:#9d9d9d;}.cls-4,.cls-5{fill:#4d4d4d;}.cls-5{font-size:7.56px;font-family:UniversLTStd-Bold, Univers LT Std;font-weight:700;}.cls-6{fill:none;stroke:#4d4d4d;stroke-miterlimit:10;}.cls-7,.cls-8{fill:#676767;}.cls-7{opacity:0.2;}.cls-8{opacity:0.5;}</style></defs><title>icont-text copy 3</title><g id="calltoaction-links_image" data-name="calltoaction-links+image"><rect class="cls-1" x="0.12" y="-0.13" width="135" height="87.91"/><rect class="cls-2" x="0.37" y="87.64" width="135" height="2.09"/><rect class="cls-3" x="0.12" y="19.91" width="135" height="48.67"/><path class="cls-4" d="M-.17,19.91V68.58H67.74V19.91ZM64.56,58.23l-8.88-7.44a3,3,0,0,0-4.66.13l-9,8.51L25.33,39.67a3.07,3.07,0,0,0-5.15,0L2.64,57.13V19.91H64.56Z"/><path class="cls-4" d="M53,43.13a6,6,0,1,0-6.38-6A6.2,6.2,0,0,0,53,43.13Z"/><text class="cls-5" transform="translate(92.83 54.22)">LINK</text><line class="cls-6" x1="89.28" y1="56.52" x2="113.62" y2="56.52"/><rect class="cls-7" x="76.62" y="36.02" width="51" height="1.48"/><rect class="cls-8" x="83.9" y="31.71" width="36.1" height="2.08"/><rect class="cls-7" x="76.62" y="39.26" width="51" height="1.48"/></g></svg>