<svg xmlns="http://www.w3.org/2000/svg" viewBox="0 0 135 117"><defs><style>.cls-1{fill:#d3d3d3;}.cls-2,.cls-8{fill:#4d4d4d;}.cls-3{fill:#cfcfcf;}.cls-4{fill:#9d9d9d;}.cls-5,.cls-6{fill:#676767;}.cls-5{opacity:0.2;}.cls-6{opacity:0.5;}.cls-7{fill:none;stroke:#4d4d4d;stroke-miterlimit:10;stroke-width:0.25px;}.cls-8{font-size:4.7px;font-family:UniversLTStd-Bold, Univers LT Std;font-weight:700;}.cls-9{letter-spacing:-0.02em;}.cls-10{letter-spacing:-0.04em;}</style></defs><title>icont-text copy 6</title><g id="margin-calltoaction"><rect class="cls-1" x="0.12" y="-0.13" width="135" height="87.91"/><path class="cls-2" d="M61.75,24.54V63.11h65.58V24.54ZM124.26,57.8l-8.57-6a3.33,3.33,0,0,0-4.5.11l-8.68,6.84L86.37,42.88a3.31,3.31,0,0,0-5,0L64.46,56.91V27h59.8Z"/><path class="cls-2" d="M108,45.79A4.83,4.83,0,1,0,103,41,4.93,4.93,0,0,0,108,45.79Z"/><rect class="cls-3" x="0.37" y="87.64" width="135" height="2.09"/><rect class="cls-4" x="8.25" y="28.68" width="61.62" height="30.29"/><rect class="cls-5" x="15.72" y="37.75" width="46.36" height="1.35"/><rect class="cls-6" x="22.34" y="33.83" width="32.82" height="1.89"/><rect class="cls-5" x="15.72" y="40.7" width="46.36" height="1.35"/><rect class="cls-2" x="17.59" y="53.31" width="42.64" height="0.8"/><rect class="cls-7" x="17.68" y="46.36" width="42.45" height="6.88"/><text class="cls-8" transform="translate(29.69 51.17)">BU<tspan class="cls-9" x="6.79" y="0">T</tspan><tspan class="cls-10" x="9.56" y="0">T</tspan><tspan x="12.24" y="0">ON</tspan></text></g></svg>