<svg xmlns="http://www.w3.org/2000/svg" viewBox="0 0 135 117"><defs><style>.cls-1{fill:#d3d3d3;}.cls-2{fill:#cfcfcf;}.cls-3{fill:#9d9d9d;}.cls-4{fill:#676767;opacity:0.2;}.cls-5{fill:#4d4d4d;}</style></defs><title>icont-text copy 5</title><g id="CALLTOACTION-icons"><rect class="cls-1" x="0.12" y="-0.13" width="135" height="87.91"/><rect class="cls-2" x="0.37" y="87.64" width="135" height="2.09"/><rect class="cls-3" x="0.12" y="19.91" width="135" height="48.67"/><rect class="cls-4" x="7.9" y="52.99" width="51" height="1.48"/><rect class="cls-4" x="7.9" y="56.23" width="51" height="1.48"/><rect class="cls-4" x="77.96" y="52.78" width="51" height="1.48"/><rect class="cls-4" x="77.96" y="56.02" width="51" height="1.48"/><path class="cls-5" d="M34.17,41.14a2.66,2.66,0,0,1-1.53,0l-5.7-1.76a2.24,2.24,0,0,0-.34,1.11.79.79,0,0,1,.34.31.84.84,0,0,1,.12.45.94.94,0,0,1-.46.8l.46,3.48a.29.29,0,0,1-.06.19.19.19,0,0,1-.17.07H25.47a.19.19,0,0,1-.17-.07.29.29,0,0,1-.06-.19l.46-3.48a1,1,0,0,1-.33-.33.85.85,0,0,1-.13-.47.82.82,0,0,1,.13-.46,1,1,0,0,1,.33-.33,3.12,3.12,0,0,1,.36-1.36l-1.24-.37a.6.6,0,0,1-.43-.37.77.77,0,0,1,0-.56.62.62,0,0,1,.43-.37L32.64,35a2.66,2.66,0,0,1,1.53,0L42,37.43a.62.62,0,0,1,.43.37.77.77,0,0,1,0,.56.6.6,0,0,1-.43.37Zm.25.88a3.72,3.72,0,0,1-2,0L28.1,40.69l-.36,2.38c0,.32.25.62.76.91a7,7,0,0,0,2.07.66,16.86,16.86,0,0,0,5.67,0A7,7,0,0,0,38.31,44c.51-.29.76-.59.76-.91l-.37-2.38L34.45,42Z"/><path class="cls-5" d="M104.23,41.14a2.66,2.66,0,0,1-1.53,0L97,39.38a2.24,2.24,0,0,0-.34,1.11.85.85,0,0,1,.34.31.94.94,0,0,1,.11.45.85.85,0,0,1-.13.47.92.92,0,0,1-.32.33l.45,3.48a.36.36,0,0,1,0,.19.21.21,0,0,1-.17.07H95.52a.21.21,0,0,1-.17-.07.36.36,0,0,1,0-.19l.45-3.48a.92.92,0,0,1-.32-.33.85.85,0,0,1-.13-.47.82.82,0,0,1,.13-.46.92.92,0,0,1,.32-.33,3.12,3.12,0,0,1,.37-1.36l-1.25-.37a.58.58,0,0,1-.42-.37.68.68,0,0,1,0-.56.6.6,0,0,1,.42-.37L102.7,35a2.66,2.66,0,0,1,1.53,0l7.82,2.41a.58.58,0,0,1,.42.37.68.68,0,0,1,0,.56.57.57,0,0,1-.42.37Zm.25.88a3.72,3.72,0,0,1-2,0l-4.28-1.33-.37,2.38c0,.32.26.62.77.91a7,7,0,0,0,2.07.66,16.81,16.81,0,0,0,5.66,0,7,7,0,0,0,2.07-.66c.51-.29.77-.59.77-.91l-.37-2.38L104.51,42Z"/></g></svg>