<svg xmlns="http://www.w3.org/2000/svg" viewBox="0 0 135 117"><defs><style>.cls-1{fill:#d3d3d3;}.cls-2{fill:#cfcfcf;}.cls-3{fill:#9d9d9d;}.cls-4,.cls-8{fill:#4d4d4d;}.cls-5,.cls-6{fill:#676767;}.cls-5{opacity:0.2;}.cls-6{opacity:0.5;}.cls-7{fill:none;stroke:#4d4d4d;stroke-miterlimit:10;stroke-width:0.25px;}.cls-8{font-size:5.17px;font-family:UniversLTStd-Bold, Univers LT Std;font-weight:700;}.cls-9{letter-spacing:-0.02em;}.cls-10{letter-spacing:-0.04em;}.cls-11{letter-spacing:0em;}</style></defs><title>icont-text copy 2</title><g id="calltoaction-buttons_Image" data-name="calltoaction-buttons+Image"><rect class="cls-1" x="0.12" y="-0.13" width="135" height="87.91"/><rect class="cls-2" x="0.37" y="87.64" width="135" height="2.09"/><rect class="cls-3" x="0.12" y="19.91" width="135" height="48.67"/><path class="cls-4" d="M67.21,19.91V68.58h67.91V19.91Zm64.72,38.32-8.87-7.44a3,3,0,0,0-4.66.13l-9,8.51L92.71,39.67a3.07,3.07,0,0,0-5.15,0L70,57.13V19.91h61.92Z"/><path class="cls-4" d="M120.37,43.13a6,6,0,1,0-6.38-6A6.21,6.21,0,0,0,120.37,43.13Z"/><rect class="cls-5" x="8.38" y="36.9" width="51" height="1.48"/><rect class="cls-6" x="15.65" y="32.59" width="36.1" height="2.08"/><rect class="cls-5" x="8.38" y="40.14" width="51" height="1.48"/><rect class="cls-4" x="10.25" y="57.04" width="46.9" height="0.88"/><rect class="cls-7" x="10.36" y="49.4" width="46.7" height="7.57"/><text class="cls-8" transform="translate(23.57 54.69)">BU<tspan class="cls-9" x="7.47" y="0">T</tspan><tspan class="cls-10" x="10.52" y="0">T</tspan><tspan class="cls-11" x="13.47" y="0">ON</tspan></text></g></svg>