<svg xmlns="http://www.w3.org/2000/svg" viewBox="0 0 135 117"><defs><style>.cls-1{fill:#d3d3d3;}.cls-2{fill:#cfcfcf;}.cls-3{fill:#9d9d9d;}.cls-4,.cls-9{fill:#676767;}.cls-4{opacity:0.2;}.cls-5{font-size:13px;}.cls-5,.cls-6{fill:#4d4d4d;}.cls-5,.cls-9{font-family:UniversLTStd-Bold, Univers LT Std;font-weight:700;}.cls-7{fill:none;stroke:#676767;stroke-miterlimit:10;stroke-width:0.75px;}.cls-7,.cls-8{opacity:0.5;}.cls-9{font-size:3.07px;}.cls-10{letter-spacing:-0.02em;}.cls-11{letter-spacing:-0.04em;}.cls-12{letter-spacing:0em;}</style></defs><title>icont-text copy 11</title><g id="facts-figures-image"><rect class="cls-1" x="0.12" y="-0.13" width="135" height="87.91"/><rect class="cls-2" x="0.37" y="87.64" width="135" height="2.09"/><rect class="cls-3" x="0.12" y="19.91" width="135" height="48.67"/><rect class="cls-4" x="5.39" y="42.75" width="52.53" height="1.48"/><rect class="cls-4" x="5.39" y="45.99" width="52.53" height="1.48"/><text class="cls-5" transform="translate(27.23 39.67)">%</text><path class="cls-6" d="M67.07,20V68.71H135V20Zm64.72,38.32-8.87-7.44a3,3,0,0,0-4.66.13l-9,8.51L92.57,39.81a3.07,3.07,0,0,0-5.15,0L69.87,57.26V20h61.92Z"/><path class="cls-6" d="M120.23,43.26a6,6,0,1,0-6.38-6A6.21,6.21,0,0,0,120.23,43.26Z"/><rect class="cls-7" x="22.9" y="54.17" width="17.5" height="5"/><g class="cls-8"><text class="cls-9" transform="translate(24.76 57.77)">BU<tspan class="cls-10" x="4.43" y="0">T</tspan><tspan class="cls-11" x="6.25" y="0">T</tspan><tspan class="cls-12" x="8" y="0">ON</tspan></text></g></g></svg>