<svg xmlns="http://www.w3.org/2000/svg" viewBox="0 0 135 117"><rect width="135" height="89" style="fill:#d3d3d3"/><rect y="20" width="135" height="48" style="fill:#d3d3d3"/><rect x="26.5" y="28.5" width="83" height="31" style="fill:#d3d3d3"/><path d="M109,29V59H27V29h82m1-1H26V60h84V28Z" transform="translate(0)" style="fill:#666"/><rect x="26.5" y="28.5" width="1" height="31" style="fill:#9d9d9d"/><path d="M27,29v0m1-1H26V60h2V28Z" transform="translate(0)" style="fill:#666"/><path d="M40.79,49.77a6,6,0,1,1,6-6A6,6,0,0,1,40.79,49.77Zm2-3.5a.25.25,0,0,0-.25-.25h-.75V42a.25.25,0,0,0-.25-.25H39a.25.25,0,0,0-.25.25v1.25a.25.25,0,0,0,.25.25h.75V46H39a.25.25,0,0,0-.25.25v1.25a.25.25,0,0,0,.25.25h3.5a.25.25,0,0,0,.25-.25Zm-1-7a.25.25,0,0,0-.25-.25H40a.25.25,0,0,0-.25.25v1.25a.25.25,0,0,0,.25.25h1.5a.25.25,0,0,0,.25-.25Z" transform="translate(0)" style="fill:#4d4d4d"/><rect x="53" y="33" width="45" height="3" style="fill:#4d4d4d"/><rect x="53" y="39" width="50" height="3" style="fill:#666"/><rect x="53" y="44" width="50" height="3" style="fill:#666"/><rect x="53" y="49" width="50" height="3" style="fill:#666"/><rect y="89" width="135" height="28" style="fill:none"/></svg>