<svg xmlns="http://www.w3.org/2000/svg" viewBox="0 0 135 117"><defs><style>.cls-1{fill:#d3d3d3;}.cls-2{fill:#cfcfcf;}.cls-3{fill:#9d9d9d;}.cls-4,.cls-5{fill:#4d4d4d;}.cls-4{opacity:0.75;}.cls-6{fill:none;stroke:#676767;stroke-miterlimit:10;stroke-width:0.75px;}.cls-6,.cls-7{opacity:0.5;}.cls-8{font-size:3.07px;fill:#676767;font-family:UniversLTStd-Bold, Univers LT Std;font-weight:700;}.cls-9{letter-spacing:-0.02em;}.cls-10{letter-spacing:-0.04em;}.cls-11{letter-spacing:0em;}</style></defs><title>icont-text copy 7</title><g id="text_Image_Video-Button" data-name="text+Image/Video-Button"><rect class="cls-1" x="0.12" y="-0.13" width="135" height="87.91"/><rect class="cls-2" y="87.64" width="135.37" height="2.09"/><rect class="cls-3" y="22.02" width="135" height="48.67"/><rect class="cls-4" x="16.06" y="38.06" width="42.69" height="1.48"/><rect class="cls-5" x="16.15" y="33.75" width="30.22" height="2.08"/><rect class="cls-4" x="16.06" y="41.03" width="42.69" height="1.48"/><rect class="cls-4" x="16.06" y="44.01" width="42.69" height="1.48"/><rect class="cls-4" x="16.06" y="46.98" width="42.69" height="1.48"/><rect class="cls-4" x="16.06" y="49.95" width="42.69" height="1.48"/><rect class="cls-4" x="16.06" y="52.93" width="42.69" height="1.48"/><rect class="cls-6" x="16.38" y="58.4" width="17.5" height="5"/><g class="cls-7"><text class="cls-8" transform="translate(18.23 62)">BU<tspan class="cls-9" x="4.43" y="0">T</tspan><tspan class="cls-10" x="6.25" y="0">T</tspan><tspan class="cls-11" x="8" y="0">ON</tspan></text></g><path class="cls-5" d="M71.52,32.49v29h49.29v-29Zm47,25L112.06,53a2.5,2.5,0,0,0-3.38.08l-6.52,5.14L90,46.27a2.49,2.49,0,0,0-3.74,0L73.56,56.81V34.32H118.5Z"/><path class="cls-5" d="M106.31,48.46a3.63,3.63,0,1,0-3.78-3.63A3.72,3.72,0,0,0,106.31,48.46Z"/></g></svg>