<svg xmlns="http://www.w3.org/2000/svg" viewBox="0 0 135 117"><defs><style>.cls-1{fill:#d3d3d3;}.cls-2{fill:#cfcfcf;}.cls-3{fill:#9d9d9d;}.cls-4,.cls-5,.cls-6{fill:#4d4d4d;}.cls-5{opacity:0.75;}.cls-6,.cls-7{opacity:0.59;}.cls-6{font-size:4.67px;font-family:UniversLTStd-Bold, Univers LT Std;font-weight:700;}.cls-7{fill:none;stroke:#4d4d4d;stroke-miterlimit:10;}</style></defs><title>icont-text copy 8</title><g id="text-image-links"><rect class="cls-1" x="0.12" y="-0.13" width="135" height="87.91"/><rect class="cls-2" y="87.64" width="135.37" height="2.09"/><rect class="cls-3" y="22.02" width="135" height="48.67"/><path class="cls-4" d="M13.4,33V62H62.69V33Zm47,25-6.44-4.5a2.52,2.52,0,0,0-3.39.08L44,58.73,31.9,46.8a2.48,2.48,0,0,0-3.73,0L15.43,57.34V34.85h45Z"/><path class="cls-4" d="M48.19,49a3.63,3.63,0,1,0-3.79-3.63A3.71,3.71,0,0,0,48.19,49Z"/><rect class="cls-5" x="71.52" y="37.94" width="42.69" height="1.48"/><rect class="cls-4" x="71.61" y="33.62" width="30.22" height="2.08"/><rect class="cls-5" x="71.52" y="40.91" width="42.69" height="1.48"/><rect class="cls-5" x="71.52" y="43.88" width="42.69" height="1.48"/><rect class="cls-5" x="71.52" y="46.86" width="42.69" height="1.48"/><rect class="cls-5" x="71.52" y="49.83" width="42.69" height="1.48"/><text class="cls-6" transform="translate(71.61 58.92)">LINK</text><line class="cls-7" x1="71.61" y1="60.34" x2="86.64" y2="60.34"/></g></svg>