<?xml version="1.0" encoding="UTF-8"?>
<svg width="350px" height="33px" viewBox="0 0 350 33" version="1.1" xmlns="http://www.w3.org/2000/svg" xmlns:xlink="http://www.w3.org/1999/xlink">
    <!-- Generator: Sketch 52.6 (67491) - http://www.bohemiancoding.com/sketch -->
    <title>member_horiz_tstar</title>
    <desc>Created with Sketch.</desc>
    <defs>
        <polygon id="path-1" points="0.126464316 0.452941176 13.911395 0.452941176 13.911395 12.1470588 0.126464316 12.1470588"></polygon>
        <polygon id="path-3" points="0.0882352941 0.514705882 349.432353 0.514705882 349.432353 7.61617647 0.0882352941 7.61617647"></polygon>
    </defs>
    <g id="Wireframes" stroke="none" stroke-width="1" fill="none" fill-rule="evenodd">
        <g id="member_horiz_tstar">
            <g id="Group-3" transform="translate(141.176471, 20.588235)">
                <mask id="mask-2" fill="white">
                    <use xlink:href="#path-1"></use>
                </mask>
                <g id="Clip-2"></g>
                <path d="M13.6558824,4.81176471 L7.02794118,0.452941176 L0.469117647,4.78382353 C0.120588235,5.02647059 0.126470588,5.40441176 0.126470588,5.40441176 L0.126470588,11.8632353 C0.126470588,12.2073529 0.186764706,12.2352941 0.452941176,12.2352941 L13.5294118,12.2352941 C13.8838235,12.2352941 13.9102941,12.05 13.9102941,11.8485294 L13.9102941,5.40441176 C13.9308824,4.99117647 13.6558824,4.81176471 13.6558824,4.81176471" id="Fill-1" fill="#FFFFFF" mask="url(#mask-2)"></path>
            </g>
            <path d="M151.322059,15.4147059 L149.894118,14.7323529 L151.955882,20.0220588 L148.951471,18.0411765 L149.189706,16.8073529 L144.513235,20.0191176 L145.379412,17.075 L146.966176,16.8058824 L142.630882,13.4985294 L145.651471,13.5044118 L146.377941,14.7558824 C146.375,14.7705882 146.379412,14.7852941 146.391176,14.7955882 L147.298529,15.5367647 L146.958824,16.7426471 C146.952941,16.7588235 146.958824,16.7779412 146.972059,16.7867647 C146.986765,16.7970588 147.005882,16.7970588 147.019118,16.7897059 L148.089706,16.0485294 L149.154412,16.7691176 C149.161765,16.7735294 149.169118,16.7764706 149.176471,16.7764706 L149.179412,16.7764706 C149.198529,16.7764706 149.219118,16.7573529 149.219118,16.7352941 C149.219118,16.7279412 149.217647,16.7220588 149.213235,16.7147059 L148.814706,15.5382353 L149.842647,14.7955882 C149.855882,14.7852941 149.860294,14.7661765 149.855882,14.7514706 C149.848529,14.7338235 149.835294,14.7205882 149.817647,14.7205882 L148.583824,14.7205882 L148.135294,13.4955882 C148.129412,13.4808824 148.113235,13.4691176 148.097059,13.4691176 C148.097059,13.4691176 148.070588,13.4735294 148.058824,13.4955882 L147.601471,14.7205882 L146.416176,14.7205882 C146.401471,14.7205882 146.391176,14.7294118 146.383824,14.7426471 L148.226471,9.27941176 L149.316176,12.3764706 L148.123529,13.4691176 L154.011765,13.4558824 L151.322059,15.4147059 Z M156.851471,12.3882353 L150.722059,12.3882353 L148.467647,6.52205882 C148.433824,6.44264706 148.361765,6.39117647 148.277941,6.39117647 C148.195588,6.39117647 148.120588,6.44264706 148.091176,6.52205882 L145.861765,12.3882353 L139.975,12.3882353 C139.888235,12.3882353 139.811765,12.4426471 139.785294,12.5220588 C139.755882,12.6044118 139.780882,12.6941176 139.848529,12.7485294 L144.355882,16.4323529 L142.689706,22.3235294 C142.666176,22.4044118 142.695588,22.4926471 142.763235,22.5441176 C142.830882,22.5941176 142.922059,22.5941176 142.992647,22.55 L148.277941,18.9676471 L153.567647,22.55 C153.6,22.5720588 153.638235,22.5823529 153.676471,22.5823529 C153.676471,22.5823529 153.679412,22.5823529 153.680882,22.5823529 C153.791176,22.5823529 153.880882,22.4911765 153.880882,22.3794118 C153.880882,22.3426471 153.872059,22.3088235 153.854412,22.2794118 L151.875,16.4382353 L156.975,12.7529412 C157.044118,12.6985294 157.072059,12.6088235 157.044118,12.525 C157.016176,12.4426471 156.938235,12.3882353 156.851471,12.3882353 Z" id="Fill-4" fill="#FFFFFF"></path>
            <path d="M163.567647,1.23088235 C158.473529,0.425 153.275,0.0147058823 148.117647,0.0147058823 C142.957353,0.0147058823 137.760294,0.425 132.664706,1.23088235 C132.463235,1.26176471 132.322059,1.44558824 132.339706,1.64852941 L133.175,11.0764706 C133.185294,11.1838235 133.236765,11.2823529 133.320588,11.3485294 C133.405882,11.4147059 133.513235,11.4441176 133.619118,11.4279412 C137.333824,10.8720588 141.102941,10.5294118 144.864706,10.4044118 L147.908824,2.4 C147.955882,2.27794118 148.070588,2.19558824 148.201471,2.19558824 C148.332353,2.19558824 148.447059,2.27794118 148.495588,2.4 L151.576471,10.4102941 C155.270588,10.5426471 158.969118,10.8823529 162.614706,11.4279412 C162.633824,11.4294118 162.651471,11.4308824 162.672059,11.4308824 C162.757353,11.4308824 162.842647,11.4029412 162.913235,11.3485294 C162.995588,11.2823529 163.05,11.1838235 163.058824,11.0764706 L163.894118,1.64852941 C163.913235,1.44558824 163.767647,1.26176471 163.567647,1.23088235" id="Fill-5" fill="#FFFFFF"></path>
            <path d="M176.598529,21.4220588 C175.523529,21.4220588 174.438235,21.0470588 173.586765,20.2867647 L174.510294,19.1808824 C175.148529,19.7088235 175.817647,20.0426471 176.629412,20.0426471 C177.269118,20.0426471 177.654412,19.7897059 177.654412,19.3735294 L177.654412,19.3529412 C177.654412,18.9573529 177.410294,18.7544118 176.223529,18.4514706 C174.792647,18.0852941 173.870588,17.6897059 173.870588,16.2808824 L173.870588,16.2602941 C173.870588,14.9720588 174.905882,14.1191176 176.355882,14.1191176 C177.389706,14.1191176 178.272059,14.4441176 178.992647,15.0220588 L178.180882,16.1985294 C177.551471,15.7632353 176.933824,15.4985294 176.335294,15.4985294 C175.736765,15.4985294 175.422059,15.7735294 175.422059,16.1176471 L175.422059,16.1382353 C175.422059,16.6044118 175.726471,16.7573529 176.954412,17.0720588 C178.394118,17.4455882 179.205882,17.9647059 179.205882,19.2014706 L179.205882,19.2220588 C179.205882,20.6323529 178.130882,21.4220588 176.598529,21.4220588" id="Fill-6" fill="#FFFFFF"></path>
            <polyline id="Fill-7" fill="#FFFFFF" points="185.1 15.6617647 185.1 21.3220588 183.536765 21.3220588 183.536765 15.6617647 181.376471 15.6617647 181.376471 14.2205882 187.258824 14.2205882 187.258824 15.6617647 185.1 15.6617647"></polyline>
            <path d="M192.148529,16.0470588 L191.202941,18.3485294 L193.089706,18.3485294 L192.148529,16.0470588 Z M194.298529,21.3220588 L193.648529,19.7279412 L190.645588,19.7279412 L189.997059,21.3220588 L188.405882,21.3220588 L191.447059,14.1705882 L192.888235,14.1705882 L195.930882,21.3220588 L194.298529,21.3220588 Z" id="Fill-8" fill="#FFFFFF"></path>
            <polyline id="Fill-9" fill="#FFFFFF" points="200.797059 15.6617647 200.797059 21.3220588 199.235294 21.3220588 199.235294 15.6617647 197.073529 15.6617647 197.073529 14.2205882 202.957353 14.2205882 202.957353 15.6617647 200.797059 15.6617647"></polyline>
            <polyline id="Fill-10" fill="#FFFFFF" points="205.625 21.3220588 205.625 14.2205882 210.980882 14.2205882 210.980882 15.6102941 207.176471 15.6102941 207.176471 17.05 210.525 17.05 210.525 18.4397059 207.176471 18.4397059 207.176471 19.9308824 211.030882 19.9308824 211.030882 21.3220588 205.625 21.3220588"></polyline>
            <path d="M221.366176,21.4323529 C219.460294,21.4323529 218.292647,20.3676471 218.292647,18.2779412 L218.292647,14.2205882 L219.854412,14.2205882 L219.854412,18.2382353 C219.854412,19.3941176 220.433824,19.9926471 221.386765,19.9926471 C222.339706,19.9926471 222.919118,19.4132353 222.919118,18.2882353 L222.919118,14.2205882 L224.479412,14.2205882 L224.479412,18.2279412 C224.479412,20.3764706 223.272059,21.4323529 221.366176,21.4323529" id="Fill-11" fill="#FFFFFF"></path>
            <polyline id="Fill-12" fill="#FFFFFF" points="232.523529 21.3220588 229.085294 16.8073529 229.085294 21.3220588 227.542647 21.3220588 227.542647 14.2205882 228.982353 14.2205882 232.308824 18.5926471 232.308824 14.2205882 233.85 14.2205882 233.85 21.3220588 232.523529 21.3220588"></polyline>
            <polygon id="Fill-13" fill="#FFFFFF" points="237.095588 21.3220588 238.658824 21.3220588 238.658824 14.2205882 237.095588 14.2205882"></polygon>
            <polyline id="Fill-14" fill="#FFFFFF" points="245.544118 21.3720588 244.164706 21.3720588 241.295588 14.2205882 243.017647 14.2205882 244.875 19.2220588 246.732353 14.2205882 248.414706 14.2205882 245.544118 21.3720588"></polyline>
            <polyline id="Fill-15" fill="#FFFFFF" points="250.980882 21.3220588 250.980882 14.2205882 256.336765 14.2205882 256.336765 15.6102941 252.532353 15.6102941 252.532353 17.05 255.880882 17.05 255.880882 18.4397059 252.532353 18.4397059 252.532353 19.9308824 256.385294 19.9308824 256.385294 21.3220588 250.980882 21.3220588"></polyline>
            <path d="M263.588235,16.6455882 C263.588235,15.975 263.120588,15.6308824 262.360294,15.6308824 L260.808824,15.6308824 L260.808824,17.6691176 L262.391176,17.6691176 C263.152941,17.6691176 263.588235,17.2632353 263.588235,16.6661765 L263.588235,16.6455882 Z M263.557353,21.3220588 L262.035294,19.0485294 L260.808824,19.0485294 L260.808824,21.3220588 L259.247059,21.3220588 L259.247059,14.2205882 L262.492647,14.2205882 C264.166176,14.2205882 265.169118,15.1029412 265.169118,16.5632353 L265.169118,16.5852941 C265.169118,17.7308824 264.551471,18.4514706 263.65,18.7852941 L265.382353,21.3220588 L263.557353,21.3220588 Z" id="Fill-16" fill="#FFFFFF"></path>
            <path d="M270.575,21.4220588 C269.5,21.4220588 268.414706,21.0470588 267.561765,20.2867647 L268.486765,19.1808824 C269.123529,19.7088235 269.794118,20.0426471 270.605882,20.0426471 C271.244118,20.0426471 271.630882,19.7897059 271.630882,19.3735294 L271.630882,19.3529412 C271.630882,18.9573529 271.388235,18.7544118 270.2,18.4514706 C268.769118,18.0852941 267.845588,17.6897059 267.845588,16.2808824 L267.845588,16.2602941 C267.845588,14.9720588 268.880882,14.1191176 270.332353,14.1191176 C271.366176,14.1191176 272.248529,14.4441176 272.969118,15.0220588 L272.157353,16.1985294 C271.527941,15.7632353 270.910294,15.4985294 270.310294,15.4985294 C269.713235,15.4985294 269.398529,15.7735294 269.398529,16.1176471 L269.398529,16.1382353 C269.398529,16.6044118 269.702941,16.7573529 270.930882,17.0720588 C272.369118,17.4455882 273.182353,17.9647059 273.182353,19.2014706 L273.182353,19.2220588 C273.182353,20.6323529 272.105882,21.4220588 270.575,21.4220588" id="Fill-17" fill="#FFFFFF"></path>
            <polygon id="Fill-18" fill="#FFFFFF" points="276.082353 21.3220588 277.644118 21.3220588 277.644118 14.2205882 276.082353 14.2205882"></polygon>
            <polyline id="Fill-19" fill="#FFFFFF" points="284.105882 15.6617647 284.105882 21.3220588 282.542647 21.3220588 282.542647 15.6617647 280.383824 15.6617647 280.383824 14.2205882 286.266176 14.2205882 286.266176 15.6617647 284.105882 15.6617647"></polyline>
            <polyline id="Fill-20" fill="#FFFFFF" points="292.492647 18.4911765 292.492647 21.3220588 290.930882 21.3220588 290.930882 18.5220588 288.201471 14.2205882 290.027941 14.2205882 291.723529 17.0720588 293.447059 14.2205882 295.222059 14.2205882 292.492647 18.4911765"></polyline>
            <path d="M304.704412,21.4220588 C303.627941,21.4220588 302.542647,21.0470588 301.692647,20.2867647 L302.614706,19.1808824 C303.252941,19.7088235 303.923529,20.0426471 304.733824,20.0426471 C305.373529,20.0426471 305.760294,19.7897059 305.760294,19.3735294 L305.760294,19.3529412 C305.760294,18.9573529 305.516176,18.7544118 304.329412,18.4514706 C302.898529,18.0852941 301.975,17.6897059 301.975,16.2808824 L301.975,16.2602941 C301.975,14.9720588 303.010294,14.1191176 304.461765,14.1191176 C305.495588,14.1191176 306.376471,14.4441176 307.098529,15.0220588 L306.285294,16.1985294 C305.655882,15.7632353 305.038235,15.4985294 304.439706,15.4985294 C303.841176,15.4985294 303.527941,15.7735294 303.527941,16.1176471 L303.527941,16.1382353 C303.527941,16.6044118 303.832353,16.7573529 305.058824,17.0720588 C306.498529,17.4455882 307.310294,17.9647059 307.310294,19.2014706 L307.310294,19.2220588 C307.310294,20.6323529 306.236765,21.4220588 304.704412,21.4220588" id="Fill-21" fill="#FFFFFF"></path>
            <polyline id="Fill-22" fill="#FFFFFF" points="313.394118 18.4911765 313.394118 21.3220588 311.832353 21.3220588 311.832353 18.5220588 309.105882 14.2205882 310.929412 14.2205882 312.625 17.0720588 314.347059 14.2205882 316.122059 14.2205882 313.394118 18.4911765"></polyline>
            <path d="M317.725,20.2867647 L318.65,19.1808824 C319.288235,19.7088235 319.957353,20.0426471 320.770588,20.0426471 C321.407353,20.0426471 321.794118,19.7897059 321.794118,19.3735294 L321.794118,19.3529412 C321.794118,18.9573529 321.551471,18.7544118 320.363235,18.4514706 C318.933824,18.0852941 318.010294,17.6897059 318.010294,16.2808824 L318.010294,16.2602941 C318.010294,14.9720588 319.045588,14.1191176 320.495588,14.1191176 C321.529412,14.1191176 322.413235,14.4441176 323.132353,15.0220588 L322.320588,16.1985294 C321.692647,15.7632353 321.075,15.4985294 320.473529,15.4985294 C319.876471,15.4985294 319.561765,15.7735294 319.561765,16.1176471 L319.561765,16.1382353 C319.561765,16.6044118 319.866176,16.7573529 321.094118,17.0720588 C322.533824,17.4455882 323.347059,17.9647059 323.347059,19.2014706 L323.347059,19.2220588 C323.347059,20.6323529 322.269118,21.4220588 320.738235,21.4220588 C319.664706,21.4220588 318.577941,21.0470588 317.725,20.2867647 Z" id="Fill-23" fill="#FFFFFF"></path>
            <polygon id="Fill-24" fill="#FFFFFF" points="329.239706 21.3220588 327.677941 21.3220588 327.677941 15.6617647 325.517647 15.6617647 325.517647 14.2205882 331.4 14.2205882 331.4 15.6617647 329.239706 15.6617647"></polygon>
            <polygon id="Fill-25" fill="#FFFFFF" points="334.066176 14.2205882 339.422059 14.2205882 339.422059 15.6102941 335.619118 15.6102941 335.619118 17.05 338.966176 17.05 338.966176 18.4397059 335.619118 18.4397059 335.619118 19.9308824 339.472059 19.9308824 339.472059 21.3220588 334.066176 21.3220588"></polygon>
            <g id="Group-29" transform="translate(0.000000, 13.705882)">
                <mask id="mask-4" fill="white">
                    <use xlink:href="#path-3"></use>
                </mask>
                <g id="Clip-27"></g>
                <polygon id="Fill-26" fill="#FFFFFF" mask="url(#mask-4)" points="347.880882 2.97941176 345.882353 6.01176471 345.841176 6.01176471 343.864706 3.01029412 343.864706 7.61617647 342.332353 7.61617647 342.332353 0.514705882 344.016176 0.514705882 345.882353 3.51764706 347.748529 0.514705882 349.432353 0.514705882 349.432353 7.61617647 347.880882 7.61617647"></polygon>
                <polyline id="Fill-28" fill="#FFFFFF" mask="url(#mask-4)" points="3.36323529 5.69411765 3.32205882 5.69411765 0.770588235 1.95 0.770588235 7.61617647 0 7.61617647 0 0.610294118 0.8 0.610294118 3.35294118 4.43235294 5.90441176 0.610294118 6.70588235 0.610294118 6.70588235 7.61617647 5.91470588 7.61617647 5.91470588 1.93970588 3.36323529 5.69411765"></polyline>
            </g>
            <polyline id="Fill-30" fill="#FFFFFF" points="14.7441176 15.0352941 10.4720588 15.0352941 10.4720588 17.4279412 14.2941176 17.4279412 14.2941176 18.1485294 10.4720588 18.1485294 10.4720588 20.6014706 14.7955882 20.6014706 14.7955882 21.3220588 9.68088235 21.3220588 9.68088235 14.3161765 14.7441176 14.3161765 14.7441176 15.0352941"></polyline>
            <polygon id="Fill-31" fill="#FFFFFF" points="20.7044118 19.4 18.1514706 15.6558824 18.1514706 21.3220588 17.3808824 21.3220588 17.3808824 14.3161765 18.1823529 14.3161765 20.7338235 18.1382353 23.2852941 14.3161765 24.0867647 14.3161765 24.0867647 21.3220588 23.2955882 21.3220588 23.2955882 15.6455882 20.7441176 19.4"></polygon>
            <path d="M31.9161765,19.35 C31.9161765,18.5794118 31.275,18.1382353 30.0544118,18.1382353 L27.8426471,18.1382353 L27.8426471,20.6088235 L30.1941176,20.6088235 C31.2558824,20.6088235 31.9161765,20.1397059 31.9161765,19.35 Z M31.525,16.1764706 C31.525,15.4764706 30.975,15.0264706 29.975,15.0264706 L27.8426471,15.0264706 L27.8426471,17.4382353 L29.9147059,17.4382353 C30.8647059,17.4382353 31.525,17.0073529 31.525,16.1764706 Z M32.3264706,16.0676471 C32.3264706,16.9882353 31.7661765,17.4573529 31.2161765,17.6985294 C32.0455882,17.9485294 32.7176471,18.4279412 32.7176471,19.4 C32.7176471,20.6088235 31.7058824,21.3220588 30.175,21.3220588 L27.0617647,21.3220588 L27.0617647,14.3161765 L30.0441176,14.3161765 C31.4264706,14.3161765 32.3264706,14.9955882 32.3264706,16.0676471 Z" id="Fill-32" fill="#FFFFFF"></path>
            <polyline id="Fill-33" fill="#FFFFFF" points="40.3470588 15.0352941 36.0735294 15.0352941 36.0735294 17.4279412 39.8955882 17.4279412 39.8955882 18.1485294 36.0735294 18.1485294 36.0735294 20.6014706 40.3970588 20.6014706 40.3970588 21.3220588 35.2823529 21.3220588 35.2823529 14.3161765 40.3470588 14.3161765 40.3470588 15.0352941"></polyline>
            <path d="M45.9352941,15.0455882 L43.775,15.0455882 L43.775,17.8882353 L45.925,17.8882353 C46.9764706,17.8882353 47.7279412,17.3485294 47.7279412,16.4367647 C47.7279412,15.5661765 47.0661765,15.0455882 45.9352941,15.0455882 Z M47.8073529,21.3220588 L45.775,18.5985294 L43.775,18.5985294 L43.775,21.3220588 L42.9838235,21.3220588 L42.9838235,14.3161765 L45.9955882,14.3161765 C47.5367647,14.3161765 48.5279412,15.1470588 48.5279412,16.4073529 C48.5279412,17.5779412 47.7279412,18.2588235 46.6264706,18.4588235 L48.7779412,21.3220588 L47.8073529,21.3220588 Z" id="Fill-34" fill="#FFFFFF"></path>
            <polyline id="Fill-35" fill="#FFFFFF" points="58.2911765 15.6617647 58.2911765 21.3220588 56.7294118 21.3220588 56.7294118 15.6617647 54.5676471 15.6617647 54.5676471 14.2205882 60.4514706 14.2205882 60.4514706 15.6617647 58.2911765 15.6617647"></polyline>
            <polyline id="Fill-36" fill="#FFFFFF" points="67.5602941 21.3220588 67.5602941 18.4705882 64.6794118 18.4705882 64.6794118 21.3220588 63.1176471 21.3220588 63.1176471 14.2205882 64.6794118 14.2205882 64.6794118 17.0308824 67.5602941 17.0308824 67.5602941 14.2205882 69.1220588 14.2205882 69.1220588 21.3220588 67.5602941 21.3220588"></polyline>
            <polyline id="Fill-37" fill="#FFFFFF" points="72.2970588 21.3220588 72.2970588 14.2205882 77.6514706 14.2205882 77.6514706 15.6102941 73.8485294 15.6102941 73.8485294 17.05 77.1955882 17.05 77.1955882 18.4397059 73.8485294 18.4397059 73.8485294 19.9308824 77.7029412 19.9308824 77.7029412 21.3220588 72.2970588 21.3220588"></polyline>
            <polyline id="Fill-38" fill="#FFFFFF" points="88.2911765 15.6617647 88.2911765 21.3220588 86.7294118 21.3220588 86.7294118 15.6617647 84.5676471 15.6617647 84.5676471 14.2205882 90.4514706 14.2205882 90.4514706 15.6617647 88.2911765 15.6617647"></polyline>
            <polyline id="Fill-39" fill="#FFFFFF" points="93.1191176 21.3220588 93.1191176 14.2205882 98.4735294 14.2205882 98.4735294 15.6102941 94.6705882 15.6102941 94.6705882 17.05 98.0176471 17.05 98.0176471 18.4397059 94.6705882 18.4397059 94.6705882 19.9308824 98.525 19.9308824 98.525 21.3220588 93.1191176 21.3220588"></polyline>
            <polyline id="Fill-40" fill="#FFFFFF" points="105.816176 21.3220588 104.225 18.8867647 102.622059 21.3220588 100.847059 21.3220588 103.320588 17.7102941 100.948529 14.2205882 102.773529 14.2205882 104.264706 16.5235294 105.764706 14.2205882 107.539706 14.2205882 105.167647 17.6897059 107.642647 21.3220588 105.816176 21.3220588"></polyline>
            <path d="M113.210294,16.0470588 L112.266176,18.3485294 L114.152941,18.3485294 L113.210294,16.0470588 Z M115.360294,21.3220588 L114.711765,19.7279412 L111.708824,19.7279412 L111.060294,21.3220588 L109.467647,21.3220588 L112.510294,14.1705882 L113.95,14.1705882 L116.994118,21.3220588 L115.360294,21.3220588 Z" id="Fill-41" fill="#FFFFFF"></path>
            <path d="M121.983824,21.4220588 C120.907353,21.4220588 119.822059,21.0470588 118.970588,20.2867647 L119.894118,19.1808824 C120.532353,19.7088235 121.202941,20.0426471 122.013235,20.0426471 C122.652941,20.0426471 123.038235,19.7897059 123.038235,19.3735294 L123.038235,19.3529412 C123.038235,18.9573529 122.795588,18.7544118 121.607353,18.4514706 C120.177941,18.0852941 119.254412,17.6897059 119.254412,16.2808824 L119.254412,16.2602941 C119.254412,14.9720588 120.289706,14.1191176 121.739706,14.1191176 C122.773529,14.1191176 123.655882,14.4441176 124.376471,15.0220588 L123.564706,16.1985294 C122.936765,15.7632353 122.317647,15.4985294 121.719118,15.4985294 C121.120588,15.4985294 120.805882,15.7735294 120.805882,16.1176471 L120.805882,16.1382353 C120.805882,16.6044118 121.110294,16.7573529 122.338235,17.0720588 C123.777941,17.4455882 124.589706,17.9647059 124.589706,19.2014706 L124.589706,19.2220588 C124.589706,20.6323529 123.514706,21.4220588 121.983824,21.4220588" id="Fill-42" fill="#FFFFFF"></path>
        </g>
    </g>
</svg>