<?xml version="1.0" encoding="UTF-8"?>
<svg width="90px" height="66px" viewBox="0 0 90 66" version="1.1" xmlns="http://www.w3.org/2000/svg" xmlns:xlink="http://www.w3.org/1999/xlink">
    <!-- Generator: Sketch 52.6 (67491) - http://www.bohemiancoding.com/sketch -->
    <title>Logo Copy</title>
    <desc>Created with Sketch.</desc>
    <g id="Symbols" stroke="none" stroke-width="1" fill="none" fill-rule="evenodd">
        <g id="Logo-Copy">
            <path d="M88.0244582,25.7427864 L88.2927864,25.7427864 C88.5109598,25.7427864 88.5519195,25.5878638 88.5519195,25.499257 C88.5519195,25.2652012 88.3908669,25.2652012 88.3008669,25.2652012 L88.0244582,25.2652012 L88.0244582,25.7427864 Z M87.7012384,24.9887926 L88.2927864,24.9887926 C88.4959133,24.9887926 88.8924149,24.9887926 88.8924149,25.4435294 C88.8924149,25.7589474 88.6890093,25.8241486 88.5686378,25.8639938 C88.8026935,25.8798762 88.8196904,26.0345201 88.8517337,26.2540867 C88.8690093,26.3920124 88.8924149,26.6263467 88.9414551,26.7079876 L88.5758824,26.7079876 C88.5686378,26.6263467 88.5109598,26.1886068 88.5109598,26.1649226 C88.4875542,26.0673994 88.4555108,26.0175232 88.3331889,26.0175232 L88.033096,26.0175232 L88.033096,26.7079876 L87.7012384,26.7079876 L87.7012384,24.9887926 Z M86.9909907,25.8444892 C86.9909907,26.5569659 87.5674923,27.1326316 88.2721672,27.1326316 C88.9854799,27.1326316 89.5603096,26.5460991 89.5603096,25.8444892 C89.5603096,25.1308978 88.9773994,24.5630341 88.2721672,24.5630341 C87.5755728,24.5630341 86.9909907,25.1225387 86.9909907,25.8444892 Z M89.8080186,25.8495046 C89.8080186,26.6907121 89.1195046,27.3808978 88.2755108,27.3808978 C87.441548,27.3808978 86.7435604,26.6993498 86.7435604,25.8495046 C86.7435604,24.9812693 87.4568731,24.3169969 88.2755108,24.3169969 C89.1041796,24.3169969 89.8080186,24.9812693 89.8080186,25.8495046 Z" id="Fill-1" fill="#1A1919"></path>
            <path d="M0.252167183,0.583467492 L15.6647368,0.583467492 L15.8104644,5.21414861 L15.1578947,5.21414861 C14.8391331,3.75993808 14.4334365,2.81312693 13.940805,2.37287926 C13.448452,1.93458204 12.4119195,1.71362229 10.8331579,1.71362229 L9.31541796,1.71362229 L9.31541796,15.6616718 C9.31541796,16.7118576 9.48037152,17.3627554 9.8077709,17.6143653 C10.1357276,17.8662539 10.8551703,18.0317647 11.9644272,18.1103406 L11.9644272,18.616904 L4.01851393,18.616904 L4.01851393,18.1103406 C5.17179567,18.0220124 5.89068111,17.8333746 6.17544892,17.5413622 C6.4593808,17.2501858 6.60065015,16.5173684 6.60065015,15.3423529 L6.60065015,1.71362229 L5.07092879,1.71362229 C3.56154799,1.71362229 2.53532508,1.93095975 1.98863777,2.36619195 C1.44362229,2.80142415 1.03263158,3.75130031 0.759009288,5.21414861 L0.0927863777,5.21414861 L0.252167183,0.583467492" id="Fill-2" fill="#1A1919"></path>
            <path d="M17.7113313,18.1103406 C18.7141486,18.0052941 19.3642105,17.8266873 19.661517,17.5756347 C19.9582663,17.3237461 20.1073375,16.685387 20.1073375,15.6616718 L20.1073375,3.53786378 C20.1073375,2.56987616 19.960774,1.93904025 19.6682043,1.6406192 C19.3750774,1.34414861 18.7233437,1.1596904 17.7113313,1.08835913 L17.7113313,0.583467492 L32.1910217,0.583467492 L32.2832508,4.48188854 L31.5916718,4.48188854 C31.3612384,3.28068111 31.0154489,2.50411765 30.5534675,2.15052632 C30.0934365,1.79888545 29.0627554,1.6222291 27.466161,1.6222291 L23.7558204,1.6222291 C23.3556966,1.6222291 23.1091022,1.68659443 23.0152012,1.81393189 C22.9226935,1.94321981 22.8753251,2.18424149 22.8753251,2.53950464 L22.8753251,8.62160991 L27.0796904,8.62160991 C28.2424458,8.62160991 28.9833437,8.44996904 29.3034985,8.10501548 C29.6222601,7.76173375 29.8797214,7.06346749 30.0747678,6.01272446 L30.7139628,6.01272446 L30.7139628,12.3091022 L30.0747678,12.3091022 C29.8705263,11.2522291 29.6086068,10.5536842 29.2901238,10.2123529 C28.9713622,9.87074303 28.2332508,9.70105263 27.0796904,9.70105263 L22.8753251,9.70105263 L22.8753251,16.4479876 C22.8753251,16.9888235 23.0464087,17.3086997 23.3888545,17.405387 C23.7304644,17.5037461 24.7541796,17.5516718 26.4594427,17.5516718 C28.308483,17.5516718 29.6713003,17.350774 30.5520743,16.9467492 C31.4317337,16.5430031 32.2225077,15.5652632 32.9241176,14.0118576 L33.6817337,14.0118576 L32.444582,18.616904 L17.7113313,18.616904 L17.7113313,18.1103406" id="Fill-3" fill="#1A1919"></path>
            <path d="M33.9801548,18.1103406 C34.7087926,18.0326006 35.2632817,17.8386687 35.6411146,17.5330031 C36.019226,17.2273375 36.7718266,16.3752632 37.8989164,14.9804025 L42.1074613,9.77544892 L39.1210217,5.39972136 C37.8208978,3.4930031 36.9072446,2.30684211 36.3783901,1.84123839 C35.8514861,1.37535604 35.1479257,1.12486068 34.2699381,1.08835913 L34.2699381,0.583467492 L42.4702477,0.583467492 L42.4702477,1.08835913 C41.6803096,1.11566563 41.1651084,1.16832817 40.9260372,1.24801858 C40.5652012,1.36365325 40.384644,1.61526316 40.384644,2.00424149 C40.384644,2.25195046 40.4718576,2.54897833 40.6490712,2.89281734 C40.7362848,3.07086687 40.86,3.27371517 41.0193808,3.50331269 L43.8311146,7.57839009 L46.89,3.85634675 C47.3386068,3.31634675 47.6426006,2.88083591 47.8011455,2.55315789 C47.8983901,2.35755418 47.9468731,2.18034056 47.9468731,2.02123839 C47.9468731,1.6222291 47.7537771,1.35529412 47.3656347,1.2223839 C47.1285139,1.14185759 46.6941176,1.09894737 46.0655108,1.08835913 L46.0655108,0.583467492 L52.521548,0.583467492 L52.521548,1.08835913 C51.7923529,1.1073065 51.2295046,1.2223839 50.8313313,1.43526316 C50.2010526,1.78188854 49.4194737,2.52780186 48.4879876,3.6730031 L44.5483282,8.61464396 L49.7128793,16.0918885 C50.2637461,16.8982663 50.7229412,17.4090093 51.090743,17.6260681 C51.4588235,17.8434056 51.9957585,18.0052941 52.7043344,18.1103406 L52.7043344,18.616904 L44.6926625,18.616904 L44.6926625,18.1103406 C45.4636533,18.0936223 45.999195,18.025356 46.3029102,17.9102786 C46.6060681,17.7926935 46.7573684,17.5695046 46.7573684,17.2390402 C46.7573684,16.9534365 46.555356,16.4783591 46.1521672,15.8163158 C45.7467492,15.155387 44.6294118,13.4816099 42.8007121,10.7977709 L39.6022291,14.814613 C39.1363467,15.406161 38.8108978,15.8383282 38.626161,16.1122291 C38.3352632,16.5446749 38.1903715,16.8670588 38.1903715,17.0782663 C38.1903715,17.4664087 38.4182972,17.740031 38.876935,17.899969 C39.1497214,17.9966563 39.6125387,18.0663158 40.2667802,18.1103406 L40.2667802,18.616904 L33.9801548,18.616904 L33.9801548,18.1103406" id="Fill-4" fill="#1A1919"></path>
            <path d="M64.2711455,11.6158514 L61.1473375,4.10990712 L58.0098762,11.6158514 L64.2711455,11.6158514 Z M52.5329721,18.616904 L52.5329721,18.1103406 C53.2334675,18.0317647 53.7586997,17.7690093 54.1095046,17.3195666 C54.4605882,16.8720743 55.0604954,15.6449536 55.9114551,13.6398762 L61.5898142,0.264148607 L62.1317647,0.264148607 L68.9235604,15.7160062 C69.3763467,16.7394427 69.7371827,17.3725077 70.0088545,17.6152012 C70.2782972,17.8576161 70.7341486,18.0220124 71.373065,18.1103406 L71.373065,18.616904 L64.4405573,18.616904 L64.4405573,18.1103406 C65.2371827,18.0409598 65.7509907,17.9540248 65.9811455,17.8526006 C66.2118576,17.7503406 66.3272136,17.5020743 66.3272136,17.1044582 C66.3272136,16.9721053 66.2831889,16.7377709 66.1948607,16.4031269 C66.1068111,16.0665325 65.9811455,15.7134985 65.822322,15.3423529 L64.7306192,12.7200929 L57.5467802,12.7200929 C56.8398762,14.5044892 56.4166254,15.5920124 56.2795356,15.9848916 C56.1416099,16.3788854 56.0741796,16.6898452 56.0741796,16.9194427 C56.0741796,17.3783591 56.2586378,17.6957276 56.6314551,17.8729412 C56.8621672,17.9779876 57.2960062,18.0579567 57.9332508,18.1103406 L57.9332508,18.616904 L52.5329721,18.616904 Z" id="Fill-5" fill="#1A1919"></path>
            <path d="M73.2714241,13.1333127 C73.732291,14.358483 74.2734056,15.3339938 74.8919814,16.0612384 C75.9733746,17.3304334 77.31613,17.9643344 78.9191331,17.9643344 C79.7873684,17.9643344 80.5377399,17.6890402 81.1716409,17.1392879 C81.8058204,16.5895356 82.1209598,15.8216099 82.1209598,14.8374613 C82.1209598,13.9497214 81.8041486,13.1773375 81.166904,12.5217028 C80.7500619,12.1040248 79.8731889,11.478483 78.5360062,10.6445201 L76.210774,9.19421053 C75.5108359,8.75089783 74.9530031,8.30201238 74.5344892,7.85034056 C73.7629412,6.98907121 73.3781424,6.04058824 73.3781424,5.00210526 C73.3781424,3.62619195 73.8339938,2.48210526 74.7495975,1.56817337 C75.6632508,0.655077399 76.8736533,0.197832817 78.3821981,0.197832817 C79.0024458,0.197832817 79.7497523,0.350804954 80.6243963,0.656749226 C81.4987616,0.962972136 81.9972446,1.11566563 82.1209598,1.11566563 C82.4600619,1.11566563 82.6921672,1.03569659 82.8211765,0.875758514 C82.9496285,0.716099071 83.0482663,0.490123839 83.1212693,0.197832817 L83.6791022,0.197832817 L84.2787307,5.99962848 L83.626161,5.99962848 C83.1820124,4.25256966 82.4703715,3.03213622 81.4906811,2.34 C80.5090402,1.6473065 79.5396594,1.30151703 78.5819814,1.30151703 C77.8363467,1.30151703 77.1871207,1.52164087 76.6323529,1.96105263 C76.0767492,2.40018576 75.8003406,3.01012384 75.8003406,3.7903096 C75.8003406,4.4919195 76.0121053,5.09043344 76.4375851,5.58668731 C76.8616718,6.09325077 77.5228793,6.62154799 78.4175851,7.17102167 L80.8110836,8.64891641 C82.3107121,9.57176471 83.3670279,10.4179876 83.9819814,11.1909288 C84.5871827,11.9708359 84.8908978,12.8934056 84.8908978,13.9583591 C84.8908978,15.3863777 84.3517337,16.5811765 83.2734056,17.539969 C82.195356,18.4970898 80.8174923,18.9755108 79.1395356,18.9755108 C78.2972136,18.9755108 77.4172755,18.8158514 76.4986068,18.4970898 C75.5799381,18.1780495 75.0547059,18.0169969 74.9226316,18.0169969 C74.6019195,18.0169969 74.3870898,18.1156347 74.2764706,18.3109598 C74.1650155,18.5051703 74.0920124,18.7141486 74.0560681,18.9365015 L73.4581115,18.9365015 L72.646161,13.1333127 L73.2714241,13.1333127" id="Fill-6" fill="#1A1919"></path>
            <path d="M2.61334365,45.8570898 C3.06417957,47.053839 3.59219814,48.0078947 4.19795666,48.7181424 C5.25482972,49.9586378 6.56582043,50.5791641 8.13315789,50.5791641 C8.98133127,50.5791641 9.71526316,50.3097214 10.333839,49.7708359 C10.9526935,49.2352941 11.2628173,48.4849226 11.2628173,47.5213932 C11.2628173,46.655387 10.9510217,45.9002786 10.3288235,45.2577399 C9.92201238,44.8517647 9.06436533,44.2398762 7.75755418,43.424582 L5.48609907,42.0074303 C4.80148607,41.57387 4.2573065,41.1364087 3.84965944,40.6939319 C3.09455108,39.8524458 2.71839009,38.9243034 2.71839009,37.9097833 C2.71839009,36.5659133 3.16393189,35.4474613 4.05752322,34.5533127 C4.94972136,33.6613932 6.13393189,33.2141796 7.60848297,33.2141796 C8.2150774,33.2141796 8.94566563,33.3640867 9.79996904,33.663065 C10.6542724,33.962322 11.1416099,34.1113932 11.2628173,34.1113932 C11.5916099,34.1113932 11.8195356,34.0333746 11.9460372,33.8770588 C12.0722601,33.7215789 12.1686687,33.5000619 12.2391641,33.2141796 L12.7850155,33.2141796 L13.3704334,38.8852941 L12.7331889,38.8852941 C12.2985139,37.1772446 11.6035913,35.9843963 10.6459133,35.3089783 C9.68656347,34.6318885 8.73891641,34.2936223 7.80325077,34.2936223 C7.074613,34.2936223 6.43876161,34.5092879 5.89820433,34.9375542 C5.35569659,35.3674923 5.08458204,35.9640557 5.08458204,36.7258514 C5.08458204,37.4124149 5.2930031,37.9964396 5.70817337,38.4821053 C6.12362229,38.9750155 6.76783282,39.4921672 7.64414861,40.0296594 L9.98303406,41.4735604 C11.4475542,42.3755108 12.4799071,43.2033437 13.0806502,43.9576161 C13.6730341,44.7210836 13.9681115,45.6230341 13.9681115,46.6637461 C13.9681115,48.0586068 13.4417647,49.2263777 12.3882353,50.162322 C11.3341486,51.097709 9.98832817,51.5674923 8.35077399,51.5674923 C7.52628483,51.5674923 6.66585139,51.4114551 5.76752322,51.097709 C4.87086687,50.7856347 4.35733746,50.6301548 4.22693498,50.6301548 C3.91402477,50.6301548 3.70309598,50.7265635 3.5955418,50.9165944 C3.48631579,51.1063467 3.41498452,51.3114241 3.38099071,51.5265325 L2.79473684,51.5265325 L2.00229102,45.8570898 L2.61334365,45.8570898" id="Fill-7" fill="#1A1919"></path>
            <path d="M17.6174303,33.5914551 L32.6783591,33.5914551 L32.820743,38.1173684 L32.1834985,38.1173684 C31.8714241,36.6963158 31.4749226,35.7701238 30.9934365,35.3410217 C30.5119505,34.9116409 29.4993808,34.6962539 27.9560062,34.6962539 L26.4728173,34.6962539 L26.4728173,48.3283282 C26.4728173,49.355387 26.6330341,49.9912384 26.9543034,50.2364396 C27.2755728,50.480805 27.9780186,50.6452012 29.0610836,50.721548 L29.0610836,51.2164087 L21.2973994,51.2164087 L21.2973994,50.721548 C22.4244892,50.6351703 23.1260991,50.4487616 23.4058514,50.1639938 C23.6811455,49.8808978 23.8201858,49.162291 23.8201858,48.0165325 L23.8201858,34.6962539 L22.3252941,34.6962539 C20.8515789,34.6962539 19.8479257,34.9094118 19.3140557,35.3340557 C18.7818576,35.759257 18.379226,36.687678 18.1106192,38.1173684 L17.4613932,38.1173684 L17.6174303,33.5914551" id="Fill-8" fill="#1A1919"></path>
            <path d="M44.8314241,44.3736223 L41.7789474,37.038483 L38.7125387,44.3736223 L44.8314241,44.3736223 Z M33.3596285,51.2164087 L33.3596285,50.721548 C34.0445201,50.6452012 34.5597214,50.3860681 34.9021672,49.9486068 C35.244613,49.5097523 35.8308669,48.3113313 36.6631579,46.3519505 L42.2108359,33.2791022 L42.7430341,33.2791022 L49.3787926,48.381548 C49.8212693,49.380743 50.175418,49.9995975 50.438452,50.2364396 C50.7028793,50.4721672 51.1484211,50.6351703 51.772291,50.721548 L51.772291,51.2164087 L44.9983282,51.2164087 L44.9983282,50.721548 C45.7771207,50.6521672 46.2789474,50.5691331 46.504644,50.4674303 C46.7300619,50.3690712 46.841517,50.1266563 46.841517,49.7365635 C46.841517,49.6081115 46.7991641,49.380743 46.7116718,49.0505573 C46.6255728,48.7231579 46.504644,48.3782043 46.3486068,48.0165325 L45.2814241,45.4533437 L38.2614241,45.4533437 C37.5701238,47.1967802 37.1566254,48.2606192 37.0226006,48.6451393 C36.886904,49.0265944 36.8208669,49.3317028 36.8208669,49.5571207 C36.8208669,50.0062848 37.0022601,50.3150155 37.3667183,50.4877709 C37.5921362,50.5928173 38.0159443,50.6708359 38.6378638,50.721548 L38.6378638,51.2164087 L33.3596285,51.2164087 Z" id="Fill-9" fill="#1A1919"></path>
            <path d="M52.3245511,33.5914551 L67.3879876,33.5914551 L67.5303715,38.1173684 L66.8931269,38.1173684 C66.5796594,36.6963158 66.1828793,35.7701238 65.7013932,35.3410217 C65.2201858,34.9116409 64.2087307,34.6962539 62.6656347,34.6962539 L61.1827245,34.6962539 L61.1827245,48.3283282 C61.1827245,49.355387 61.3437771,49.9912384 61.6644892,50.2364396 C61.9843653,50.480805 62.6865325,50.6452012 63.7709907,50.721548 L63.7709907,51.2164087 L56.006192,51.2164087 L56.006192,50.721548 C57.1332817,50.6351703 57.8354489,50.4487616 58.1135294,50.1639938 C58.3910526,49.8808978 58.5286997,49.162291 58.5286997,48.0165325 L58.5286997,34.6962539 L57.033808,34.6962539 C55.5589783,34.6962539 54.5553251,34.9094118 54.0214551,35.3340557 C53.489257,35.759257 53.0874613,36.687678 52.819969,38.1173684 L52.1704644,38.1173684 L52.3245511,33.5914551" id="Fill-10" fill="#1A1919"></path>
            <path d="M69.2796594,50.721548 C70.2596285,50.618452 70.8954799,50.4420743 71.1849845,50.1979876 C71.4767183,49.9519505 71.620774,49.3283591 71.620774,48.3283282 L71.620774,36.4786997 C71.620774,35.5341176 71.4781115,34.9166563 71.1919505,34.6249226 C70.906904,34.3351393 70.2679876,34.1556966 69.2796594,34.0860372 L69.2796594,33.5914551 L83.4313932,33.5914551 L83.5227864,37.4040557 L82.8462539,37.4040557 C82.6211146,36.2293189 82.2820124,35.4694737 81.8331269,35.1245201 C81.3803406,34.7798452 80.3750155,34.6065325 78.8143653,34.6065325 L75.1887307,34.6065325 C74.7969659,34.6065325 74.5545511,34.6689474 74.4631579,34.7948916 C74.3734365,34.9208359 74.3277399,35.1568421 74.3277399,35.5031889 L74.3277399,41.4482043 L78.4359752,41.4482043 C79.5733746,41.4482043 80.2972755,41.2796285 80.6090712,40.9430341 C80.9208669,40.6067183 81.1733127,39.9254489 81.3633437,38.8989474 L81.9886068,38.8989474 L81.9886068,45.0501548 L81.3633437,45.0501548 C81.1652322,44.0194737 80.9088854,43.3365325 80.5970898,43.0010526 C80.2836223,42.6686378 79.5652941,42.5017337 78.4359752,42.5017337 L74.3277399,42.5017337 L74.3277399,49.0943034 C74.3277399,49.6248297 74.493808,49.9366254 74.8273375,50.0316409 C75.163096,50.1283282 76.1634056,50.1759752 77.830774,50.1759752 C79.6382972,50.1759752 80.9704644,49.979257 81.8297833,49.5824768 C82.690774,49.1876471 83.4634365,48.2333127 84.1480495,46.7164087 L84.889226,46.7164087 L83.6791022,51.2164087 L69.2796594,51.2164087 L69.2796594,50.721548" id="Fill-11" fill="#1A1919"></path>
            <path d="M9.31876161,57.101517 L9.31876161,57.3252632 C8.85427245,57.3556347 8.55334365,57.4333746 8.41513932,57.5593189 C8.27804954,57.6830341 8.20839009,57.96613 8.20839009,58.4116718 L8.20839009,62.2794427 C8.20839009,62.9152941 8.29504644,63.4087616 8.46780186,63.7629102 C8.79074303,64.4087926 9.40346749,64.7325697 10.3051393,64.7325697 C11.2934675,64.7325697 11.9577399,64.4001548 12.2968421,63.7389474 C12.4849226,63.3678019 12.5796594,62.7982663 12.5796594,62.0256037 L12.5796594,58.8795046 C12.5796594,58.2202477 12.5002477,57.8084211 12.3425387,57.6406811 C12.1839938,57.4726625 11.8866873,57.3676161 11.4450464,57.3252632 L11.4450464,57.101517 L14.2442415,57.101517 L14.2442415,57.3252632 C13.7750155,57.3759752 13.4696285,57.4899381 13.3255728,57.6657585 C13.181517,57.8404644 13.1104644,58.2458824 13.1104644,58.8795046 L13.1104644,62.0256037 C13.1104644,62.8612384 12.9834056,63.513808 12.7265015,63.979969 C12.2544892,64.8443034 11.356161,65.2731269 10.0323529,65.2731269 C8.72526316,65.2731269 7.83724458,64.8493189 7.36439628,63.9986378 C7.10832817,63.5425077 6.97959752,62.9406502 6.97959752,62.1916718 L6.97959752,58.4116718 C6.97959752,57.9711455 6.91272446,57.6880495 6.77619195,57.5643344 C6.64049536,57.4389474 6.34402477,57.359257 5.88789474,57.3252632 L5.88789474,57.101517 L9.31876161,57.101517" id="Fill-12" fill="#1A1919"></path>
            <path d="M15.123065,64.879969 C15.6223839,64.8289783 15.9428173,64.7152941 16.0852012,64.539195 C16.2275851,64.3644892 16.2986378,63.9579567 16.2986378,63.3204334 L16.2986378,57.9912074 L16.1317337,57.7964396 C15.9545201,57.5896904 15.804613,57.4590093 15.6808978,57.4102477 C15.5563467,57.3609288 15.370774,57.3319505 15.123065,57.3252632 L15.123065,57.101517 L17.186935,57.101517 L21.8549536,62.8882663 L21.8549536,58.8694737 C21.8549536,58.2085449 21.7565944,57.7760991 21.5601548,57.5774303 C21.4311455,57.4473065 21.1430341,57.3642724 20.6972136,57.3252632 L20.6972136,57.101517 L23.5398762,57.101517 L23.5398762,57.3252632 C23.0787307,57.3712384 22.7719505,57.4829721 22.6175851,57.6626935 C22.4651703,57.8387926 22.3871517,58.2458824 22.3871517,58.8795046 L22.3871517,65.2444272 L22.1804025,65.2444272 L16.8291641,58.6117337 L16.8291641,63.3204334 C16.8291641,63.9813622 16.9258514,64.4118576 17.1183901,64.61387 C17.244613,64.7442724 17.5257585,64.832322 17.9640557,64.879969 L17.9640557,65.1037152 L15.123065,65.1037152 L15.123065,64.879969" id="Fill-13" fill="#1A1919"></path>
            <path d="M24.4340248,64.879969 C24.9272136,64.8443034 25.2456966,64.7713003 25.3917028,64.6578947 C25.5371517,64.5478328 25.6101548,64.2580495 25.6101548,63.7918885 L25.6101548,58.4116718 C25.6101548,57.96613 25.5371517,57.6810836 25.3917028,57.5523529 C25.2456966,57.4236223 24.9272136,57.3472755 24.4340248,57.3252632 L24.4340248,57.101517 L28.0136842,57.101517 L28.0136842,57.3252632 C27.5213313,57.3472755 27.2017337,57.4236223 27.0560062,57.5523529 C26.9111146,57.6810836 26.8381115,57.96613 26.8381115,58.4116718 L26.8381115,63.7918885 C26.8381115,64.2580495 26.9111146,64.5478328 27.0560062,64.6578947 C27.2017337,64.7713003 27.5213313,64.8443034 28.0136842,64.879969 L28.0136842,65.1037152 L24.4340248,65.1037152 L24.4340248,64.879969" id="Fill-14" fill="#1A1919"></path>
            <path d="M32.1681734,57.101517 L32.1681734,57.3065944 C31.8647368,57.3116099 31.6596594,57.3302786 31.5495975,57.3659443 C31.3562229,57.4305882 31.2612074,57.5609907 31.2612074,57.757709 C31.2612074,57.8574613 31.2952012,57.9965015 31.3629102,58.1776161 C31.4325697,58.3576161 31.5613003,58.6557585 31.747709,59.0728793 L33.6410526,63.2833746 L35.3596904,58.725418 C35.4368731,58.5236842 35.4937152,58.3539938 35.5343963,58.2132817 C35.5734056,58.0725697 35.5937461,57.9591641 35.5937461,57.8711146 C35.5937461,57.635387 35.4920433,57.474613 35.2919814,57.3896285 C35.1741176,57.3422601 34.9785139,57.3152322 34.7082353,57.3065944 L34.7082353,57.101517 L37.1819814,57.101517 L37.1819814,57.3065944 C36.9259133,57.3422601 36.7378328,57.4102477 36.6141176,57.5150155 C36.4302167,57.667709 36.2463158,57.976161 36.0665944,58.442322 L33.3866563,65.2444272 L33.2047059,65.2444272 L30.2154799,58.5964087 C29.9647059,58.0321672 29.7613003,57.6830341 29.6119505,57.5439938 C29.4595356,57.4049536 29.2366254,57.3272136 28.9460062,57.3065944 L28.9460062,57.101517 L32.1681734,57.101517" id="Fill-15" fill="#1A1919"></path>
            <path d="M38.1065015,64.879969 C38.5514861,64.832322 38.8395975,64.7523529 38.97,64.6408978 C39.1031889,64.5288854 39.1683901,64.2474613 39.1683901,63.7918885 L39.1683901,58.4116718 C39.1683901,57.9811765 39.1031889,57.7014241 38.9736223,57.5713003 C38.8429412,57.4369969 38.5548297,57.3556347 38.1065015,57.3252632 L38.1065015,57.101517 L44.5313313,57.101517 L44.5739628,58.8321362 L44.2657895,58.8321362 C44.1635294,58.2982663 44.01,57.9524768 43.8060372,57.7964396 C43.6009598,57.6406811 43.1431579,57.5609907 42.434582,57.5609907 L40.7869969,57.5609907 C40.6108978,57.5609907 40.5008359,57.5896904 40.4601548,57.6470898 C40.4178019,57.7050464 40.3966254,57.8117647 40.3966254,57.9675232 L40.3966254,60.6678019 L42.2643344,60.6678019 C42.7786997,60.6678019 43.1094427,60.5914551 43.2498762,60.4390402 C43.3925387,60.2866254 43.5056656,59.9759443 43.5920433,59.5117337 L43.8751393,59.5117337 L43.8751393,62.3034056 L43.5920433,62.3034056 C43.5006502,61.8355728 43.3852941,61.5254489 43.2437461,61.3727554 C43.1024768,61.2220124 42.775356,61.1459443 42.2643344,61.1459443 L40.3966254,61.1459443 L40.3966254,64.1410217 C40.3966254,64.3814861 40.4735294,64.5221981 40.625387,64.5662229 C40.7769659,64.6082972 41.2314241,64.6305882 41.9887616,64.6305882 C42.8079567,64.6305882 43.4142724,64.5408669 43.8043653,64.3611455 C44.1939009,64.183096 44.5466563,63.749257 44.8567802,63.0596285 L45.1942105,63.0596285 L44.6441796,65.1037152 L38.1065015,65.1037152 L38.1065015,64.879969" id="Fill-16" fill="#1A1919"></path>
            <path d="M50.1617647,60.6847988 C50.8040248,60.4220433 51.123065,59.9271827 51.123065,59.1999381 C51.123065,58.5 50.8366254,58.023808 50.2620743,57.7677399 C49.9550155,57.6306502 49.5462539,57.5609907 49.0385759,57.5609907 C48.6964087,57.5609907 48.4857585,57.5863467 48.4094118,57.635387 C48.3333437,57.6847059 48.2951703,57.8000619 48.2951703,57.9795046 L48.2951703,60.9575851 C49.165356,60.9255418 49.7858824,60.8355418 50.1617647,60.6847988 Z M46.0265015,64.879969 C46.4912693,64.8359443 46.780774,64.7462229 46.8950155,64.6082972 C47.0098142,64.4712074 47.0674923,64.1527245 47.0674923,63.6506192 L47.0674923,58.4116718 C47.0674923,57.986192 47.0028483,57.7083901 46.8743963,57.5760372 C46.745387,57.4439628 46.4639628,57.359257 46.0265015,57.3252632 L46.0265015,57.101517 L49.3754489,57.101517 C50.0720433,57.101517 50.6532817,57.1881734 51.1180495,57.3659443 C51.9991022,57.700031 52.4415789,58.3166563 52.4415789,59.2116409 C52.4415789,59.8134985 52.2451393,60.2763158 51.8533746,60.5967492 C51.4618885,60.9202477 50.9296904,61.132291 50.2565015,61.2339938 L52.7486378,64.305418 C52.9010526,64.4918266 53.055418,64.629195 53.2078328,64.7152941 C53.3619195,64.8019505 53.5589164,64.8560062 53.7993808,64.879969 L53.7993808,65.1037152 L51.8517028,65.1037152 L48.8259752,61.3763777 L48.2951703,61.4050774 L48.2951703,63.7899381 C48.2951703,64.2374303 48.3620433,64.5205263 48.4988545,64.639226 C48.6331579,64.7612693 48.930743,64.8406811 49.3874303,64.879969 L49.3874303,65.1037152 L46.0265015,65.1037152 L46.0265015,64.879969 Z" id="Fill-17" fill="#1A1919"></path>
            <path d="M54.594613,62.6695356 C54.7974613,63.2137152 55.0370898,63.6475542 55.3129412,63.9679876 C55.7927554,64.5325077 56.3876471,64.8139319 57.0995666,64.8139319 C57.4860372,64.8139319 57.818452,64.6916099 58.0998762,64.4475232 C58.3810217,64.2031579 58.5214551,63.8629412 58.5214551,63.4271517 C58.5214551,63.032322 58.3810217,62.6882043 58.0976471,62.3984211 C57.911517,62.2136842 57.5233746,61.9358824 56.9301548,61.5664087 L55.8978019,60.9221981 C55.587678,60.723808 55.339969,60.525418 55.1555108,60.325356 C54.8127864,59.9422291 54.6403096,59.5220433 54.6403096,59.0625697 C54.6403096,58.4506811 54.8437152,57.9424458 55.2485759,57.5386997 C55.6551084,57.1318885 56.1928793,56.9304334 56.8604954,56.9304334 C57.1371827,56.9304334 57.4690402,56.9981424 57.8571827,57.1335604 C58.2433746,57.2678638 58.4654489,57.3372446 58.5214551,57.3372446 C58.670805,57.3372446 58.7741796,57.2999071 58.8318576,57.2302477 C58.8878638,57.159195 58.9318885,57.0591641 58.9639319,56.9304334 L59.2116409,56.9304334 L59.4777399,59.5050464 L59.187678,59.5050464 C58.9912384,58.7287616 58.6760991,58.1882043 58.2403096,57.8794737 C57.8047988,57.5743653 57.3759752,57.4186068 56.9504954,57.4186068 C56.620031,57.4186068 56.3316409,57.5166873 56.0856037,57.7120124 C55.838452,57.9067802 55.7144582,58.1776161 55.7144582,58.5236842 C55.7144582,58.8357585 55.8097523,59.1015789 55.9981115,59.3203096 C56.1873065,59.5460062 56.4807121,59.7795046 56.8774923,60.0235913 L57.9388235,60.6797833 C58.6047678,61.0899381 59.0739938,61.4660991 59.3470588,61.8068731 C59.6148297,62.1543344 59.7505263,62.5628173 59.7505263,63.0356656 C59.7505263,63.6712384 59.5097833,64.2003715 59.0319195,64.6239009 C58.5537771,65.0510526 57.9418885,65.2611455 57.1979257,65.2611455 C56.8231579,65.2611455 56.4333437,65.1917647 56.024582,65.0510526 C55.6180495,64.9089474 55.3842724,64.8376161 55.3249226,64.8376161 C55.1844892,64.8376161 55.0875232,64.8816409 55.038483,64.9682972 C54.9891641,65.0543963 54.9568421,65.1460681 54.9417957,65.2444272 L54.6756966,65.2444272 L54.3165325,62.6695356 L54.594613,62.6695356" id="Fill-18" fill="#1A1919"></path>
            <path d="M60.6031579,64.879969 C61.0946749,64.8443034 61.4134365,64.7713003 61.5588854,64.6578947 C61.704613,64.5478328 61.7776161,64.2580495 61.7776161,63.7918885 L61.7776161,58.4116718 C61.7776161,57.96613 61.704613,57.6810836 61.5588854,57.5523529 C61.4134365,57.4236223 61.0946749,57.3472755 60.6031579,57.3252632 L60.6031579,57.101517 L64.1814241,57.101517 L64.1814241,57.3252632 C63.687678,57.3472755 63.3694737,57.4236223 63.2234675,57.5523529 C63.0777399,57.6810836 63.0064087,57.96613 63.0064087,58.4116718 L63.0064087,63.7918885 C63.0064087,64.2580495 63.0777399,64.5478328 63.2234675,64.6578947 C63.3694737,64.7713003 63.687678,64.8443034 64.1814241,64.879969 L64.1814241,65.1037152 L60.6031579,65.1037152 L60.6031579,64.879969" id="Fill-19" fill="#1A1919"></path>
            <path d="M65.1385449,57.101517 L71.9799381,57.101517 L72.0443034,59.1559133 L71.7547988,59.1559133 C71.613808,58.5103096 71.4324149,58.0878947 71.2136842,57.8947988 C70.9966254,57.700031 70.5357585,57.603065 69.8358204,57.603065 L69.1626316,57.603065 L69.1626316,63.7918885 C69.1626316,64.2580495 69.2339628,64.5478328 69.3796904,64.6578947 C69.5256966,64.7713003 69.8444582,64.8443034 70.3376471,64.879969 L70.3376471,65.1037152 L66.8120433,65.1037152 L66.8120433,64.879969 C67.3236223,64.8406811 67.6426625,64.7562539 67.7677709,64.6255728 C67.8934365,64.4968421 67.9578019,64.173065 67.9578019,63.6506192 L67.9578019,57.603065 L67.2779257,57.603065 C66.6086378,57.603065 66.1525077,57.700031 65.9103715,57.8914551 C65.6693498,58.0845511 65.4862848,58.5066873 65.3645201,59.1559133 L65.0694427,59.1559133 L65.1385449,57.101517" id="Fill-20" fill="#1A1919"></path>
            <path d="M76.1714861,57.101517 L76.1714861,57.3252632 C75.8886687,57.316904 75.676904,57.3389164 75.5342415,57.3896285 C75.3921362,57.4406192 75.3224768,57.5523529 75.3224768,57.7203715 C75.3224768,57.7710836 75.3344582,57.8354489 75.356192,57.9117957 C75.3818266,57.9898142 75.4325387,58.0898452 75.5158514,58.216904 L77.296904,60.8288545 L79.033096,58.1762229 C79.10387,58.0608669 79.1501238,57.96613 79.1718576,57.8914551 C79.1958204,57.8165015 79.2055728,57.7624458 79.2055728,57.7270588 C79.2055728,57.5540248 79.1125077,57.4389474 78.9280495,57.3829412 C78.8174303,57.3472755 78.6290712,57.3288854 78.3599071,57.3252632 L78.3599071,57.101517 L81.0025077,57.101517 L81.0025077,57.3252632 C80.7581424,57.3372446 80.5416409,57.4085759 80.3499381,57.5439938 C80.0495666,57.7524149 79.7143653,58.1388854 79.3409907,58.7067492 L77.5532508,61.4357276 L77.5532508,63.7882663 C77.5532508,64.2560991 77.6295975,64.5478328 77.7817337,64.6629102 C77.9324768,64.7799381 78.2732508,64.8526625 78.8007121,64.879969 L78.8007121,65.1037152 L75.1087616,65.1037152 L75.1087616,64.879969 C75.6562848,64.8476471 75.9967802,64.7662848 76.1274613,64.6339319 C76.2598142,64.5021362 76.32613,64.173065 76.32613,63.6475542 L76.32613,61.5491331 L74.7429102,59.2252941 C74.195387,58.4269969 73.8122601,57.9151393 73.5901858,57.6880495 C73.3714551,57.4609598 73.102291,57.3405882 72.7888235,57.3252632 L72.7888235,57.101517 L76.1714861,57.101517" id="Fill-21" fill="#1A1919"></path>
            <polyline id="Fill-42" fill="#1A1919" points="0.096130031 25.3981115 0.096130031 26.3000619 36.3703096 26.3000619 35.2730341 25.3981115 0.096130031 25.3981115"></polyline>
            <polyline id="Fill-43" fill="#1A1919" points="49.7059133 25.3981115 48.6169969 26.3000619 84.8908978 26.3000619 84.8908978 25.3981115 49.7059133 25.3981115"></polyline>
            <polyline id="Fill-44" fill="#A18A53" points="53.0651703 22.7471517 44.9891331 22.7471517 42.4922601 15.0667802 39.9973375 22.7471517 31.9224149 22.7471517 38.4547988 27.4962539 38.4489474 27.5149226 35.9582043 35.1771827 35.9852322 35.1585139 42.4922601 30.429195 49.0009598 35.1585139 49.0282663 35.1771827 46.5375232 27.5149226 46.5313932 27.4962539 53.0228173 22.7789164 53.0651703 22.7471517"></polyline>
            <path d="M46.189226,27.4809288 L42.4922601,26.3000619 L48.4687616,34.5076161 L42.4922601,30.1658824 L42.4922601,26.3000619 L36.5140867,34.5109598 L38.7955728,27.4851084 L42.4922601,26.3000619 L32.8182353,23.1378019 L40.2074303,23.1378019 L42.4922601,26.3000619 L42.4922601,16.1080495 L44.7768111,23.1378019 L42.4922601,26.3000619 L52.1601548,23.1378019 L46.189226,27.4809288 Z M45.2307121,22.5309288 L45.2170588,22.5309288 L42.4922601,14.1469969 L39.7685759,22.5309288 L30.9527554,22.5309288 L38.0844892,27.7121981 L35.3596904,36.0966873 L42.4922601,30.9151393 L49.5975232,36.0757895 L49.5975232,36.0766254 L49.6265015,36.0966873 L46.9086687,27.7336533 L46.9019814,27.7121981 L53.9860681,22.563808 L53.9877399,22.563808 L54.0334365,22.5309288 L45.2307121,22.5309288 Z" id="Fill-45" fill="#431D1E"></path>
        </g>
    </g>
</svg>