<?xml version="1.0" encoding="UTF-8"?>
<svg width="340px" height="58px" viewBox="0 0 340 58" version="1.1" xmlns="http://www.w3.org/2000/svg" xmlns:xlink="http://www.w3.org/1999/xlink">
    <!-- Generator: Sketch 51.1 (57501) - http://www.bohemiancoding.com/sketch -->
    <title>TXSTATE_H_1e_Secondary_White_cmyk</title>
    <desc>Created with Sketch.</desc>
    <defs></defs>
    <g id="Explore" stroke="none" stroke-width="1" fill="none" fill-rule="evenodd">
        <g id="TXSTATE_H_1e_Secondary_White_cmyk" fill="#FFFFFE">
            <polyline id="Fill-1" points="0.043 50.631 0.043 52.376 145.477 52.376 146.043 50.631 0.043 50.631"></polyline>
            <polyline id="Fill-2" points="323.959 50.631 323.959 52.376 178.524 52.376 177.958 50.631 323.959 50.631"></polyline>
            <path d="M334.389,51.18 L335.208,51.18 C335.878,51.18 336.002,50.709 336.002,50.435 C336.002,49.717 335.506,49.717 335.234,49.717 L334.389,49.717 L334.389,51.18 Z M333.396,48.872 L335.208,48.872 C335.828,48.872 337.044,48.872 337.044,50.263 C337.044,51.231 336.426,51.427 336.051,51.552 C336.772,51.601 336.821,52.076 336.922,52.744 C336.971,53.167 337.044,53.885 337.193,54.134 L336.077,54.134 C336.051,53.885 335.878,52.546 335.878,52.472 C335.806,52.175 335.704,52.023 335.332,52.023 L334.412,52.023 L334.412,54.134 L333.396,54.134 L333.396,48.872 Z M331.225,51.492 C331.225,53.675 332.988,55.436 335.146,55.436 C337.33,55.436 339.094,53.638 339.094,51.492 C339.094,49.306 337.308,47.569 335.146,47.569 C333.011,47.569 331.225,49.284 331.225,51.492 Z M339.848,51.504 C339.848,54.083 337.739,56.193 335.159,56.193 C332.603,56.193 330.468,54.109 330.468,51.504 C330.468,48.848 332.651,46.814 335.159,46.814 C337.689,46.814 339.848,48.848 339.848,51.504 Z" id="Fill-3"></path>
            <path d="M0.289,11.065 L24.046,11.065 L24.273,18.205 L23.267,18.205 C22.773,15.962 22.149,14.501 21.39,13.823 C20.631,13.147 19.035,12.808 16.6,12.808 L14.261,12.808 L14.261,34.308 C14.261,35.927 14.514,36.93 15.02,37.321 C15.525,37.705 16.634,37.96 18.343,38.084 L18.343,38.864 L6.096,38.864 L6.096,38.084 C7.874,37.948 8.982,37.656 9.42,37.205 C9.857,36.756 10.076,35.627 10.076,33.815 L10.076,12.808 L7.716,12.808 C5.391,12.808 3.809,13.143 2.967,13.814 C2.126,14.485 1.493,15.95 1.068,18.205 L0.043,18.205 L0.289,11.065" id="Fill-4"></path>
            <path d="M26.95,38.084 C28.495,37.921 29.497,37.646 29.956,37.256 C30.413,36.871 30.643,35.888 30.643,34.308 L30.643,15.622 C30.643,14.129 30.417,13.155 29.966,12.696 C29.514,12.239 28.51,11.955 26.95,11.844 L26.95,11.065 L49.271,11.065 L49.413,17.077 L48.348,17.077 C47.991,15.226 47.458,14.026 46.747,13.483 C46.036,12.938 44.449,12.666 41.987,12.666 L36.268,12.666 C35.65,12.666 35.27,12.764 35.126,12.963 C34.981,13.16 34.91,13.534 34.91,14.08 L34.91,23.456 L41.393,23.456 C43.184,23.456 44.326,23.192 44.818,22.66 C45.311,22.13 45.707,21.054 46.009,19.435 L46.993,19.435 L46.993,29.139 L46.009,29.139 C45.694,27.51 45.291,26.435 44.798,25.909 C44.306,25.38 43.17,25.118 41.393,25.118 L34.91,25.118 L34.91,35.518 C34.91,36.354 35.173,36.847 35.7,36.997 C36.229,37.148 37.806,37.222 40.437,37.222 C43.285,37.222 45.389,36.911 46.743,36.289 C48.099,35.666 49.317,34.159 50.398,31.764 L51.568,31.764 L49.66,38.864 L26.95,38.864 L26.95,38.084" id="Fill-5"></path>
            <path d="M52.489,38.084 C53.613,37.962 54.467,37.664 55.051,37.193 C55.633,36.719 56.793,35.409 58.531,33.259 L65.017,25.233 L60.414,18.489 C58.409,15.55 57.001,13.722 56.189,13.002 C55.373,12.285 54.29,11.9 52.936,11.844 L52.936,11.065 L65.576,11.065 L65.576,11.844 C64.358,11.887 63.566,11.968 63.198,12.091 C62.641,12.268 62.362,12.656 62.362,13.255 C62.362,13.638 62.498,14.093 62.77,14.625 C62.905,14.9 63.096,15.212 63.341,15.568 L67.674,21.847 L72.389,16.114 C73.082,15.279 73.55,14.609 73.794,14.101 C73.943,13.801 74.019,13.527 74.019,13.281 C74.019,12.666 73.72,12.255 73.122,12.051 C72.756,11.927 72.087,11.86 71.116,11.844 L71.116,11.065 L81.07,11.065 L81.07,11.844 C79.948,11.872 79.079,12.051 78.463,12.379 C77.493,12.911 76.289,14.063 74.853,15.83 L68.781,23.446 L76.74,34.971 C77.591,36.213 78.299,37.001 78.865,37.337 C79.431,37.672 80.261,37.92 81.354,38.084 L81.354,38.864 L69.003,38.864 L69.003,38.084 C70.19,38.056 71.018,37.952 71.484,37.773 C71.951,37.594 72.186,37.248 72.186,36.739 C72.186,36.298 71.874,35.567 71.251,34.547 C70.628,33.526 68.905,30.947 66.086,26.811 L61.156,33.002 C60.438,33.914 59.936,34.58 59.651,35.001 C59.203,35.668 58.981,36.167 58.981,36.493 C58.981,37.091 59.331,37.513 60.037,37.756 C60.458,37.909 61.172,38.017 62.182,38.084 L62.182,38.864 L52.489,38.864 L52.489,38.084" id="Fill-6"></path>
            <path d="M98.93,28.072 L94.114,16.501 L89.277,28.072 L98.93,28.072 Z M80.836,38.864 L80.836,38.084 C81.915,37.962 82.725,37.556 83.266,36.864 C83.807,36.172 84.732,34.282 86.044,31.193 L94.797,10.573 L95.633,10.573 L106.101,34.39 C106.798,35.968 107.356,36.946 107.772,37.321 C108.19,37.693 108.892,37.948 109.875,38.084 L109.875,38.864 L99.191,38.864 L99.191,38.084 C100.419,37.976 101.212,37.842 101.566,37.685 C101.922,37.53 102.1,37.144 102.1,36.531 C102.1,36.328 102.03,35.968 101.895,35.45 C101.758,34.933 101.566,34.388 101.32,33.815 L99.639,29.776 L88.565,29.776 C87.474,32.525 86.822,34.202 86.61,34.806 C86.397,35.413 86.292,35.893 86.292,36.247 C86.292,36.955 86.579,37.444 87.153,37.717 C87.508,37.88 88.178,38.001 89.16,38.084 L89.16,38.864 L80.836,38.864 Z" id="Fill-7"></path>
            <path d="M112.256,30.41 C112.966,32.297 113.8,33.802 114.755,34.922 C116.422,36.88 118.491,37.859 120.963,37.859 C122.302,37.859 123.457,37.435 124.435,36.587 C125.411,35.739 125.898,34.555 125.898,33.036 C125.898,31.668 125.408,30.479 124.425,29.467 C123.784,28.825 122.432,27.86 120.371,26.576 L116.788,24.338 C115.709,23.655 114.848,22.963 114.205,22.267 C113.016,20.94 112.42,19.477 112.42,17.876 C112.42,15.755 113.125,13.992 114.533,12.583 C115.942,11.176 117.81,10.469 120.135,10.469 C121.092,10.469 122.244,10.705 123.591,11.177 C124.938,11.65 125.708,11.887 125.898,11.887 C126.418,11.887 126.777,11.764 126.977,11.517 C127.174,11.272 127.328,10.921 127.438,10.469 L128.299,10.469 L129.223,19.414 L128.218,19.414 C127.533,16.721 126.436,14.839 124.925,13.773 C123.413,12.706 121.92,12.172 120.442,12.172 C119.293,12.172 118.292,12.512 117.436,13.188 C116.582,13.865 116.154,14.805 116.154,16.009 C116.154,17.088 116.482,18.013 117.138,18.78 C117.792,19.559 118.81,20.372 120.19,21.219 L123.88,23.497 C126.189,24.92 127.817,26.225 128.766,27.414 C129.699,28.619 130.166,30.042 130.166,31.681 C130.166,33.884 129.335,35.725 127.674,37.202 C126.012,38.68 123.889,39.417 121.304,39.417 C120.005,39.417 118.647,39.172 117.231,38.68 C115.816,38.188 115.005,37.94 114.8,37.94 C114.308,37.94 113.976,38.092 113.806,38.393 C113.634,38.693 113.521,39.013 113.467,39.355 L112.544,39.355 L111.292,30.41 L112.256,30.41" id="Fill-8"></path>
            <path d="M196.154,30.41 C196.864,32.297 197.696,33.802 198.652,34.922 C200.318,36.88 202.388,37.859 204.858,37.859 C206.198,37.859 207.355,37.435 208.333,36.587 C209.308,35.739 209.796,34.555 209.796,33.036 C209.796,31.668 209.305,30.479 208.322,29.467 C207.682,28.825 206.33,27.86 204.269,26.576 L200.685,24.338 C199.606,23.655 198.745,22.963 198.102,22.267 C196.913,20.94 196.317,19.477 196.317,17.876 C196.317,15.755 197.021,13.992 198.431,12.583 C199.839,11.176 201.707,10.469 204.031,10.469 C204.988,10.469 206.141,10.705 207.487,11.177 C208.834,11.65 209.604,11.887 209.796,11.887 C210.315,11.887 210.675,11.764 210.874,11.517 C211.07,11.272 211.226,10.921 211.334,10.469 L212.197,10.469 L213.117,19.414 L212.114,19.414 C211.43,16.721 210.334,14.839 208.821,13.773 C207.31,12.706 205.815,12.172 204.339,12.172 C203.189,12.172 202.188,12.512 201.333,13.188 C200.479,13.865 200.051,14.805 200.051,16.009 C200.051,17.088 200.379,18.013 201.034,18.78 C201.689,19.559 202.707,20.372 204.086,21.219 L207.777,23.497 C210.085,24.92 211.714,26.225 212.662,27.414 C213.596,28.619 214.063,30.042 214.063,31.681 C214.063,33.884 213.231,35.725 211.569,37.202 C209.909,38.68 207.785,39.417 205.2,39.417 C203.899,39.417 202.544,39.172 201.129,38.68 C199.712,38.188 198.903,37.94 198.698,37.94 C198.205,37.94 197.873,38.092 197.702,38.393 C197.53,38.693 197.418,39.013 197.362,39.355 L196.441,39.355 L195.188,30.41 L196.154,30.41" id="Fill-9"></path>
            <path d="M218.14,11.065 L241.897,11.065 L242.122,18.205 L241.119,18.205 C240.625,15.962 240,14.501 239.24,13.823 C238.482,13.147 236.885,12.808 234.449,12.808 L232.11,12.808 L232.11,34.308 C232.11,35.927 232.363,36.93 232.87,37.321 C233.377,37.705 234.482,37.96 236.195,38.084 L236.195,38.864 L223.945,38.864 L223.945,38.084 C225.723,37.948 226.832,37.656 227.269,37.205 C227.705,36.756 227.925,35.627 227.925,33.815 L227.925,12.808 L225.567,12.808 C223.242,12.808 221.66,13.143 220.817,13.814 C219.976,14.485 219.345,15.95 218.921,18.205 L217.895,18.205 L218.14,11.065" id="Fill-10"></path>
            <path d="M260.604,28.072 L255.791,16.501 L250.955,28.072 L260.604,28.072 Z M242.51,38.864 L242.51,38.084 C243.591,37.962 244.399,37.556 244.942,36.864 C245.479,36.172 246.408,34.282 247.721,31.193 L256.474,10.573 L257.309,10.573 L267.777,34.39 C268.475,35.968 269.031,36.946 269.447,37.321 C269.865,37.693 270.568,37.948 271.551,38.084 L271.551,38.864 L260.868,38.864 L260.868,38.084 C262.096,37.976 262.887,37.842 263.243,37.685 C263.598,37.53 263.773,37.144 263.773,36.531 C263.773,36.328 263.706,35.968 263.569,35.45 C263.432,34.933 263.24,34.388 262.995,33.815 L261.314,29.776 L250.241,29.776 C249.15,32.525 248.496,34.202 248.287,34.806 C248.072,35.413 247.969,35.893 247.969,36.247 C247.969,36.955 248.256,37.444 248.83,37.717 C249.184,37.88 249.854,38.001 250.836,38.084 L250.836,38.864 L242.51,38.864 Z" id="Fill-11"></path>
            <path d="M271.993,11.065 L295.752,11.065 L295.977,18.205 L294.971,18.205 C294.479,15.962 293.854,14.501 293.095,13.823 C292.334,13.147 290.739,12.808 288.305,12.808 L285.965,12.808 L285.965,34.308 C285.965,35.927 286.219,36.93 286.726,37.321 C287.229,37.705 288.338,37.96 290.047,38.084 L290.047,38.864 L277.801,38.864 L277.801,38.084 C279.578,37.948 280.687,37.656 281.124,37.205 C281.563,36.756 281.78,35.627 281.78,33.815 L281.78,12.808 L279.42,12.808 C277.096,12.808 275.514,13.143 274.671,13.814 C273.831,14.485 273.197,15.95 272.773,18.205 L271.747,18.205 L271.993,11.065" id="Fill-12"></path>
            <path d="M299.285,38.084 C300.831,37.921 301.834,37.646 302.291,37.256 C302.749,36.871 302.979,35.888 302.979,34.308 L302.979,15.622 C302.979,14.129 302.754,13.155 302.302,12.696 C301.85,12.239 300.844,11.955 299.285,11.844 L299.285,11.065 L321.605,11.065 L321.751,17.077 L320.684,17.077 C320.33,15.226 319.794,14.026 319.083,13.483 C318.372,12.938 316.785,12.666 314.324,12.666 L308.604,12.666 C307.986,12.666 307.604,12.764 307.461,12.963 C307.316,13.16 307.244,13.534 307.244,14.08 L307.244,23.456 L313.727,23.456 C315.519,23.456 316.663,23.192 317.154,22.66 C317.648,22.13 318.044,21.054 318.344,19.435 L319.328,19.435 L319.328,29.139 L318.344,29.139 C318.03,27.51 317.625,26.435 317.134,25.909 C316.64,25.38 315.505,25.118 313.727,25.118 L307.244,25.118 L307.244,35.518 C307.244,36.354 307.508,36.847 308.035,36.997 C308.564,37.148 310.142,37.222 312.773,37.222 C315.622,37.222 317.724,36.911 319.08,36.289 C320.436,35.666 321.654,34.159 322.736,31.764 L323.904,31.764 L321.997,38.864 L299.285,38.864 L299.285,38.084" id="Fill-13"></path>
            <path d="M136.87,23.825 L162.002,32.042 L156.064,23.825 L162.002,5.551 L162.002,32.042 L167.943,23.825 L187.151,23.825 L162.002,32.042 L171.61,35.123 L177.545,53.388 L162.002,32.042 L162.002,42.094 L146.469,53.38 L162.002,32.042 L152.395,35.117 L136.87,23.825 Z M132.002,22.247 L132.121,22.334 L150.541,35.718 L150.524,35.772 L143.461,57.513 L143.534,57.459 L143.535,57.458 L162.002,44.042 L180.542,57.513 L173.46,35.718 L192,22.247 L169.083,22.247 L162.002,0.452 L154.92,22.247 L132.002,22.247 Z" id="Fill-14"></path>
        </g>
    </g>
</svg>