<?xml version="1.0" encoding="UTF-8"?>
<svg width="340px" height="58px" viewBox="0 0 340 58" version="1.1" xmlns="http://www.w3.org/2000/svg" xmlns:xlink="http://www.w3.org/1999/xlink">
    <!-- Generator: Sketch 51.1 (57501) - http://www.bohemiancoding.com/sketch -->
    <title>TXSTATE_H_1a_Secondary_3color_cmyk</title>
    <desc>Created with Sketch.</desc>
    <defs></defs>
    <g id="Explore" stroke="none" stroke-width="1" fill="none" fill-rule="evenodd">
        <g id="TXSTATE_H_1a_Secondary_3color_cmyk">
            <polyline id="Fill-1" fill="#1A1919" points="0.043 50.632 0.043 52.376 145.477 52.376 146.043 50.632 0.043 50.632"></polyline>
            <polyline id="Fill-2" fill="#1A1919" points="323.959 50.632 323.959 52.376 178.524 52.376 177.958 50.632 323.959 50.632"></polyline>
            <path d="M334.389,51.179 L335.208,51.179 C335.878,51.179 336.002,50.709 336.002,50.434 C336.002,49.716 335.506,49.716 335.234,49.716 L334.389,49.716 L334.389,51.179 Z M333.396,48.872 L335.208,48.872 C335.828,48.872 337.044,48.872 337.044,50.262 C337.044,51.231 336.426,51.427 336.051,51.552 C336.772,51.601 336.821,52.075 336.922,52.744 C336.971,53.167 337.044,53.885 337.193,54.133 L336.077,54.133 C336.051,53.885 335.878,52.546 335.878,52.471 C335.806,52.174 335.704,52.023 335.332,52.023 L334.412,52.023 L334.412,54.133 L333.396,54.133 L333.396,48.872 Z M331.225,51.491 C331.225,53.674 332.988,55.436 335.146,55.436 C337.33,55.436 339.094,53.637 339.094,51.491 C339.094,49.306 337.308,47.569 335.146,47.569 C333.011,47.569 331.225,49.283 331.225,51.491 Z M339.848,51.504 C339.848,54.083 337.739,56.192 335.159,56.192 C332.603,56.192 330.468,54.108 330.468,51.504 C330.468,48.848 332.651,46.813 335.159,46.813 C337.689,46.813 339.848,48.848 339.848,51.504 Z" id="Fill-3" fill="#1A1919"></path>
            <path d="M0.289,11.065 L24.046,11.065 L24.273,18.205 L23.267,18.205 C22.773,15.962 22.149,14.501 21.39,13.823 C20.631,13.147 19.035,12.807 16.6,12.807 L14.261,12.807 L14.261,34.307 C14.261,35.927 14.514,36.93 15.02,37.32 C15.525,37.706 16.634,37.961 18.343,38.084 L18.343,38.863 L6.096,38.863 L6.096,38.084 C7.874,37.948 8.982,37.656 9.42,37.206 C9.857,36.757 10.076,35.628 10.076,33.815 L10.076,12.807 L7.716,12.807 C5.391,12.807 3.809,13.143 2.967,13.814 C2.126,14.484 1.493,15.949 1.068,18.205 L0.043,18.205 L0.289,11.065" id="Fill-4" fill="#1A1919"></path>
            <path d="M26.95,38.084 C28.495,37.921 29.497,37.645 29.956,37.257 C30.413,36.87 30.643,35.887 30.643,34.307 L30.643,15.621 C30.643,14.129 30.417,13.154 29.966,12.695 C29.514,12.238 28.51,11.955 26.95,11.844 L26.95,11.065 L49.271,11.065 L49.413,17.076 L48.348,17.076 C47.991,15.225 47.458,14.026 46.747,13.482 C46.036,12.937 44.449,12.666 41.987,12.666 L36.268,12.666 C35.65,12.666 35.27,12.763 35.126,12.963 C34.981,13.16 34.91,13.533 34.91,14.079 L34.91,23.457 L41.393,23.457 C43.184,23.457 44.326,23.191 44.818,22.66 C45.311,22.131 45.707,21.053 46.009,19.435 L46.993,19.435 L46.993,29.138 L46.009,29.138 C45.694,27.51 45.291,26.434 44.798,25.908 C44.306,25.381 43.17,25.117 41.393,25.117 L34.91,25.117 L34.91,35.518 C34.91,36.353 35.173,36.846 35.7,36.997 C36.229,37.148 37.806,37.221 40.437,37.221 C43.285,37.221 45.389,36.911 46.743,36.288 C48.099,35.666 49.317,34.158 50.398,31.764 L51.568,31.764 L49.66,38.863 L26.95,38.863 L26.95,38.084" id="Fill-5" fill="#1A1919"></path>
            <path d="M52.489,38.084 C53.613,37.962 54.467,37.665 55.051,37.192 C55.633,36.719 56.793,35.408 58.531,33.258 L65.017,25.232 L60.414,18.488 C58.409,15.549 57.001,13.721 56.189,13.003 C55.373,12.285 54.29,11.899 52.936,11.844 L52.936,11.065 L65.576,11.065 L65.576,11.844 C64.358,11.886 63.566,11.967 63.198,12.091 C62.641,12.267 62.362,12.655 62.362,13.255 C62.362,13.637 62.498,14.093 62.77,14.625 C62.905,14.899 63.096,15.212 63.341,15.567 L67.674,21.846 L72.389,16.113 C73.082,15.278 73.55,14.608 73.794,14.101 C73.943,13.8 74.019,13.527 74.019,13.281 C74.019,12.666 73.72,12.256 73.122,12.05 C72.756,11.927 72.087,11.859 71.116,11.844 L71.116,11.065 L81.07,11.065 L81.07,11.844 C79.948,11.872 79.079,12.05 78.463,12.379 C77.493,12.911 76.289,14.062 74.853,15.829 L68.781,23.445 L76.74,34.97 C77.591,36.213 78.299,37.002 78.865,37.337 C79.431,37.672 80.261,37.92 81.354,38.084 L81.354,38.863 L69.003,38.863 L69.003,38.084 C70.19,38.056 71.018,37.952 71.484,37.773 C71.951,37.594 72.186,37.249 72.186,36.739 C72.186,36.299 71.874,35.566 71.251,34.547 C70.628,33.526 68.905,30.947 66.086,26.811 L61.156,33.003 C60.438,33.914 59.936,34.579 59.651,35.002 C59.203,35.669 58.981,36.167 58.981,36.492 C58.981,37.091 59.331,37.512 60.037,37.757 C60.458,37.908 61.172,38.016 62.182,38.084 L62.182,38.863 L52.489,38.863 L52.489,38.084" id="Fill-6" fill="#1A1919"></path>
            <path d="M98.93,28.072 L94.114,16.501 L89.277,28.072 L98.93,28.072 Z M80.836,38.863 L80.836,38.084 C81.915,37.962 82.725,37.556 83.266,36.863 C83.807,36.173 84.732,34.282 86.044,31.192 L94.797,10.573 L95.633,10.573 L106.101,34.39 C106.798,35.968 107.356,36.945 107.772,37.32 C108.19,37.692 108.892,37.948 109.875,38.084 L109.875,38.863 L99.191,38.863 L99.191,38.084 C100.419,37.975 101.212,37.841 101.566,37.685 C101.922,37.529 102.1,37.144 102.1,36.531 C102.1,36.328 102.03,35.967 101.895,35.449 C101.758,34.932 101.566,34.387 101.32,33.815 L99.639,29.775 L88.565,29.775 C87.474,32.524 86.822,34.201 86.61,34.806 C86.397,35.412 86.292,35.892 86.292,36.247 C86.292,36.954 86.579,37.444 87.153,37.716 C87.508,37.881 88.178,38.002 89.16,38.084 L89.16,38.863 L80.836,38.863 Z" id="Fill-7" fill="#1A1919"></path>
            <path d="M112.256,30.41 C112.966,32.298 113.8,33.802 114.755,34.923 C116.422,36.881 118.491,37.858 120.963,37.858 C122.302,37.858 123.457,37.434 124.435,36.587 C125.411,35.738 125.898,34.554 125.898,33.036 C125.898,31.669 125.408,30.478 124.425,29.466 C123.784,28.824 122.432,27.86 120.371,26.575 L116.788,24.338 C115.709,23.654 114.848,22.964 114.205,22.266 C113.016,20.94 112.42,19.477 112.42,17.877 C112.42,15.756 113.125,13.991 114.533,12.583 C115.942,11.175 117.81,10.469 120.135,10.469 C121.092,10.469 122.244,10.706 123.591,11.177 C124.938,11.649 125.708,11.886 125.898,11.886 C126.418,11.886 126.777,11.763 126.977,11.516 C127.174,11.271 127.328,10.921 127.438,10.469 L128.299,10.469 L129.223,19.414 L128.218,19.414 C127.533,16.72 126.436,14.84 124.925,13.773 C123.413,12.707 121.92,12.173 120.442,12.173 C119.293,12.173 118.292,12.511 117.436,13.187 C116.582,13.865 116.154,14.804 116.154,16.008 C116.154,17.089 116.482,18.012 117.138,18.779 C117.792,19.558 118.81,20.372 120.19,21.219 L123.88,23.498 C126.189,24.92 127.817,26.224 128.766,27.415 C129.699,28.619 130.166,30.042 130.166,31.681 C130.166,33.883 129.335,35.724 127.674,37.202 C126.012,38.679 123.889,39.418 121.304,39.418 C120.005,39.418 118.647,39.172 117.231,38.679 C115.816,38.187 115.005,37.94 114.8,37.94 C114.308,37.94 113.976,38.091 113.806,38.392 C113.634,38.692 113.521,39.012 113.467,39.355 L112.544,39.355 L111.292,30.41 L112.256,30.41" id="Fill-8" fill="#1A1919"></path>
            <path d="M196.154,30.41 C196.864,32.298 197.696,33.802 198.652,34.923 C200.318,36.881 202.388,37.858 204.858,37.858 C206.198,37.858 207.355,37.434 208.333,36.587 C209.308,35.738 209.796,34.554 209.796,33.036 C209.796,31.669 209.305,30.478 208.322,29.466 C207.682,28.824 206.33,27.86 204.269,26.575 L200.685,24.338 C199.606,23.654 198.745,22.964 198.102,22.266 C196.913,20.94 196.317,19.477 196.317,17.877 C196.317,15.756 197.021,13.991 198.431,12.583 C199.839,11.175 201.707,10.469 204.031,10.469 C204.988,10.469 206.141,10.706 207.487,11.177 C208.834,11.649 209.604,11.886 209.796,11.886 C210.315,11.886 210.675,11.763 210.874,11.516 C211.07,11.271 211.226,10.921 211.334,10.469 L212.197,10.469 L213.117,19.414 L212.114,19.414 C211.43,16.72 210.334,14.84 208.821,13.773 C207.31,12.707 205.815,12.173 204.339,12.173 C203.189,12.173 202.188,12.511 201.333,13.187 C200.479,13.865 200.051,14.804 200.051,16.008 C200.051,17.089 200.379,18.012 201.034,18.779 C201.689,19.558 202.707,20.372 204.086,21.219 L207.777,23.498 C210.085,24.92 211.714,26.224 212.662,27.415 C213.596,28.619 214.063,30.042 214.063,31.681 C214.063,33.883 213.231,35.724 211.569,37.202 C209.909,38.679 207.785,39.418 205.2,39.418 C203.899,39.418 202.544,39.172 201.129,38.679 C199.712,38.187 198.903,37.94 198.698,37.94 C198.205,37.94 197.873,38.091 197.702,38.392 C197.53,38.692 197.418,39.012 197.362,39.355 L196.441,39.355 L195.188,30.41 L196.154,30.41" id="Fill-9" fill="#1A1919"></path>
            <path d="M218.14,11.065 L241.897,11.065 L242.122,18.205 L241.119,18.205 C240.625,15.962 240,14.501 239.24,13.823 C238.482,13.147 236.885,12.807 234.449,12.807 L232.11,12.807 L232.11,34.307 C232.11,35.927 232.363,36.93 232.87,37.32 C233.377,37.706 234.482,37.961 236.195,38.084 L236.195,38.863 L223.945,38.863 L223.945,38.084 C225.723,37.948 226.832,37.656 227.269,37.206 C227.705,36.757 227.925,35.628 227.925,33.815 L227.925,12.807 L225.567,12.807 C223.242,12.807 221.66,13.143 220.817,13.814 C219.976,14.484 219.345,15.949 218.921,18.205 L217.895,18.205 L218.14,11.065" id="Fill-10" fill="#1A1919"></path>
            <path d="M260.604,28.072 L255.791,16.501 L250.955,28.072 L260.604,28.072 Z M242.51,38.863 L242.51,38.084 C243.591,37.962 244.399,37.556 244.942,36.863 C245.479,36.173 246.408,34.282 247.721,31.192 L256.474,10.573 L257.309,10.573 L267.777,34.39 C268.475,35.968 269.031,36.945 269.447,37.32 C269.865,37.692 270.568,37.948 271.551,38.084 L271.551,38.863 L260.868,38.863 L260.868,38.084 C262.096,37.975 262.887,37.841 263.243,37.685 C263.598,37.529 263.773,37.144 263.773,36.531 C263.773,36.328 263.706,35.967 263.569,35.449 C263.432,34.932 263.24,34.387 262.995,33.815 L261.314,29.775 L250.241,29.775 C249.15,32.524 248.496,34.201 248.287,34.806 C248.072,35.412 247.969,35.892 247.969,36.247 C247.969,36.954 248.256,37.444 248.83,37.716 C249.184,37.881 249.854,38.002 250.836,38.084 L250.836,38.863 L242.51,38.863 Z" id="Fill-11" fill="#1A1919"></path>
            <path d="M271.993,11.065 L295.752,11.065 L295.977,18.205 L294.971,18.205 C294.479,15.962 293.854,14.501 293.095,13.823 C292.334,13.147 290.739,12.807 288.305,12.807 L285.965,12.807 L285.965,34.307 C285.965,35.927 286.219,36.93 286.726,37.32 C287.229,37.706 288.338,37.961 290.047,38.084 L290.047,38.863 L277.801,38.863 L277.801,38.084 C279.578,37.948 280.687,37.656 281.124,37.206 C281.563,36.757 281.78,35.628 281.78,33.815 L281.78,12.807 L279.42,12.807 C277.096,12.807 275.514,13.143 274.671,13.814 C273.831,14.484 273.197,15.949 272.773,18.205 L271.747,18.205 L271.993,11.065" id="Fill-12" fill="#1A1919"></path>
            <path d="M299.285,38.084 C300.831,37.921 301.834,37.645 302.291,37.257 C302.749,36.87 302.979,35.887 302.979,34.307 L302.979,15.621 C302.979,14.129 302.754,13.154 302.302,12.695 C301.85,12.238 300.844,11.955 299.285,11.844 L299.285,11.065 L321.605,11.065 L321.751,17.076 L320.684,17.076 C320.33,15.225 319.794,14.026 319.083,13.482 C318.372,12.937 316.785,12.666 314.324,12.666 L308.604,12.666 C307.986,12.666 307.604,12.763 307.461,12.963 C307.316,13.16 307.244,13.533 307.244,14.079 L307.244,23.457 L313.727,23.457 C315.519,23.457 316.663,23.191 317.154,22.66 C317.648,22.131 318.044,21.053 318.344,19.435 L319.328,19.435 L319.328,29.138 L318.344,29.138 C318.03,27.51 317.625,26.434 317.134,25.908 C316.64,25.381 315.505,25.117 313.727,25.117 L307.244,25.117 L307.244,35.518 C307.244,36.353 307.508,36.846 308.035,36.997 C308.564,37.148 310.142,37.221 312.773,37.221 C315.622,37.221 317.724,36.911 319.08,36.288 C320.436,35.666 321.654,34.158 322.736,31.764 L323.904,31.764 L321.997,38.863 L299.285,38.863 L299.285,38.084" id="Fill-13" fill="#1A1919"></path>
            <polyline id="Fill-14" fill="#A18A53" points="189.483 22.813 168.488 22.813 162 2.844 155.514 22.813 134.52 22.813 151.505 35.153 151.487 35.202 145.016 55.119 145.083 55.069 162 42.778 178.917 55.069 178.985 55.119 172.515 35.202 172.499 35.153 189.374 22.89 189.483 22.813"></polyline>
            <path d="M171.607,35.116 L162,32.042 L177.533,53.381 L162,42.094 L162,32.042 L146.457,53.387 L152.392,35.124 L162,32.042 L136.851,23.824 L156.059,23.824 L162,32.042 L162,5.55 L167.938,23.824 L162,32.042 L187.132,23.824 L171.607,35.116 Z M169.118,22.248 L169.082,22.248 L162,0.452 L154.919,22.248 L132.002,22.248 L150.542,35.717 L143.46,57.512 L162,44.043 L180.467,57.458 L180.468,57.459 L180.541,57.512 L173.478,35.772 L173.461,35.717 L191.881,22.335 L192,22.248 L169.118,22.248 Z" id="Fill-15" fill="#431D1E"></path>
        </g>
    </g>
</svg>