<?xml version="1.0" encoding="utf-8"?>
<!-- Generator: Adobe Illustrator 19.2.1, SVG Export Plug-In . SVG Version: 6.00 Build 0)  -->
<svg version="1.1" id="_x32_0-30-70-20" xmlns="http://www.w3.org/2000/svg" xmlns:xlink="http://www.w3.org/1999/xlink" x="0px"
	 y="0px" viewBox="0 0 360 100.7" style="enable-background:new 0 0 360 100.7;" xml:space="preserve">
<style type="text/css">
	.st0{fill:#FFFFFF;}
</style>
<polygon class="st0" points="18,55.4 18,57.1 163.5,57.1 164,55.4 "/>
<polygon class="st0" points="342,55.4 342,57.1 196.5,57.1 196,55.4 "/>
<path class="st0" d="M357.8,56.3c0,2.6-2.1,4.7-4.7,4.7c-2.6,0-4.7-2.1-4.7-4.7c0-2.7,2.2-4.7,4.7-4.7
	C355.7,51.6,357.8,53.6,357.8,56.3z M349.2,56.3c0,2.2,1.8,3.9,3.9,3.9c2.2,0,3.9-1.8,3.9-3.9c0-2.2-1.8-3.9-3.9-3.9
	C351,52.3,349.2,54.1,349.2,56.3z M351.4,53.6h1.8c0.6,0,1.8,0,1.8,1.4c0,1-0.6,1.2-1,1.3c0.7,0,0.8,0.5,0.9,1.2
	c0,0.4,0.1,1.1,0.3,1.4h-1.1c0-0.2-0.2-1.6-0.2-1.7c-0.1-0.3-0.2-0.4-0.5-0.4h-0.9v2.1h-1V53.6z M352.4,56h0.8
	c0.7,0,0.8-0.5,0.8-0.7c0-0.7-0.5-0.7-0.8-0.7h-0.8V56z"/>
<g>
	<path class="st0" d="M76,69.3V70c-1.4,0.1-2.3,0.3-2.8,0.7c-0.4,0.4-0.6,1.2-0.6,2.6v11.8c0,1.9,0.3,3.4,0.8,4.5c1,2,2.9,3,5.6,3
		c3,0,5-1,6.1-3c0.6-1.1,0.9-2.9,0.9-5.2v-9.6c0-2-0.2-3.3-0.7-3.8c-0.5-0.5-1.4-0.8-2.7-1v-0.7H91V70c-1.4,0.2-2.4,0.5-2.8,1
		c-0.4,0.5-0.7,1.8-0.7,3.7v9.6c0,2.5-0.4,4.5-1.2,6c-1.4,2.6-4.2,3.9-8.2,3.9c-4,0-6.7-1.3-8.1-3.9c-0.8-1.4-1.2-3.2-1.2-5.5V73.3
		c0-1.3-0.2-2.2-0.6-2.6c-0.4-0.4-1.3-0.6-2.7-0.7v-0.7H76z"/>
	<path class="st0" d="M93.6,93.1c1.5-0.2,2.5-0.5,2.9-1c0.4-0.5,0.6-1.8,0.6-3.7V72.1l-0.5-0.6c-0.5-0.6-1-1-1.4-1.2
		c-0.4-0.1-0.9-0.2-1.7-0.3v-0.7h6.3L114.2,87V74.7c0-2-0.3-3.3-0.9-3.9c-0.4-0.4-1.3-0.6-2.6-0.8v-0.7h8.7V70
		c-1.4,0.1-2.3,0.5-2.8,1c-0.5,0.5-0.7,1.8-0.7,3.7v19.4h-0.6L98.9,74v14.4c0,2,0.3,3.3,0.9,3.9c0.4,0.4,1.2,0.7,2.6,0.8v0.7h-8.7
		V93.1z"/>
	<path class="st0" d="M122,93.1c1.5-0.1,2.5-0.3,2.9-0.7c0.4-0.3,0.7-1.2,0.7-2.6V73.3c0-1.4-0.2-2.2-0.7-2.6
		c-0.4-0.4-1.4-0.6-2.9-0.7v-0.7h10.9V70c-1.5,0.1-2.5,0.3-2.9,0.7c-0.4,0.4-0.7,1.3-0.7,2.6v16.4c0,1.4,0.2,2.3,0.7,2.6
		c0.4,0.3,1.4,0.6,2.9,0.7v0.7H122V93.1z"/>
	<path class="st0" d="M145.6,69.3V70c-0.9,0-1.6,0.1-1.9,0.2c-0.6,0.2-0.9,0.6-0.9,1.2c0,0.3,0.1,0.7,0.3,1.3
		c0.2,0.5,0.6,1.5,1.2,2.7l5.8,12.9l5.2-13.9c0.2-0.6,0.4-1.1,0.5-1.6c0.1-0.4,0.2-0.8,0.2-1c0-0.7-0.3-1.2-0.9-1.5
		c-0.4-0.1-1-0.2-1.8-0.3v-0.6h7.6V70c-0.8,0.1-1.4,0.3-1.7,0.6c-0.6,0.5-1.1,1.4-1.7,2.8l-8.2,20.8h-0.6l-9.1-20.3
		c-0.8-1.7-1.4-2.8-1.8-3.2c-0.5-0.4-1.1-0.7-2-0.7v-0.6H145.6z"/>
	<path class="st0" d="M163.6,93.1c1.4-0.1,2.2-0.4,2.6-0.7c0.4-0.3,0.6-1.2,0.6-2.6V73.3c0-1.3-0.2-2.2-0.6-2.6
		c-0.4-0.4-1.3-0.7-2.6-0.7v-0.7h19.6l0.1,5.3h-0.9c-0.3-1.6-0.8-2.7-1.4-3.2c-0.6-0.5-2-0.7-4.2-0.7h-5c-0.5,0-0.9,0.1-1,0.3
		c-0.1,0.2-0.2,0.5-0.2,1v8.2h5.7c1.6,0,2.6-0.2,3-0.7c0.4-0.5,0.8-1.4,1-2.8h0.9v8.5h-0.9c-0.3-1.4-0.6-2.4-1.1-2.8
		c-0.4-0.5-1.4-0.7-3-0.7h-5.7v9.1c0,0.7,0.2,1.2,0.7,1.3c0.5,0.1,1.8,0.2,4.2,0.2c2.5,0,4.4-0.3,5.5-0.8c1.2-0.5,2.3-1.9,3.2-4h1
		l-1.7,6.2h-20V93.1z"/>
	<path class="st0" d="M187.8,93.1c1.4-0.1,2.3-0.4,2.7-0.8c0.3-0.4,0.5-1.4,0.5-2.9v-16c0-1.3-0.2-2.1-0.6-2.6
		c-0.4-0.4-1.3-0.7-2.6-0.8v-0.7H198c2.1,0,3.9,0.3,5.3,0.8c2.7,1,4,2.9,4,5.6c0,1.8-0.6,3.2-1.8,4.2c-1.2,1-2.8,1.6-4.9,1.9
		l7.6,9.4c0.5,0.6,0.9,1,1.4,1.2c0.5,0.3,1.1,0.4,1.8,0.5v0.7h-5.9l-9.2-11.4l-1.6,0.1v7.3c0,1.4,0.2,2.2,0.6,2.6
		c0.4,0.4,1.3,0.6,2.7,0.7v0.7h-10.3V93.1z M200.4,80.3c2-0.8,2.9-2.3,2.9-4.5c0-2.1-0.9-3.6-2.6-4.4c-0.9-0.4-2.2-0.6-3.7-0.6
		c-1,0-1.7,0.1-1.9,0.2c-0.2,0.2-0.4,0.5-0.4,1.1v9.1C197.4,81,199.3,80.7,200.4,80.3z"/>
	<path class="st0" d="M213.9,86.3c0.6,1.7,1.4,3,2.2,4c1.5,1.7,3.3,2.6,5.5,2.6c1.2,0,2.2-0.4,3.1-1.1c0.9-0.7,1.3-1.8,1.3-3.1
		c0-1.2-0.4-2.2-1.3-3.1c-0.6-0.6-1.8-1.4-3.6-2.5l-3.1-2c-0.9-0.6-1.7-1.2-2.3-1.8c-1-1.2-1.6-2.5-1.6-3.9c0-1.9,0.6-3.4,1.9-4.7
		c1.2-1.2,2.9-1.9,4.9-1.9c0.8,0,1.9,0.2,3,0.6c1.2,0.4,1.9,0.6,2,0.6c0.5,0,0.8-0.1,0.9-0.3c0.2-0.2,0.3-0.5,0.4-0.9h0.8l0.8,7.9
		H228c-0.6-2.4-1.6-4-2.9-5c-1.3-0.9-2.6-1.4-3.9-1.4c-1,0-1.9,0.3-2.6,0.9c-0.8,0.6-1.1,1.4-1.1,2.5c0,0.9,0.3,1.8,0.9,2.4
		c0.6,0.7,1.5,1.4,2.7,2.1l3.2,2c2,1.2,3.5,2.4,4.3,3.4c0.8,1.1,1.2,2.3,1.2,3.7c0,1.9-0.7,3.6-2.2,4.8c-1.5,1.3-3.3,1.9-5.6,1.9
		c-1.1,0-2.3-0.2-3.6-0.6c-1.2-0.4-2-0.7-2.1-0.7c-0.4,0-0.7,0.1-0.9,0.4c-0.2,0.3-0.2,0.5-0.3,0.8h-0.8l-1.1-7.9H213.9z"/>
	<path class="st0" d="M232.3,93.1c1.5-0.1,2.5-0.3,2.9-0.7c0.4-0.3,0.7-1.2,0.7-2.6V73.3c0-1.4-0.2-2.2-0.7-2.6
		c-0.4-0.4-1.4-0.6-2.9-0.7v-0.7h10.9V70c-1.5,0.1-2.5,0.3-2.9,0.7c-0.4,0.4-0.7,1.3-0.7,2.6v16.4c0,1.4,0.2,2.3,0.7,2.6
		c0.4,0.3,1.4,0.6,2.9,0.7v0.7h-10.9V93.1z"/>
	<path class="st0" d="M246.1,69.3h20.9l0.2,6.3h-0.9c-0.4-2-1-3.3-1.7-3.8c-0.7-0.6-2.1-0.9-4.2-0.9h-2.1v18.9
		c0,1.4,0.2,2.3,0.7,2.6c0.4,0.3,1.4,0.6,2.9,0.7v0.7h-10.8v-0.7c1.6-0.1,2.5-0.4,2.9-0.8c0.4-0.4,0.6-1.4,0.6-3V70.9h-2.1
		c-2,0-3.4,0.3-4.2,0.9c-0.7,0.6-1.3,1.9-1.7,3.9h-0.9L246.1,69.3z"/>
	<path class="st0" d="M279.7,69.3V70c-0.9,0-1.5,0-1.9,0.2c-0.4,0.2-0.6,0.5-0.6,1c0,0.2,0,0.4,0.1,0.6c0.1,0.2,0.2,0.5,0.5,0.9
		l5.4,8l5.3-8.1c0.2-0.3,0.4-0.6,0.4-0.9c0.1-0.2,0.1-0.4,0.1-0.5c0-0.5-0.3-0.9-0.8-1c-0.3-0.1-0.9-0.2-1.7-0.2v-0.7h8.1V70
		c-0.7,0-1.4,0.3-2,0.7c-0.9,0.6-1.9,1.8-3.1,3.6l-5.5,8.3v7.2c0,1.4,0.2,2.3,0.7,2.7c0.5,0.4,1.5,0.6,3.1,0.7v0.7h-11.3v-0.7
		c1.7-0.1,2.7-0.3,3.1-0.7c0.4-0.4,0.6-1.4,0.6-3v-6.4l-4.8-7.1c-1.7-2.4-2.8-4-3.5-4.7c-0.7-0.7-1.5-1.1-2.5-1.1v-0.7H279.7z"/>
</g>
<path class="st0" d="M18.3,15.8H42l0.2,7.1h-1c-0.5-2.2-1.1-3.7-1.9-4.4c-0.8-0.7-2.4-1-4.8-1h-2.3v21.5c0,1.6,0.3,2.6,0.8,3
	c0.5,0.4,1.6,0.6,3.3,0.8v0.8H24.1v-0.8c1.8-0.1,2.9-0.4,3.3-0.9c0.4-0.4,0.7-1.6,0.7-3.4v-21h-2.4c-2.3,0-3.9,0.3-4.7,1
	c-0.8,0.7-1.5,2.1-1.9,4.4h-1L18.3,15.8z"/>
<path class="st0" d="M45,42.9c1.5-0.2,2.5-0.4,3-0.8c0.5-0.4,0.7-1.4,0.7-2.9V20.4c0-1.5-0.2-2.5-0.7-2.9c-0.5-0.5-1.5-0.7-3-0.9
	v-0.8h22.3l0.1,6h-1.1c-0.4-1.9-0.9-3-1.6-3.6c-0.7-0.5-2.3-0.8-4.8-0.8h-5.7c-0.6,0-1,0.1-1.1,0.3c-0.1,0.2-0.2,0.6-0.2,1.1v9.4
	h6.5c1.8,0,2.9-0.3,3.4-0.8c0.5-0.5,0.9-1.6,1.2-3.2h1v9.7h-1c-0.3-1.6-0.7-2.7-1.2-3.2c-0.5-0.5-1.6-0.8-3.4-0.8h-6.5v10.4
	c0,0.8,0.3,1.3,0.8,1.5c0.5,0.2,2.1,0.2,4.7,0.2c2.8,0,5-0.3,6.3-0.9c1.4-0.6,2.6-2.1,3.7-4.5h1.2l-1.9,7.1H45V42.9z"/>
<path class="st0" d="M70.5,42.9c1.1-0.1,2-0.4,2.6-0.9c0.6-0.5,1.7-1.8,3.5-3.9l6.5-8l-4.6-6.7c-2-2.9-3.4-4.8-4.2-5.5
	c-0.8-0.7-1.9-1.1-3.3-1.2v-0.8h12.6v0.8c-1.2,0-2,0.1-2.4,0.2c-0.6,0.2-0.8,0.6-0.8,1.2c0,0.4,0.1,0.8,0.4,1.4
	c0.1,0.3,0.3,0.6,0.6,0.9l4.3,6.3l4.7-5.7c0.7-0.8,1.2-1.5,1.4-2c0.1-0.3,0.2-0.6,0.2-0.8c0-0.6-0.3-1-0.9-1.2c-0.4-0.1-1-0.2-2-0.2
	v-0.8h10v0.8c-1.1,0-2,0.2-2.6,0.5c-1,0.5-2.2,1.7-3.6,3.5l-6.1,7.6l8,11.5c0.9,1.2,1.6,2,2.1,2.4c0.6,0.3,1.4,0.6,2.5,0.7v0.8H87
	v-0.8c1.2,0,2-0.1,2.5-0.3c0.5-0.2,0.7-0.5,0.7-1c0-0.4-0.3-1.2-0.9-2.2c-0.6-1-2.3-3.6-5.2-7.7l-4.9,6.2c-0.7,0.9-1.2,1.6-1.5,2
	c-0.4,0.7-0.7,1.2-0.7,1.5c0,0.6,0.4,1,1.1,1.3c0.4,0.2,1.1,0.3,2.1,0.3v0.8h-9.7V42.9z"/>
<path class="st0" d="M98.8,43.6v-0.8c1.1-0.1,1.9-0.5,2.4-1.2c0.5-0.7,1.5-2.6,2.8-5.7l8.8-20.6h0.8l10.5,23.8
	c0.7,1.6,1.3,2.6,1.7,2.9c0.4,0.4,1.1,0.6,2.1,0.8v0.8h-10.7v-0.8c1.2-0.1,2-0.2,2.4-0.4c0.4-0.2,0.5-0.5,0.5-1.2
	c0-0.2-0.1-0.6-0.2-1.1c-0.1-0.5-0.3-1.1-0.6-1.6l-1.7-4h-11.1c-1.1,2.7-1.7,4.4-2,5c-0.2,0.6-0.3,1.1-0.3,1.4
	c0,0.7,0.3,1.2,0.9,1.5c0.4,0.2,1,0.3,2,0.4v0.8H98.8z M116.9,32.8l-4.8-11.6l-4.8,11.6H116.9z"/>
<path class="st0" d="M130.3,35.2c0.7,1.9,1.5,3.4,2.5,4.5c1.7,2,3.7,2.9,6.2,2.9c1.3,0,2.5-0.4,3.5-1.3c1-0.8,1.5-2,1.5-3.6
	c0-1.4-0.5-2.6-1.5-3.6c-0.6-0.6-2-1.6-4.1-2.9l-3.6-2.2c-1.1-0.7-1.9-1.4-2.6-2.1c-1.2-1.3-1.8-2.8-1.8-4.4c0-2.1,0.7-3.9,2.1-5.3
	c1.4-1.4,3.3-2.1,5.6-2.1c1,0,2.1,0.2,3.5,0.7c1.3,0.5,2.1,0.7,2.3,0.7c0.5,0,0.9-0.1,1.1-0.4c0.2-0.2,0.4-0.6,0.5-1h0.9l0.9,8.9h-1
	c-0.7-2.7-1.8-4.6-3.3-5.6c-1.5-1.1-3-1.6-4.5-1.6c-1.1,0-2.2,0.3-3,1c-0.9,0.7-1.3,1.6-1.3,2.8c0,1.1,0.3,2,1,2.8
	c0.7,0.8,1.7,1.6,3.1,2.4l3.7,2.3c2.3,1.4,3.9,2.7,4.9,3.9c0.9,1.2,1.4,2.6,1.4,4.3c0,2.2-0.8,4-2.5,5.5c-1.7,1.5-3.8,2.2-6.4,2.2
	c-1.3,0-2.7-0.2-4.1-0.7c-1.4-0.5-2.2-0.7-2.4-0.7c-0.5,0-0.8,0.2-1,0.5c-0.2,0.3-0.3,0.6-0.3,1h-0.9l-1.3-8.9H130.3z"/>
<path class="st0" d="M214.2,35.2c0.7,1.9,1.5,3.4,2.5,4.5c1.7,2,3.7,2.9,6.2,2.9c1.3,0,2.5-0.4,3.5-1.3c1-0.8,1.5-2,1.5-3.6
	c0-1.4-0.5-2.6-1.5-3.6c-0.6-0.6-2-1.6-4.1-2.9l-3.6-2.2c-1.1-0.7-1.9-1.4-2.6-2.1c-1.2-1.3-1.8-2.8-1.8-4.4c0-2.1,0.7-3.9,2.1-5.3
	c1.4-1.4,3.3-2.1,5.6-2.1c1,0,2.1,0.2,3.5,0.7c1.3,0.5,2.1,0.7,2.3,0.7c0.5,0,0.9-0.1,1.1-0.4c0.2-0.2,0.4-0.6,0.5-1h0.9l0.9,8.9h-1
	c-0.7-2.7-1.8-4.6-3.3-5.6c-1.5-1.1-3-1.6-4.5-1.6c-1.1,0-2.2,0.3-3,1c-0.9,0.7-1.3,1.6-1.3,2.8c0,1.1,0.3,2,1,2.8
	c0.7,0.8,1.7,1.6,3.1,2.4l3.7,2.3c2.3,1.4,3.9,2.7,4.9,3.9c0.9,1.2,1.4,2.6,1.4,4.3c0,2.2-0.8,4-2.5,5.5c-1.7,1.5-3.8,2.2-6.4,2.2
	c-1.3,0-2.7-0.2-4.1-0.7c-1.4-0.5-2.2-0.7-2.4-0.7c-0.5,0-0.8,0.2-1,0.5c-0.2,0.3-0.3,0.6-0.3,1h-0.9l-1.3-8.9H214.2z"/>
<path class="st0" d="M236.1,15.8h23.8l0.2,7.1h-1c-0.5-2.2-1.1-3.7-1.9-4.4c-0.8-0.7-2.4-1-4.8-1h-2.3v21.5c0,1.6,0.3,2.6,0.8,3
	c0.5,0.4,1.6,0.6,3.3,0.8v0.8h-12.2v-0.8c1.8-0.1,2.9-0.4,3.3-0.9c0.4-0.4,0.7-1.6,0.7-3.4v-21h-2.4c-2.3,0-3.9,0.3-4.8,1
	c-0.8,0.7-1.5,2.1-1.9,4.4h-1L236.1,15.8z"/>
<path class="st0" d="M260.5,43.6v-0.8c1.1-0.1,1.9-0.5,2.4-1.2c0.5-0.7,1.5-2.6,2.8-5.7l8.8-20.6h0.8l10.5,23.8
	c0.7,1.6,1.3,2.6,1.7,2.9c0.4,0.4,1.1,0.6,2.1,0.8v0.8h-10.7v-0.8c1.2-0.1,2-0.2,2.4-0.4c0.4-0.2,0.5-0.5,0.5-1.2
	c0-0.2-0.1-0.6-0.2-1.1c-0.1-0.5-0.3-1.1-0.6-1.6l-1.7-4h-11.1c-1.1,2.7-1.7,4.4-2,5c-0.2,0.6-0.3,1.1-0.3,1.4
	c0,0.7,0.3,1.2,0.9,1.5c0.4,0.2,1,0.3,2,0.4v0.8H260.5z M278.6,32.8l-4.8-11.6L269,32.8H278.6z"/>
<path class="st0" d="M290,15.8h23.8L314,23h-1c-0.5-2.2-1.1-3.7-1.9-4.4c-0.8-0.7-2.4-1-4.8-1H304v21.5c0,1.6,0.3,2.6,0.8,3
	c0.5,0.4,1.6,0.6,3.3,0.8v0.8h-12.2v-0.8c1.8-0.1,2.9-0.4,3.3-0.9c0.4-0.4,0.7-1.6,0.7-3.4v-21h-2.4c-2.3,0-3.9,0.3-4.7,1
	c-0.8,0.7-1.5,2.1-1.9,4.4h-1L290,15.8z"/>
<path class="st0" d="M317.3,42.9c1.5-0.2,2.5-0.4,3-0.8c0.5-0.4,0.7-1.4,0.7-2.9V20.4c0-1.5-0.2-2.5-0.7-2.9c-0.5-0.5-1.5-0.7-3-0.9
	v-0.8h22.3l0.1,6h-1.1c-0.4-1.9-0.9-3-1.6-3.6c-0.7-0.5-2.3-0.8-4.8-0.8h-5.7c-0.6,0-1,0.1-1.1,0.3c-0.1,0.2-0.2,0.6-0.2,1.1v9.4
	h6.5c1.8,0,2.9-0.3,3.4-0.8c0.5-0.5,0.9-1.6,1.2-3.2h1v9.7h-1c-0.3-1.6-0.7-2.7-1.2-3.2c-0.5-0.5-1.6-0.8-3.4-0.8h-6.5v10.4
	c0,0.8,0.3,1.3,0.8,1.5c0.5,0.2,2.1,0.2,4.7,0.2c2.8,0,5-0.3,6.3-0.9c1.4-0.6,2.6-2.1,3.7-4.5h1.2l-1.9,7.1h-22.7V42.9z"/>
<path class="st0" d="M150,27l0.1,0.1l0,0l18.4,13.4l0,0.1l-7.1,21.7l0.1-0.1l0,0L180,48.8l18.5,13.5l-7.1-21.8L210,27h-22.9h0
	L180,5.2L172.9,27h0H150z M154.9,28.6l25.1,8.2l-5.9-8.2l5.9-18.3v26.5l5.9-8.2h19.2L180,36.8l0,0l9.6,3.1l5.9,18.3L180,36.8v10.1
	l-15.5,11.3L180,36.8l-9.6,3.1L154.9,28.6z"/>
</svg>
