<?xml version="1.0" encoding="UTF-8"?>
<!DOCTYPE svg PUBLIC "-//W3C//DTD SVG 1.1//EN" "http://www.w3.org/Graphics/SVG/1.1/DTD/svg11.dtd">
<svg version="1.1" xmlns="http://www.w3.org/2000/svg" xmlns:xlink="http://www.w3.org/1999/xlink" x="0" y="0" width="86.4" height="22.647" viewBox="0, 0, 86.4, 22.647">
  <g id="Layer_1">
    <g>
      <path d="M0,12.759 L0,13.202 L36.978,13.202 L37.122,12.759 z" fill="#1A1919"/>
      <path d="M45.238,12.759 L45.382,13.202 L82.36,13.202 L82.36,12.759 z" fill="#1A1919"/>
      <path d="M85.012,12.898 L85.22,12.898 C85.391,12.898 85.422,12.778 85.422,12.709 C85.422,12.526 85.296,12.526 85.227,12.526 L85.012,12.526 z M84.76,12.311 L85.22,12.311 C85.378,12.311 85.687,12.311 85.687,12.665 C85.687,12.911 85.53,12.961 85.435,12.993 C85.618,13.005 85.63,13.126 85.656,13.296 C85.669,13.403 85.687,13.586 85.725,13.649 L85.441,13.649 C85.435,13.586 85.391,13.246 85.391,13.227 C85.372,13.151 85.346,13.113 85.252,13.113 L85.018,13.113 L85.018,13.649 L84.76,13.649 z M84.208,12.977 C84.208,13.533 84.656,13.981 85.205,13.981 C85.76,13.981 86.208,13.523 86.208,12.977 C86.208,12.422 85.754,11.98 85.205,11.98 C84.662,11.98 84.208,12.416 84.208,12.977 M86.4,12.981 C86.4,13.636 85.864,14.173 85.208,14.173 C84.558,14.173 84.015,13.643 84.015,12.981 C84.015,12.305 84.57,11.788 85.208,11.788 C85.851,11.788 86.4,12.305 86.4,12.981" fill="#1A1919"/>
      <path d="M14.733,16.304 L14.733,16.478 C14.372,16.502 14.139,16.563 14.032,16.659 C13.925,16.755 13.872,16.976 13.872,17.321 L13.872,20.323 C13.872,20.816 13.939,21.2 14.073,21.474 C14.324,21.976 14.799,22.225 15.499,22.225 C16.266,22.225 16.78,21.969 17.043,21.456 C17.19,21.169 17.263,20.725 17.263,20.126 L17.263,17.683 C17.263,17.173 17.202,16.853 17.08,16.723 C16.957,16.593 16.725,16.512 16.383,16.478 L16.383,16.304 L18.556,16.304 L18.556,16.478 C18.192,16.518 17.955,16.606 17.843,16.741 C17.731,16.877 17.676,17.191 17.676,17.683 L17.676,20.126 C17.676,20.774 17.576,21.28 17.378,21.643 C17.011,22.313 16.314,22.647 15.288,22.647 C14.273,22.647 13.583,22.317 13.216,21.657 C13.017,21.302 12.918,20.835 12.918,20.255 L12.918,17.321 C12.918,16.979 12.865,16.76 12.76,16.663 C12.654,16.567 12.424,16.506 12.07,16.478 L12.07,16.304 z" fill="#1A1919"/>
      <path d="M19.224,22.341 C19.612,22.302 19.861,22.213 19.971,22.078 C20.081,21.942 20.136,21.627 20.136,21.132 L20.136,16.996 L20.008,16.845 C19.87,16.683 19.753,16.583 19.657,16.545 C19.561,16.507 19.416,16.485 19.224,16.479 L19.224,16.305 L20.826,16.305 L24.449,20.796 L24.449,17.676 C24.449,17.164 24.373,16.829 24.22,16.674 C24.119,16.575 23.896,16.509 23.551,16.479 L23.551,16.305 L25.755,16.305 L25.755,16.479 C25.398,16.515 25.16,16.602 25.04,16.74 C24.921,16.877 24.862,17.192 24.862,17.684 L24.862,22.625 L24.701,22.625 L20.549,17.478 L20.549,21.132 C20.549,21.645 20.623,21.979 20.773,22.135 C20.871,22.236 21.09,22.304 21.429,22.341 L21.429,22.515 L19.224,22.515 z" fill="#1A1919"/>
      <path d="M26.435,22.34 C26.817,22.314 27.064,22.257 27.177,22.17 C27.291,22.083 27.347,21.859 27.347,21.498 L27.347,17.322 C27.347,16.977 27.291,16.753 27.177,16.655 C27.064,16.556 26.817,16.497 26.435,16.479 L26.435,16.305 L29.212,16.305 L29.212,16.479 C28.83,16.497 28.583,16.556 28.47,16.655 C28.357,16.753 28.3,16.977 28.3,17.322 L28.3,21.498 C28.3,21.859 28.357,22.083 28.47,22.17 C28.583,22.257 28.83,22.314 29.212,22.34 L29.212,22.515 L26.435,22.515 z" fill="#1A1919"/>
      <path d="M32.422,16.304 L32.422,16.464 C32.187,16.467 32.027,16.483 31.942,16.511 C31.792,16.56 31.717,16.661 31.717,16.813 C31.717,16.891 31.744,16.999 31.797,17.139 C31.851,17.279 31.951,17.511 32.096,17.834 L33.565,21.103 L34.899,17.565 C34.958,17.409 35.003,17.276 35.033,17.168 C35.064,17.059 35.079,16.97 35.079,16.902 C35.079,16.719 35.001,16.594 34.846,16.529 C34.754,16.492 34.603,16.47 34.392,16.464 L34.392,16.304 L36.313,16.304 L36.313,16.464 C36.115,16.491 35.968,16.545 35.873,16.625 C35.729,16.744 35.587,16.984 35.447,17.344 L33.368,22.624 L33.227,22.624 L30.907,17.465 C30.711,17.028 30.554,16.755 30.437,16.648 C30.319,16.54 30.147,16.479 29.921,16.464 L29.921,16.304 z" fill="#1A1919"/>
      <path d="M37.015,22.34 C37.36,22.305 37.584,22.243 37.686,22.156 C37.788,22.069 37.84,21.85 37.84,21.498 L37.84,17.322 C37.84,16.989 37.79,16.771 37.689,16.669 C37.588,16.566 37.363,16.503 37.015,16.479 L37.015,16.305 L42.002,16.305 L42.034,17.647 L41.795,17.647 C41.716,17.234 41.597,16.965 41.438,16.845 C41.279,16.723 40.925,16.662 40.375,16.662 L39.096,16.662 C38.959,16.662 38.874,16.684 38.842,16.728 C38.809,16.773 38.793,16.856 38.793,16.979 L38.793,19.073 L40.242,19.073 C40.642,19.073 40.897,19.014 41.007,18.895 C41.117,18.777 41.206,18.536 41.273,18.174 L41.493,18.174 L41.493,20.343 L41.273,20.343 C41.202,19.979 41.113,19.738 41.002,19.621 C40.893,19.503 40.639,19.444 40.242,19.444 L38.793,19.444 L38.793,21.767 C38.793,21.955 38.852,22.064 38.97,22.098 C39.088,22.131 39.44,22.148 40.028,22.148 C40.665,22.148 41.134,22.079 41.437,21.94 C41.74,21.801 42.012,21.464 42.254,20.929 L42.515,20.929 L42.089,22.515 L37.015,22.515 z" fill="#1A1919"/>
      <path d="M46.37,19.086 C46.868,18.882 47.117,18.497 47.117,17.933 C47.117,17.39 46.894,17.02 46.448,16.822 C46.21,16.715 45.893,16.661 45.499,16.661 C45.233,16.661 45.071,16.68 45.011,16.718 C44.951,16.757 44.921,16.846 44.921,16.986 L44.921,19.297 C45.596,19.272 46.08,19.202 46.37,19.086 M43.161,22.34 C43.522,22.307 43.746,22.237 43.835,22.131 C43.924,22.024 43.968,21.777 43.968,21.387 L43.968,17.321 C43.968,16.991 43.919,16.775 43.819,16.673 C43.72,16.571 43.501,16.506 43.161,16.478 L43.161,16.304 L45.76,16.304 C46.301,16.304 46.752,16.373 47.112,16.51 C47.797,16.769 48.139,17.246 48.139,17.942 C48.139,18.41 47.987,18.768 47.683,19.018 C47.379,19.268 46.965,19.433 46.443,19.512 L48.377,21.895 C48.497,22.04 48.616,22.147 48.735,22.213 C48.854,22.28 49.007,22.322 49.194,22.34 L49.194,22.515 L47.681,22.515 L45.333,19.622 L44.921,19.645 L44.921,21.495 C44.921,21.842 44.974,22.062 45.08,22.155 C45.185,22.248 45.415,22.31 45.77,22.34 L45.77,22.515 L43.161,22.515 z" fill="#1A1919"/>
      <path d="M49.81,20.626 C49.969,21.048 50.155,21.384 50.369,21.635 C50.741,22.072 51.203,22.29 51.755,22.29 C52.054,22.29 52.313,22.195 52.531,22.006 C52.749,21.816 52.858,21.552 52.858,21.213 C52.858,20.907 52.749,20.642 52.529,20.415 C52.385,20.271 52.084,20.056 51.623,19.769 L50.822,19.269 C50.582,19.116 50.389,18.962 50.246,18.806 C49.98,18.51 49.847,18.183 49.847,17.826 C49.847,17.352 50.004,16.958 50.319,16.643 C50.634,16.328 51.051,16.171 51.57,16.171 C51.784,16.171 52.041,16.224 52.342,16.329 C52.643,16.435 52.815,16.487 52.858,16.487 C52.974,16.487 53.055,16.46 53.099,16.405 C53.143,16.35 53.177,16.272 53.202,16.171 L53.395,16.171 L53.6,18.169 L53.376,18.169 C53.223,17.567 52.978,17.147 52.64,16.909 C52.303,16.671 51.969,16.551 51.639,16.551 C51.382,16.551 51.158,16.627 50.967,16.778 C50.776,16.929 50.681,17.14 50.681,17.409 C50.681,17.65 50.754,17.856 50.9,18.027 C51.047,18.202 51.274,18.383 51.582,18.573 L52.407,19.082 C52.923,19.399 53.287,19.691 53.498,19.957 C53.708,20.226 53.812,20.543 53.812,20.91 C53.812,21.403 53.626,21.813 53.254,22.143 C52.883,22.474 52.409,22.638 51.832,22.638 C51.541,22.638 51.238,22.584 50.922,22.474 C50.605,22.364 50.424,22.308 50.378,22.308 C50.268,22.308 50.194,22.342 50.156,22.409 C50.118,22.476 50.093,22.548 50.08,22.624 L49.874,22.624 L49.595,20.626 z" fill="#1A1919"/>
      <path d="M54.473,22.34 C54.855,22.314 55.103,22.257 55.215,22.17 C55.329,22.083 55.385,21.859 55.385,21.498 L55.385,17.322 C55.385,16.977 55.329,16.753 55.215,16.655 C55.103,16.556 54.855,16.497 54.473,16.479 L54.473,16.305 L57.251,16.305 L57.251,16.479 C56.869,16.497 56.621,16.556 56.508,16.655 C56.395,16.753 56.338,16.977 56.338,17.322 L56.338,21.498 C56.338,21.859 56.395,22.083 56.508,22.17 C56.621,22.257 56.869,22.314 57.251,22.34 L57.251,22.515 L54.473,22.515 z" fill="#1A1919"/>
      <path d="M57.979,16.304 L63.287,16.304 L63.338,17.898 L63.113,17.898 C63.002,17.398 62.863,17.071 62.693,16.92 C62.524,16.769 62.167,16.693 61.623,16.693 L61.1,16.693 L61.1,21.497 C61.1,21.858 61.157,22.082 61.271,22.169 C61.383,22.256 61.631,22.313 62.013,22.34 L62.013,22.514 L59.276,22.514 L59.276,22.34 C59.673,22.31 59.921,22.244 60.019,22.144 C60.117,22.044 60.166,21.791 60.166,21.387 L60.166,16.693 L59.638,16.693 C59.118,16.693 58.766,16.768 58.577,16.918 C58.389,17.068 58.248,17.394 58.153,17.898 L57.925,17.898 z" fill="#1A1919"/>
      <path d="M66.541,16.304 L66.541,16.478 C66.321,16.472 66.156,16.488 66.046,16.528 C65.936,16.568 65.881,16.653 65.881,16.785 C65.881,16.825 65.89,16.874 65.908,16.934 C65.926,16.994 65.968,17.072 66.032,17.17 L67.414,19.196 L68.762,17.138 C68.816,17.049 68.852,16.976 68.869,16.918 C68.886,16.86 68.894,16.817 68.894,16.79 C68.894,16.655 68.823,16.567 68.679,16.524 C68.593,16.496 68.447,16.481 68.239,16.478 L68.239,16.304 L70.29,16.304 L70.29,16.478 C70.101,16.487 69.932,16.543 69.782,16.648 C69.55,16.809 69.29,17.11 69,17.551 L67.614,19.668 L67.614,21.494 C67.614,21.856 67.672,22.083 67.789,22.173 C67.907,22.263 68.171,22.319 68.58,22.34 L68.58,22.514 L65.716,22.514 L65.716,22.34 C66.141,22.316 66.404,22.253 66.506,22.15 C66.609,22.049 66.66,21.793 66.66,21.384 L66.66,19.755 L65.432,17.954 C65.007,17.333 64.709,16.935 64.538,16.76 C64.367,16.584 64.159,16.49 63.914,16.478 L63.914,16.304 z" fill="#1A1919"/>
      <path d="M0.063,2.699 L6.103,2.699 L6.161,4.514 L5.905,4.514 C5.78,3.944 5.621,3.573 5.428,3.4 C5.235,3.228 4.829,3.142 4.21,3.142 L3.615,3.142 L3.615,8.609 C3.615,9.021 3.68,9.276 3.808,9.375 C3.937,9.473 4.219,9.538 4.653,9.569 L4.653,9.767 L1.539,9.767 L1.539,9.569 C1.992,9.534 2.273,9.46 2.385,9.345 C2.496,9.231 2.551,8.944 2.551,8.483 L2.551,3.142 L1.951,3.142 C1.36,3.142 0.958,3.227 0.744,3.398 C0.53,3.568 0.369,3.941 0.261,4.514 L-0,4.514 z" fill="#1A1919"/>
      <path d="M6.842,9.569 C7.235,9.527 7.49,9.457 7.606,9.359 C7.723,9.26 7.781,9.01 7.781,8.609 L7.781,3.857 C7.781,3.478 7.724,3.23 7.609,3.114 C7.494,2.997 7.239,2.925 6.842,2.897 L6.842,2.699 L12.517,2.699 L12.554,4.227 L12.283,4.227 C12.192,3.757 12.056,3.452 11.876,3.314 C11.695,3.175 11.291,3.106 10.665,3.106 L9.211,3.106 C9.054,3.106 8.958,3.131 8.921,3.182 C8.884,3.232 8.866,3.327 8.866,3.465 L8.866,5.85 L10.514,5.85 C10.97,5.85 11.26,5.782 11.385,5.647 C11.51,5.513 11.611,5.239 11.688,4.827 L11.938,4.827 L11.938,7.294 L11.688,7.294 C11.608,6.881 11.505,6.607 11.38,6.473 C11.255,6.339 10.966,6.272 10.514,6.272 L8.866,6.272 L8.866,8.917 C8.866,9.129 8.933,9.254 9.067,9.293 C9.201,9.331 9.602,9.35 10.271,9.35 C10.995,9.35 11.53,9.271 11.875,9.112 C12.219,8.954 12.529,8.571 12.804,7.962 L13.102,7.962 L12.616,9.767 L6.842,9.767 z" fill="#1A1919"/>
      <path d="M13.336,9.569 C13.622,9.538 13.839,9.462 13.987,9.342 C14.135,9.222 14.43,8.889 14.872,8.342 L16.521,6.301 L15.351,4.586 C14.841,3.839 14.483,3.374 14.277,3.192 C14.069,3.009 13.794,2.911 13.449,2.897 L13.449,2.699 L16.663,2.699 L16.663,2.897 C16.354,2.908 16.152,2.928 16.059,2.96 C15.917,3.005 15.846,3.103 15.846,3.256 C15.846,3.353 15.881,3.469 15.95,3.604 C15.984,3.674 16.033,3.753 16.095,3.844 L17.197,5.44 L18.396,3.982 C18.572,3.77 18.691,3.6 18.753,3.471 C18.791,3.395 18.81,3.325 18.81,3.262 C18.81,3.106 18.734,3.002 18.582,2.95 C18.489,2.918 18.319,2.901 18.072,2.897 L18.072,2.699 L20.603,2.699 L20.603,2.897 C20.318,2.904 20.097,2.95 19.94,3.033 C19.694,3.168 19.387,3.461 19.022,3.91 L17.478,5.847 L19.502,8.777 C19.718,9.093 19.898,9.294 20.042,9.379 C20.186,9.464 20.397,9.527 20.675,9.569 L20.675,9.767 L17.535,9.767 L17.535,9.569 C17.837,9.562 18.047,9.535 18.166,9.49 C18.284,9.444 18.344,9.357 18.344,9.227 C18.344,9.115 18.265,8.929 18.106,8.67 C17.948,8.41 17.51,7.754 16.793,6.703 L15.54,8.277 C15.357,8.509 15.229,8.678 15.157,8.785 C15.043,8.955 14.987,9.081 14.987,9.164 C14.987,9.316 15.076,9.424 15.255,9.486 C15.362,9.524 15.544,9.552 15.8,9.569 L15.8,9.767 L13.336,9.767 z" fill="#1A1919"/>
      <path d="M25.144,7.023 L23.92,4.081 L22.69,7.023 z M20.543,9.767 L20.543,9.569 C20.818,9.538 21.024,9.435 21.161,9.258 C21.299,9.083 21.534,8.602 21.868,7.816 L24.093,2.574 L24.306,2.574 L26.967,8.63 C27.145,9.031 27.286,9.279 27.392,9.375 C27.499,9.469 27.677,9.534 27.927,9.569 L27.927,9.767 L25.21,9.767 L25.21,9.569 C25.523,9.541 25.724,9.507 25.814,9.467 C25.905,9.428 25.95,9.33 25.95,9.174 C25.95,9.122 25.932,9.031 25.898,8.899 C25.863,8.767 25.814,8.629 25.752,8.483 L25.324,7.456 L22.509,7.456 C22.231,8.155 22.065,8.581 22.012,8.735 C21.958,8.889 21.931,9.012 21.931,9.102 C21.931,9.281 22.004,9.406 22.15,9.475 C22.24,9.517 22.41,9.548 22.66,9.569 L22.66,9.767 z" fill="#1A1919"/>
      <path d="M28.532,7.618 C28.713,8.098 28.925,8.481 29.167,8.765 C29.591,9.263 30.117,9.512 30.746,9.512 C31.086,9.512 31.38,9.404 31.629,9.188 C31.877,8.973 32.001,8.672 32.001,8.286 C32.001,7.938 31.876,7.635 31.626,7.378 C31.463,7.215 31.119,6.97 30.595,6.643 L29.684,6.074 C29.41,5.9 29.191,5.725 29.028,5.547 C28.725,5.21 28.574,4.838 28.574,4.431 C28.574,3.892 28.753,3.443 29.111,3.085 C29.469,2.727 29.944,2.548 30.535,2.548 C30.779,2.548 31.072,2.608 31.414,2.728 C31.757,2.848 31.952,2.908 32.001,2.908 C32.133,2.908 32.224,2.877 32.275,2.814 C32.325,2.752 32.364,2.663 32.392,2.548 L32.611,2.548 L32.846,4.822 L32.591,4.822 C32.416,4.137 32.137,3.659 31.753,3.388 C31.369,3.117 30.989,2.981 30.613,2.981 C30.321,2.981 30.067,3.067 29.849,3.239 C29.632,3.411 29.523,3.65 29.523,3.956 C29.523,4.231 29.606,4.466 29.773,4.661 C29.94,4.859 30.198,5.066 30.549,5.281 L31.488,5.86 C32.075,6.222 32.489,6.554 32.73,6.856 C32.967,7.163 33.086,7.524 33.086,7.941 C33.086,8.501 32.875,8.969 32.452,9.345 C32.03,9.721 31.49,9.908 30.833,9.908 C30.502,9.908 30.157,9.846 29.797,9.721 C29.437,9.595 29.231,9.533 29.179,9.533 C29.054,9.533 28.969,9.571 28.926,9.648 C28.882,9.724 28.854,9.805 28.84,9.892 L28.605,9.892 L28.287,7.618 z" fill="#1A1919"/>
      <path d="M49.864,7.618 C50.044,8.098 50.256,8.481 50.499,8.765 C50.923,9.263 51.449,9.512 52.077,9.512 C52.418,9.512 52.712,9.404 52.961,9.188 C53.209,8.973 53.333,8.672 53.333,8.286 C53.333,7.938 53.208,7.635 52.958,7.378 C52.795,7.215 52.451,6.97 51.927,6.643 L51.016,6.074 C50.742,5.9 50.523,5.725 50.359,5.547 C50.057,5.21 49.906,4.838 49.906,4.431 C49.906,3.892 50.085,3.443 50.443,3.085 C50.801,2.727 51.276,2.548 51.867,2.548 C52.11,2.548 52.403,2.608 52.746,2.728 C53.088,2.848 53.284,2.908 53.333,2.908 C53.465,2.908 53.556,2.877 53.607,2.814 C53.657,2.752 53.696,2.663 53.724,2.548 L53.943,2.548 L54.177,4.822 L53.922,4.822 C53.748,4.137 53.469,3.659 53.085,3.388 C52.701,3.117 52.32,2.981 51.945,2.981 C51.653,2.981 51.399,3.067 51.181,3.239 C50.964,3.411 50.855,3.65 50.855,3.956 C50.855,4.231 50.938,4.466 51.105,4.661 C51.271,4.859 51.53,5.066 51.881,5.281 L52.819,5.86 C53.406,6.222 53.82,6.554 54.061,6.856 C54.299,7.163 54.418,7.524 54.418,7.941 C54.418,8.501 54.206,8.969 53.783,9.345 C53.361,9.721 52.821,9.908 52.164,9.908 C51.833,9.908 51.489,9.846 51.129,9.721 C50.769,9.595 50.563,9.533 50.511,9.533 C50.386,9.533 50.301,9.571 50.258,9.648 C50.214,9.724 50.185,9.805 50.171,9.892 L49.937,9.892 L49.619,7.618 z" fill="#1A1919"/>
      <path d="M55.455,2.699 L61.496,2.699 L61.553,4.514 L61.298,4.514 C61.172,3.944 61.013,3.573 60.82,3.4 C60.627,3.228 60.221,3.142 59.602,3.142 L59.007,3.142 L59.007,8.609 C59.007,9.021 59.071,9.276 59.2,9.375 C59.329,9.473 59.61,9.538 60.046,9.569 L60.046,9.767 L56.931,9.767 L56.931,9.569 C57.383,9.534 57.665,9.46 57.776,9.345 C57.887,9.231 57.943,8.944 57.943,8.483 L57.943,3.142 L57.344,3.142 C56.752,3.142 56.35,3.227 56.136,3.398 C55.922,3.568 55.761,3.941 55.654,4.514 L55.393,4.514 z" fill="#1A1919"/>
      <path d="M66.252,7.023 L65.028,4.081 L63.798,7.023 z M61.651,9.767 L61.651,9.569 C61.926,9.538 62.131,9.435 62.269,9.258 C62.406,9.083 62.642,8.602 62.976,7.816 L65.202,2.574 L65.414,2.574 L68.075,8.63 C68.253,9.031 68.394,9.279 68.5,9.375 C68.606,9.469 68.785,9.534 69.035,9.569 L69.035,9.767 L66.319,9.767 L66.319,9.569 C66.631,9.541 66.832,9.507 66.923,9.467 C67.013,9.428 67.057,9.33 67.057,9.174 C67.057,9.122 67.04,9.031 67.006,8.899 C66.971,8.767 66.922,8.629 66.86,8.483 L66.432,7.456 L63.617,7.456 C63.339,8.155 63.173,8.581 63.12,8.735 C63.065,8.889 63.039,9.012 63.039,9.102 C63.039,9.281 63.112,9.406 63.258,9.475 C63.348,9.517 63.518,9.548 63.768,9.569 L63.768,9.767 z" fill="#1A1919"/>
      <path d="M69.147,2.699 L75.188,2.699 L75.245,4.514 L74.989,4.514 C74.865,3.944 74.706,3.573 74.513,3.4 C74.319,3.228 73.913,3.142 73.295,3.142 L72.7,3.142 L72.7,8.609 C72.7,9.021 72.764,9.276 72.893,9.375 C73.021,9.473 73.303,9.538 73.737,9.569 L73.737,9.767 L70.624,9.767 L70.624,9.569 C71.076,9.534 71.358,9.46 71.469,9.345 C71.581,9.231 71.636,8.944 71.636,8.483 L71.636,3.142 L71.035,3.142 C70.445,3.142 70.042,3.227 69.828,3.398 C69.614,3.568 69.453,3.941 69.345,4.514 L69.085,4.514 z" fill="#1A1919"/>
      <path d="M76.087,9.569 C76.48,9.527 76.735,9.457 76.851,9.359 C76.968,9.26 77.026,9.01 77.026,8.609 L77.026,3.857 C77.026,3.478 76.969,3.23 76.854,3.114 C76.739,2.997 76.483,2.925 76.087,2.897 L76.087,2.699 L81.762,2.699 L81.799,4.227 L81.528,4.227 C81.438,3.757 81.302,3.452 81.121,3.314 C80.94,3.175 80.537,3.106 79.911,3.106 L78.457,3.106 C78.299,3.106 78.202,3.131 78.166,3.182 C78.129,3.232 78.111,3.327 78.111,3.465 L78.111,5.85 L79.759,5.85 C80.215,5.85 80.506,5.782 80.63,5.647 C80.756,5.513 80.857,5.239 80.933,4.827 L81.183,4.827 L81.183,7.294 L80.933,7.294 C80.853,6.881 80.75,6.607 80.625,6.473 C80.5,6.339 80.211,6.272 79.759,6.272 L78.111,6.272 L78.111,8.917 C78.111,9.129 78.178,9.254 78.312,9.293 C78.446,9.331 78.847,9.35 79.517,9.35 C80.241,9.35 80.775,9.271 81.12,9.112 C81.465,8.954 81.775,8.571 82.05,7.962 L82.347,7.962 L81.862,9.767 L76.087,9.767 z" fill="#1A1919"/>
      <path d="M48.168,5.686 L42.838,5.686 L42.83,5.686 L41.18,0.609 L39.531,5.686 L39.522,5.686 L34.193,5.686 L38.512,8.824 L38.507,8.836 L36.862,13.9 L36.879,13.888 L41.18,10.762 L45.482,13.888 L45.499,13.9 L43.854,8.836 L43.85,8.824 L48.14,5.706 z" fill="#A18A53"/>
      <path d="M43.623,8.814 L41.18,8.032 L45.13,13.458 L41.18,10.588 L41.18,8.032 L37.228,13.46 L38.737,8.816 L41.18,8.032 L34.786,5.943 L39.67,5.943 L41.18,8.032 L41.18,1.297 L42.69,5.943 L41.18,8.032 L47.57,5.943 z M42.99,5.542 L42.981,5.542 L41.18,-0 L39.38,5.542 L39.371,5.542 L33.553,5.542 L38.267,8.967 L36.466,14.509 L41.18,11.084 L45.876,14.495 L45.876,14.495 L45.895,14.509 L44.099,8.981 L44.094,8.967 L48.778,5.564 L48.808,5.542 z" fill="#431D1E"/>
    </g>
  </g>
</svg>
