<svg version="1.1" id="Layer_1" xmlns="http://www.w3.org/2000/svg" xmlns:xlink="http://www.w3.org/1999/xlink" x="0px" y="0px"
	 viewBox="0 0 157.7 46" enable-background="new 0 0 157.7 46" xml:space="preserve">
<g>
	<path fill="#571D1F" d="M21.7,45.1H8.6c-2.6,0-3.9-1.2-3.9-3.7v-5.2h8.7v2.9h3.2v-4H9.9c-3.7,0-5.5-1.7-5.5-5.1V12.3
		c0-2.9,1.4-4.4,4.6-4.4c0.9,0,2.2,0.2,3,0.3l4.6,1V7.9h9v33.5C25.6,44,24.3,45.1,21.7,45.1z M16.6,15.6L15,15.3
		c-0.4-0.1-0.6-0.1-1-0.1c-0.6,0-0.7,0.2-0.7,0.7v11.4c0,0.7,0.1,0.9,0.9,0.9h2.3V15.6z"/>
	<path fill="#571D1F" d="M38.9,35.5v-1.2l-5.4,0.9c-1.1,0.2-1.9,0.4-2.7,0.4c-2.5,0-3.7-1.3-3.7-3.7V22c0-2.5,1.2-3.7,3.9-3.7h8v-4
		h-3.6v2.9h-7.9v-5.6c0-2.5,1.2-3.7,3.9-3.7h12.3c2.6,0,3.8,1.2,3.8,3.7v23.9H38.9z M38.9,24h-3.3v5l3.3-0.3V24z"/>
	<path fill="#571D1F" d="M54.4,35.5c-2.6,0-3.8-1.2-3.8-3.7V15.5H48V7.9h2.6V1.7h9v6.3h3.2v7.5h-3.2V28h3.5v7.5H54.4z"/>
	<path fill="#571D1F" d="M80.9,35.5H67.8c-2.7,0-3.9-1.2-3.9-3.7V11.6c0-2.5,1.2-3.7,3.9-3.7h13.1c2.6,0,3.8,1.2,3.8,3.7v20.2
		C84.7,34.3,83.5,35.5,80.9,35.5z M76,15.2h-3.2v13H76V15.2z"/>
</g>
<g>
	<path fill="#571D1F" d="M8.5,5h-2v1.7H4.7V1.4h3.8c0.6,0,0.9,0.2,0.9,0.6v2.4C9.5,4.8,9.2,5,8.5,5z M7.7,2.4H6.5V4h1.2V2.4z"/>
	<path fill="#571D1F" d="M14,6.7h-3.1c-0.6,0-0.9-0.2-0.9-0.6V2c0-0.4,0.3-0.6,0.9-0.6H14c0.6,0,0.9,0.2,0.9,0.6v4.1
		C14.9,6.5,14.6,6.7,14,6.7z M13.1,2.4h-1.3v3.3h1.3V2.4z"/>
	<path fill="#571D1F" d="M21.6,6.7h-1.9L19,4.5l-0.6,2.2h-1.9l-1.3-5.3h1.9l0.6,2.9l0.6-2.9h1.5l0.6,2.9L21,1.4h1.9L21.6,6.7z"/>
	<path fill="#571D1F" d="M23.2,6.7V1.4h4.2v1.1H25v1h1.9v1H25v1.2h2.4v1.1H23.2z"/>
	<path fill="#571D1F" d="M31,6.7l-1.1-2V3.8h0.9V2.4h-1.1v4.3h-1.8V1.4h3.8c0.6,0,0.9,0.2,0.9,0.6v1.8c0,0.4-0.3,0.6-0.9,0.6h-0.1
		l1.3,2.2v0H31z"/>
	<path fill="#571D1F" d="M35,2.5v1h1.9v1H35v2.2h-1.8V1.4h4.2v1.1H35z"/>
	<path fill="#571D1F" d="M41.6,6.7h-3c-0.6,0-0.9-0.2-0.9-0.6V1.4h1.8v4.3h1.3V1.4h1.8v4.7C42.6,6.5,42.3,6.7,41.6,6.7z"/>
	<path fill="#571D1F" d="M43.1,6.7V1.4h1.8v4.3H47v1.1H43.1z"/>
</g>
<g>
	<path d="M94.9,19h-5.2c-1.1,0-1.5-0.5-1.5-1.5V9.5c0-1,0.5-1.5,1.5-1.5h5.2c1,0,1.5,0.5,1.5,1.5v3.1h-3.5v-1.6h-1.2v5.2h1.2v-1.7
		h3.5v3.2C96.4,18.5,95.9,19,94.9,19z"/>
	<path d="M104.3,19H99c-1.1,0-1.5-0.5-1.5-1.5V9.5c0-1,0.5-1.5,1.5-1.5h5.3c1,0,1.5,0.5,1.5,1.5v8.1C105.8,18.5,105.3,19,104.3,19z
		 M102.3,10.9H101v5.2h1.3V10.9z"/>
	<path d="M111.7,19v-8.1h-1.3V19h-3.6V8h3.6v0.5l2.2-0.4C113,8,113.5,8,113.8,8c1,0,1.5,0.5,1.5,1.5V19H111.7z"/>
	<path d="M118.6,19c-1.1,0-1.5-0.5-1.5-1.5V11h-1V8h1V5.5h3.6V8h1.3v3h-1.3v5h1.4v3H118.6z"/>
	<path d="M129.5,19h-5.1c-1.1,0-1.5-0.5-1.5-1.5V9.5c0-1,0.5-1.5,1.5-1.5h5.1c1,0,1.5,0.5,1.5,1.5v4.1l-0.9,0.9h-3.9v2h1.3v-1.6h3.5
		v2.6C131,18.5,130.5,19,129.5,19z M127.6,10.5h-1.3v1.8h1.3V10.5z"/>
	<path d="M137,19v-8.1h-1.3V19h-3.6V8h3.6v0.5l2.2-0.4c0.4-0.1,0.8-0.1,1.2-0.1c1,0,1.5,0.5,1.5,1.5V19H137z"/>
	<path d="M143.8,19c-1.1,0-1.5-0.5-1.5-1.5V11h-1V8h1V5.5h3.6V8h1.3v3h-1.3v5h1.4v3H143.8z"/>
</g>
<g>
	<path d="M97.9,35v-8.1h-1.3V35H93v-8.1h-1.3V35h-3.6v-11h3.6v0.5l2.2-0.4c0.4-0.1,0.9-0.1,1.2-0.1c0.7,0,1,0.3,1.2,0.5l0,0.1
		l2.4-0.4c0.4-0.1,0.8-0.1,1.2-0.1c1,0,1.5,0.5,1.5,1.5V35H97.9z"/>
	<path d="M107.3,35v-0.5l-2.2,0.3c-0.4,0.1-0.8,0.1-1.1,0.1c-1,0-1.5-0.5-1.5-1.5v-3.9c0-1,0.5-1.5,1.5-1.5h3.2v-1.6h-1.4v1.2h-3.2
		v-2.3c0-1,0.5-1.5,1.5-1.5h4.9c1.1,0,1.5,0.5,1.5,1.5V35H107.3z M107.3,30.4h-1.3v2l1.3-0.1V30.4z"/>
	<path d="M116.6,35v-8.1h-1.3V35h-3.6v-11h3.6v0.5l2.2-0.4c0.4-0.1,0.8-0.1,1.2-0.1c1,0,1.5,0.5,1.5,1.5V35H116.6z"/>
	<path d="M126,35v-0.5l-2.2,0.3c-0.4,0.1-0.8,0.1-1.1,0.1c-1,0-1.5-0.5-1.5-1.5v-3.9c0-1,0.5-1.5,1.5-1.5h3.2v-1.6h-1.4v1.2h-3.2
		v-2.3c0-1,0.5-1.5,1.5-1.5h4.9c1.1,0,1.5,0.5,1.5,1.5V35H126z M126,30.4h-1.3v2l1.3-0.1V30.4z"/>
	<path d="M137.4,38.8h-5.3c-1,0-1.5-0.5-1.5-1.5v-2.1h3.5v1.2h1.3v-1.6h-2.7c-1.5,0-2.2-0.7-2.2-2.1v-7.1c0-1.2,0.6-1.8,1.8-1.8
		c0.3,0,0.9,0.1,1.2,0.1l1.8,0.4v-0.5h3.6v13.4C138.9,38.4,138.4,38.8,137.4,38.8z M135.3,27l-0.6-0.1c-0.1,0-0.3,0-0.4,0
		c-0.2,0-0.3,0.1-0.3,0.3v4.6c0,0.3,0,0.3,0.4,0.3h0.9V27z"/>
	<path d="M146.7,35h-5.1c-1.1,0-1.5-0.5-1.5-1.5v-8.1c0-1,0.5-1.5,1.5-1.5h5.1c1,0,1.5,0.5,1.5,1.5v4.1l-0.9,0.9h-3.9v2h1.3v-1.6
		h3.5v2.6C148.2,34.5,147.7,35,146.7,35z M144.7,26.5h-1.3v1.8h1.3V26.5z"/>
	<path d="M153.9,29.7v-2.8h-1.1V35h-3.6v-11h3.6v0.5l2-0.4c0.4-0.1,0.9-0.1,1.2-0.1c1,0,1.5,0.5,1.5,1.5v4.3H153.9z"/>
</g>
</svg>
