<?xml version="1.0" encoding="utf-8"?>
<!-- Generator: Adobe Illustrator 17.1.0, SVG Export Plug-In . SVG Version: 6.00 Build 0)  -->
<!DOCTYPE svg PUBLIC "-//W3C//DTD SVG 1.1//EN" "http://www.w3.org/Graphics/SVG/1.1/DTD/svg11.dtd">
<svg version="1.1" xmlns="http://www.w3.org/2000/svg" xmlns:xlink="http://www.w3.org/1999/xlink" x="0px" y="0px"
	 viewBox="0 0 200 200" enable-background="new 0 0 200 200" xml:space="preserve">
<g id="App_x2B_porthole" display="none">
	<path display="inline" fill="#D0D0D0" d="M3,11.5v177.7h194V11.5H3z M184.6,177.8H15.4V22.9h169.1V177.8z"/>
	<rect x="50.8" y="68.1" display="inline" fill="#666666" width="92.1" height="83.4"/>
	<path display="inline" fill="#DFDFDF" d="M56.6,73.8v73.7H137V73.8H56.6z M131.9,142.8H61.7V78.6h70.1V142.8z"/>
	<rect x="62.1" y="75.4" display="inline" fill="#666666" width="24.6" height="1.3"/>
	<g display="inline">
		<rect x="119.8" y="75.4" fill="#666666" width="3.6" height="1.3"/>
		<rect x="123.7" y="75.4" fill="#666666" width="3.6" height="1.3"/>
		<rect x="127.7" y="75.4" fill="#666666" width="3.6" height="1.3"/>
	</g>
	<rect x="20.3" y="42.9" display="inline" fill="#D0D0D0" width="127.6" height="5"/>
	<rect x="20.3" y="36.2" display="inline" fill="#D0D0D0" width="127.6" height="5"/>
	<rect x="20.3" y="29" display="inline" fill="#D0D0D0" width="127.6" height="5"/>
	<rect x="20.3" y="48.9" display="inline" fill="#D0D0D0" width="103.7" height="5"/>
</g>
<g id="Layer_2">
	<g>
		<path fill="#666666" d="M128.4,85.8c-1.8,0-3.3,0.8-4.2,1.9c-1.3,1.6-1.7,4.1-1.7,6.7c0,2.2,0.3,4.6,1.7,6.4
			c0.7,1,1.9,1.8,4.2,1.8c2,0,3.4-0.7,4.3-2.1c0.8-1.1,1.6-2.9,1.6-6.6c0-1.1-0.1-2.7-0.6-4.1C132.7,87.1,130.8,85.8,128.4,85.8z"/>
		<path fill="#666666" d="M44.7,95.7h-2.8v6.3h3.3c2.3,0,4.8,0,4.8-3.1C50,95.7,47,95.7,44.7,95.7z"/>
		<path fill="#666666" d="M1.4,49.8v85.1h197.3V49.8H1.4z M51.5,104.8c-1.8,0.9-4.9,0.9-5.8,0.9h-8.6V82.8h8.6c1.3,0,3.9,0,5.6,1.1
			c2.1,1.3,2.6,3.6,2.6,4.9c0,0.9-0.2,2.4-1.3,3.4c-0.2,0.2-1.3,1.2-2.6,1.6v0.1c3.5,0.6,4.9,3.2,4.9,5.6
			C54.8,102.1,53.3,103.9,51.5,104.8z M77.9,97.2c0,6.8-5.4,9-10.1,9c-2.3,0-6.5-0.5-8.6-4c-1.1-1.7-1.2-3.5-1.2-5.7V82.8h4.9v14
			c0,2.5,0.2,5.6,5,5.6c0.8,0,3.2,0,4.4-2c0.5-0.7,0.7-1.6,0.7-3.9V82.8h4.8V97.2z M110.6,105.7h-5V86.6h-6.6h-0.3h-6.6v19.1h-5
			V86.6h-6.8v-3.8h18.3h0.3h18.3v3.8h-6.8V105.7z M136.5,103c-2.5,2.9-6.3,3.3-8.2,3.3c-3,0-6-1-8.1-3.1c-2.5-2.7-2.8-6.5-2.8-8.6
			c0-6.1,2.8-12.3,11-12.3c2.4,0,5.8,0.6,8.1,3.1c2.4,2.8,2.9,6.4,2.9,8.6C139.4,97.4,138.4,100.9,136.5,103z M162.9,105.7h-6.8
			l-8.9-19v19h-4.6v-23h7.1l8.6,18.1V82.8h4.6V105.7z"/>
		<path fill="#666666" d="M49.2,89.2c0-2.9-2.4-2.9-4-2.9h-3.3v5.8h3.4C46.7,92.1,49.2,92.1,49.2,89.2z"/>
	</g>
</g>
</svg>
